<?xml version="1.0" encoding="utf-8" standalone="no"?>
<!DOCTYPE svg PUBLIC "-//W3C//DTD SVG 1.1//EN"
  "http://www.w3.org/Graphics/SVG/1.1/DTD/svg11.dtd">
<svg xmlns:xlink="http://www.w3.org/1999/xlink" width="1440pt" height="720pt" viewBox="0 0 1440 720" xmlns="http://www.w3.org/2000/svg" version="1.1">
 <metadata>
  <rdf:RDF xmlns:dc="http://purl.org/dc/elements/1.1/" xmlns:cc="http://creativecommons.org/ns#" xmlns:rdf="http://www.w3.org/1999/02/22-rdf-syntax-ns#">
   <cc:Work>
    <dc:type rdf:resource="http://purl.org/dc/dcmitype/StillImage"/>
    <dc:date>2023-01-28T12:49:45.780177</dc:date>
    <dc:format>image/svg+xml</dc:format>
    <dc:creator>
     <cc:Agent>
      <dc:title>Matplotlib v3.6.2, https://matplotlib.org/</dc:title>
     </cc:Agent>
    </dc:creator>
   </cc:Work>
  </rdf:RDF>
 </metadata>
 <defs>
  <style type="text/css">*{stroke-linejoin: round; stroke-linecap: butt}</style>
 </defs>
 <g id="figure_1">
  <g id="patch_1">
   <path d="M 0 720 
L 1440 720 
L 1440 0 
L 0 0 
z
" style="fill: #ffffff"/>
  </g>
  <g id="axes_1">
   <g id="patch_2">
    <path d="M 180 640.8 
L 1296 640.8 
L 1296 86.4 
L 180 86.4 
z
" style="fill: #ffffff"/>
   </g>
   <g id="matplotlib.axis_1">
    <g id="xtick_1">
     <g id="line2d_1">
      <path d="M 256.741259 640.8 
L 256.741259 86.4 
" clip-path="url(#pdaec34768c)" style="fill: none; stroke-dasharray: 2.96,1.28; stroke-dashoffset: 0; stroke: #b0b0b0; stroke-width: 0.8"/>
     </g>
     <g id="line2d_2">
      <defs>
       <path id="maffeac6094" d="M 0 0 
L 0 3.5 
" style="stroke: #000000; stroke-width: 0.8"/>
      </defs>
      <g>
       <use xlink:href="#maffeac6094" x="256.741259" y="640.8" style="stroke: #000000; stroke-width: 0.8"/>
      </g>
     </g>
     <g id="text_1">
      <!-- 2022-06-15 -->
      <g transform="translate(231.741259 654.675) scale(0.1 -0.1)">
       <defs>
        <path id="SimHei-32" d="M 300 250 
Q 325 625 650 925 
Q 975 1225 1475 1862 
Q 1975 2500 2125 2850 
Q 2275 3200 2237 3450 
Q 2200 3700 2000 3862 
Q 1800 4025 1537 4000 
Q 1275 3975 1037 3800 
Q 800 3625 675 3275 
L 200 3350 
Q 400 3925 712 4187 
Q 1025 4450 1450 4475 
Q 1700 4500 1900 4462 
Q 2100 4425 2312 4287 
Q 2525 4150 2662 3875 
Q 2800 3600 2762 3212 
Q 2725 2825 2375 2287 
Q 2025 1750 1025 600 
L 2825 600 
L 2825 150 
L 300 150 
L 300 250 
z
" transform="scale(0.015625)"/>
        <path id="SimHei-30" d="M 225 2537 
Q 250 3200 412 3587 
Q 575 3975 875 4225 
Q 1175 4475 1612 4475 
Q 2050 4475 2375 4112 
Q 2700 3750 2800 3200 
Q 2900 2650 2862 1937 
Q 2825 1225 2612 775 
Q 2400 325 1975 150 
Q 1550 -25 1125 187 
Q 700 400 525 750 
Q 350 1100 275 1487 
Q 200 1875 225 2537 
z
M 750 2687 
Q 675 2000 800 1462 
Q 925 925 1212 700 
Q 1500 475 1800 612 
Q 2100 750 2237 1162 
Q 2375 1575 2375 2062 
Q 2375 2550 2337 2950 
Q 2300 3350 2112 3675 
Q 1925 4000 1612 4012 
Q 1300 4025 1062 3700 
Q 825 3375 750 2687 
z
" transform="scale(0.015625)"/>
        <path id="SimHei-2d" d="M 2975 2125 
L 125 2125 
L 125 2525 
L 2975 2525 
L 2975 2125 
z
" transform="scale(0.015625)"/>
        <path id="SimHei-36" d="M 250 1612 
Q 275 1975 387 2225 
Q 500 2475 725 2850 
L 1750 4450 
L 2325 4450 
L 1275 2800 
Q 1950 2975 2350 2750 
Q 2750 2525 2887 2237 
Q 3025 1950 3037 1612 
Q 3050 1275 2937 950 
Q 2825 625 2537 362 
Q 2250 100 1737 75 
Q 1225 50 862 262 
Q 500 475 362 862 
Q 225 1250 250 1612 
z
M 1025 787 
Q 1250 550 1625 525 
Q 2000 500 2250 775 
Q 2500 1050 2500 1575 
Q 2500 2100 2187 2300 
Q 1875 2500 1487 2450 
Q 1100 2400 925 2075 
Q 750 1750 775 1387 
Q 800 1025 1025 787 
z
" transform="scale(0.015625)"/>
        <path id="SimHei-31" d="M 1400 3600 
Q 1075 3275 575 2975 
L 575 3450 
Q 1200 3875 1600 4450 
L 1900 4450 
L 1900 150 
L 1400 150 
L 1400 3600 
z
" transform="scale(0.015625)"/>
        <path id="SimHei-35" d="M 550 1325 
Q 725 650 1150 575 
Q 1575 500 1837 662 
Q 2100 825 2212 1087 
Q 2325 1350 2312 1675 
Q 2300 2000 2137 2225 
Q 1975 2450 1725 2525 
Q 1475 2600 1162 2525 
Q 850 2450 650 2175 
L 225 2225 
Q 275 2375 700 4375 
L 2675 4375 
L 2675 3925 
L 1075 3925 
Q 950 3250 825 2850 
Q 1200 3025 1525 3012 
Q 1850 3000 2150 2862 
Q 2450 2725 2587 2487 
Q 2725 2250 2787 2012 
Q 2850 1775 2837 1500 
Q 2825 1225 2725 937 
Q 2625 650 2425 462 
Q 2225 275 1937 162 
Q 1650 50 1275 75 
Q 900 100 562 350 
Q 225 600 100 1200 
L 550 1325 
z
" transform="scale(0.015625)"/>
       </defs>
       <use xlink:href="#SimHei-32"/>
       <use xlink:href="#SimHei-30" x="50"/>
       <use xlink:href="#SimHei-32" x="100"/>
       <use xlink:href="#SimHei-32" x="150"/>
       <use xlink:href="#SimHei-2d" x="200"/>
       <use xlink:href="#SimHei-30" x="250"/>
       <use xlink:href="#SimHei-36" x="300"/>
       <use xlink:href="#SimHei-2d" x="350"/>
       <use xlink:href="#SimHei-31" x="400"/>
       <use xlink:href="#SimHei-35" x="450"/>
      </g>
     </g>
    </g>
    <g id="xtick_2">
     <g id="line2d_3">
      <path d="M 438.839161 640.8 
L 438.839161 86.4 
" clip-path="url(#pdaec34768c)" style="fill: none; stroke-dasharray: 2.96,1.28; stroke-dashoffset: 0; stroke: #b0b0b0; stroke-width: 0.8"/>
     </g>
     <g id="line2d_4">
      <g>
       <use xlink:href="#maffeac6094" x="438.839161" y="640.8" style="stroke: #000000; stroke-width: 0.8"/>
      </g>
     </g>
     <g id="text_2">
      <!-- 2022-06-22 -->
      <g transform="translate(413.839161 654.675) scale(0.1 -0.1)">
       <use xlink:href="#SimHei-32"/>
       <use xlink:href="#SimHei-30" x="50"/>
       <use xlink:href="#SimHei-32" x="100"/>
       <use xlink:href="#SimHei-32" x="150"/>
       <use xlink:href="#SimHei-2d" x="200"/>
       <use xlink:href="#SimHei-30" x="250"/>
       <use xlink:href="#SimHei-36" x="300"/>
       <use xlink:href="#SimHei-2d" x="350"/>
       <use xlink:href="#SimHei-32" x="400"/>
       <use xlink:href="#SimHei-32" x="450"/>
      </g>
     </g>
    </g>
    <g id="xtick_3">
     <g id="line2d_5">
      <path d="M 672.965035 640.8 
L 672.965035 86.4 
" clip-path="url(#pdaec34768c)" style="fill: none; stroke-dasharray: 2.96,1.28; stroke-dashoffset: 0; stroke: #b0b0b0; stroke-width: 0.8"/>
     </g>
     <g id="line2d_6">
      <g>
       <use xlink:href="#maffeac6094" x="672.965035" y="640.8" style="stroke: #000000; stroke-width: 0.8"/>
      </g>
     </g>
     <g id="text_3">
      <!-- 2022-07-01 -->
      <g transform="translate(647.965035 654.675) scale(0.1 -0.1)">
       <defs>
        <path id="SimHei-37" d="M 850 150 
Q 1300 2050 2425 3925 
L 275 3925 
L 275 4375 
L 2950 4375 
L 2950 3950 
Q 1775 2050 1400 150 
L 850 150 
z
" transform="scale(0.015625)"/>
       </defs>
       <use xlink:href="#SimHei-32"/>
       <use xlink:href="#SimHei-30" x="50"/>
       <use xlink:href="#SimHei-32" x="100"/>
       <use xlink:href="#SimHei-32" x="150"/>
       <use xlink:href="#SimHei-2d" x="200"/>
       <use xlink:href="#SimHei-30" x="250"/>
       <use xlink:href="#SimHei-37" x="300"/>
       <use xlink:href="#SimHei-2d" x="350"/>
       <use xlink:href="#SimHei-30" x="400"/>
       <use xlink:href="#SimHei-31" x="450"/>
      </g>
     </g>
    </g>
    <g id="xtick_4">
     <g id="line2d_7">
      <path d="M 855.062937 640.8 
L 855.062937 86.4 
" clip-path="url(#pdaec34768c)" style="fill: none; stroke-dasharray: 2.96,1.28; stroke-dashoffset: 0; stroke: #b0b0b0; stroke-width: 0.8"/>
     </g>
     <g id="line2d_8">
      <g>
       <use xlink:href="#maffeac6094" x="855.062937" y="640.8" style="stroke: #000000; stroke-width: 0.8"/>
      </g>
     </g>
     <g id="text_4">
      <!-- 2022-07-08 -->
      <g transform="translate(830.062937 654.675) scale(0.1 -0.1)">
       <defs>
        <path id="SimHei-38" d="M 175 1375 
Q 175 1675 325 1962 
Q 475 2250 825 2425 
Q 525 2600 425 2812 
Q 325 3025 312 3300 
Q 300 3575 387 3775 
Q 475 3975 650 4150 
Q 825 4325 1037 4387 
Q 1250 4450 1500 4450 
Q 1750 4450 1950 4400 
Q 2150 4350 2375 4187 
Q 2600 4025 2700 3725 
Q 2800 3425 2687 3025 
Q 2575 2625 2100 2400 
Q 2525 2275 2700 2012 
Q 2875 1750 2875 1375 
Q 2875 1000 2762 775 
Q 2650 550 2512 400 
Q 2375 250 2137 162 
Q 1900 75 1537 75 
Q 1175 75 912 162 
Q 650 250 475 425 
Q 300 600 237 837 
Q 175 1075 175 1375 
z
M 687 1400 
Q 675 1100 787 875 
Q 900 650 1200 587 
Q 1500 525 1825 600 
Q 2150 675 2275 950 
Q 2400 1225 2362 1500 
Q 2325 1775 2050 1962 
Q 1775 2150 1450 2125 
Q 1125 2100 912 1900 
Q 700 1700 687 1400 
z
M 775 3350 
Q 775 3100 950 2875 
Q 1125 2650 1500 2650 
Q 1875 2650 2062 2875 
Q 2250 3100 2237 3412 
Q 2225 3725 2012 3875 
Q 1800 4025 1437 4000 
Q 1075 3975 925 3787 
Q 775 3600 775 3350 
z
" transform="scale(0.015625)"/>
       </defs>
       <use xlink:href="#SimHei-32"/>
       <use xlink:href="#SimHei-30" x="50"/>
       <use xlink:href="#SimHei-32" x="100"/>
       <use xlink:href="#SimHei-32" x="150"/>
       <use xlink:href="#SimHei-2d" x="200"/>
       <use xlink:href="#SimHei-30" x="250"/>
       <use xlink:href="#SimHei-37" x="300"/>
       <use xlink:href="#SimHei-2d" x="350"/>
       <use xlink:href="#SimHei-30" x="400"/>
       <use xlink:href="#SimHei-38" x="450"/>
      </g>
     </g>
    </g>
    <g id="xtick_5">
     <g id="line2d_9">
      <path d="M 1037.160839 640.8 
L 1037.160839 86.4 
" clip-path="url(#pdaec34768c)" style="fill: none; stroke-dasharray: 2.96,1.28; stroke-dashoffset: 0; stroke: #b0b0b0; stroke-width: 0.8"/>
     </g>
     <g id="line2d_10">
      <g>
       <use xlink:href="#maffeac6094" x="1037.160839" y="640.8" style="stroke: #000000; stroke-width: 0.8"/>
      </g>
     </g>
     <g id="text_5">
      <!-- 2022-07-15 -->
      <g transform="translate(1012.160839 654.675) scale(0.1 -0.1)">
       <use xlink:href="#SimHei-32"/>
       <use xlink:href="#SimHei-30" x="50"/>
       <use xlink:href="#SimHei-32" x="100"/>
       <use xlink:href="#SimHei-32" x="150"/>
       <use xlink:href="#SimHei-2d" x="200"/>
       <use xlink:href="#SimHei-30" x="250"/>
       <use xlink:href="#SimHei-37" x="300"/>
       <use xlink:href="#SimHei-2d" x="350"/>
       <use xlink:href="#SimHei-31" x="400"/>
       <use xlink:href="#SimHei-35" x="450"/>
      </g>
     </g>
    </g>
    <g id="xtick_6">
     <g id="line2d_11">
      <path d="M 1219.258741 640.8 
L 1219.258741 86.4 
" clip-path="url(#pdaec34768c)" style="fill: none; stroke-dasharray: 2.96,1.28; stroke-dashoffset: 0; stroke: #b0b0b0; stroke-width: 0.8"/>
     </g>
     <g id="line2d_12">
      <g>
       <use xlink:href="#maffeac6094" x="1219.258741" y="640.8" style="stroke: #000000; stroke-width: 0.8"/>
      </g>
     </g>
     <g id="text_6">
      <!-- 2022-07-22 -->
      <g transform="translate(1194.258741 654.675) scale(0.1 -0.1)">
       <use xlink:href="#SimHei-32"/>
       <use xlink:href="#SimHei-30" x="50"/>
       <use xlink:href="#SimHei-32" x="100"/>
       <use xlink:href="#SimHei-32" x="150"/>
       <use xlink:href="#SimHei-2d" x="200"/>
       <use xlink:href="#SimHei-30" x="250"/>
       <use xlink:href="#SimHei-37" x="300"/>
       <use xlink:href="#SimHei-2d" x="350"/>
       <use xlink:href="#SimHei-32" x="400"/>
       <use xlink:href="#SimHei-32" x="450"/>
      </g>
     </g>
    </g>
    <g id="text_7">
     <!-- Date -->
     <g transform="translate(726 668.175) scale(0.12 -0.12)">
      <defs>
       <path id="SimHei-44" d="M 2925 2250 
Q 2925 1100 2437 612 
Q 1950 125 1125 125 
L 275 125 
L 275 4400 
L 1125 4400 
Q 2050 4400 2487 3900 
Q 2925 3400 2925 2250 
z
M 2325 2250 
Q 2325 3175 2025 3550 
Q 1725 3925 1125 3925 
L 850 3925 
L 850 600 
L 1125 600 
Q 1725 600 2025 962 
Q 2325 1325 2325 2250 
z
" transform="scale(0.015625)"/>
       <path id="SimHei-61" d="M 2875 125 
L 2275 125 
Q 2225 175 2200 262 
Q 2175 350 2175 475 
Q 2000 275 1750 175 
Q 1500 75 1225 75 
Q 825 75 550 275 
Q 275 475 275 850 
Q 275 1225 525 1450 
Q 775 1675 1300 1750 
Q 1650 1800 1912 1875 
Q 2175 1950 2175 2075 
Q 2175 2225 2062 2375 
Q 1950 2525 1575 2525 
Q 1275 2525 1137 2412 
Q 1000 2300 950 2100 
L 400 2100 
Q 450 2500 762 2737 
Q 1075 2975 1575 2975 
Q 2125 2975 2400 2725 
Q 2675 2475 2675 2025 
L 2675 650 
Q 2675 500 2725 375 
Q 2775 250 2875 125 
z
M 2175 1050 
L 2175 1550 
Q 2025 1500 1887 1462 
Q 1750 1425 1425 1375 
Q 1050 1325 937 1200 
Q 825 1075 825 900 
Q 825 750 937 637 
Q 1050 525 1275 525 
Q 1500 525 1762 650 
Q 2025 775 2175 1050 
z
" transform="scale(0.015625)"/>
       <path id="SimHei-74" d="M 2750 200 
Q 2625 150 2462 112 
Q 2300 75 2025 75 
Q 1575 75 1300 325 
Q 1025 575 1025 1025 
L 1025 2525 
L 175 2525 
L 175 2925 
L 1025 2925 
L 1025 3900 
L 1525 3900 
L 1525 2925 
L 2550 2925 
L 2550 2525 
L 1525 2525 
L 1525 1000 
Q 1525 800 1625 662 
Q 1725 525 2000 525 
Q 2275 525 2450 575 
Q 2625 625 2750 700 
L 2750 200 
z
" transform="scale(0.015625)"/>
       <path id="SimHei-65" d="M 2850 1075 
Q 2800 625 2450 350 
Q 2100 75 1625 75 
Q 1025 75 637 462 
Q 250 850 250 1525 
Q 250 2200 637 2587 
Q 1025 2975 1625 2975 
Q 2150 2975 2487 2637 
Q 2825 2300 2825 1525 
L 800 1525 
Q 800 975 1037 750 
Q 1275 525 1625 525 
Q 1900 525 2075 662 
Q 2250 800 2300 1075 
L 2850 1075 
z
M 2250 1925 
Q 2200 2275 2025 2412 
Q 1850 2550 1575 2550 
Q 1325 2550 1125 2412 
Q 925 2275 825 1925 
L 2250 1925 
z
" transform="scale(0.015625)"/>
      </defs>
      <use xlink:href="#SimHei-44"/>
      <use xlink:href="#SimHei-61" x="50"/>
      <use xlink:href="#SimHei-74" x="100"/>
      <use xlink:href="#SimHei-65" x="150"/>
     </g>
    </g>
   </g>
   <g id="matplotlib.axis_2">
    <g id="ytick_1">
     <g id="line2d_13">
      <path d="M 180 629.079824 
L 1296 629.079824 
" clip-path="url(#pdaec34768c)" style="fill: none; stroke-dasharray: 2.96,1.28; stroke-dashoffset: 0; stroke: #b0b0b0; stroke-width: 0.8"/>
     </g>
     <g id="line2d_14">
      <defs>
       <path id="me6e66f6be4" d="M 0 0 
L -3.5 0 
" style="stroke: #000000; stroke-width: 0.8"/>
      </defs>
      <g>
       <use xlink:href="#me6e66f6be4" x="180" y="629.079824" style="stroke: #000000; stroke-width: 0.8"/>
      </g>
     </g>
     <g id="text_8">
      <!-- 24 -->
      <g transform="translate(163 632.517324) scale(0.1 -0.1)">
       <defs>
        <path id="SimHei-34" d="M 2000 1100 
L 75 1100 
L 75 1525 
L 2100 4450 
L 2475 4450 
L 2475 1525 
L 3075 1525 
L 3075 1100 
L 2475 1100 
L 2475 150 
L 2000 150 
L 2000 1100 
z
M 2000 1525 
L 2000 3500 
L 600 1525 
L 2000 1525 
z
" transform="scale(0.015625)"/>
       </defs>
       <use xlink:href="#SimHei-32"/>
       <use xlink:href="#SimHei-34" x="50"/>
      </g>
     </g>
    </g>
    <g id="ytick_2">
     <g id="line2d_15">
      <path d="M 180 562.932367 
L 1296 562.932367 
" clip-path="url(#pdaec34768c)" style="fill: none; stroke-dasharray: 2.96,1.28; stroke-dashoffset: 0; stroke: #b0b0b0; stroke-width: 0.8"/>
     </g>
     <g id="line2d_16">
      <g>
       <use xlink:href="#me6e66f6be4" x="180" y="562.932367" style="stroke: #000000; stroke-width: 0.8"/>
      </g>
     </g>
     <g id="text_9">
      <!-- 26 -->
      <g transform="translate(163 566.369867) scale(0.1 -0.1)">
       <use xlink:href="#SimHei-32"/>
       <use xlink:href="#SimHei-36" x="50"/>
      </g>
     </g>
    </g>
    <g id="ytick_3">
     <g id="line2d_17">
      <path d="M 180 496.78491 
L 1296 496.78491 
" clip-path="url(#pdaec34768c)" style="fill: none; stroke-dasharray: 2.96,1.28; stroke-dashoffset: 0; stroke: #b0b0b0; stroke-width: 0.8"/>
     </g>
     <g id="line2d_18">
      <g>
       <use xlink:href="#me6e66f6be4" x="180" y="496.78491" style="stroke: #000000; stroke-width: 0.8"/>
      </g>
     </g>
     <g id="text_10">
      <!-- 28 -->
      <g transform="translate(163 500.22241) scale(0.1 -0.1)">
       <use xlink:href="#SimHei-32"/>
       <use xlink:href="#SimHei-38" x="50"/>
      </g>
     </g>
    </g>
    <g id="ytick_4">
     <g id="line2d_19">
      <path d="M 180 430.637453 
L 1296 430.637453 
" clip-path="url(#pdaec34768c)" style="fill: none; stroke-dasharray: 2.96,1.28; stroke-dashoffset: 0; stroke: #b0b0b0; stroke-width: 0.8"/>
     </g>
     <g id="line2d_20">
      <g>
       <use xlink:href="#me6e66f6be4" x="180" y="430.637453" style="stroke: #000000; stroke-width: 0.8"/>
      </g>
     </g>
     <g id="text_11">
      <!-- 30 -->
      <g transform="translate(163 434.074953) scale(0.1 -0.1)">
       <defs>
        <path id="SimHei-33" d="M 250 1225 
L 700 1300 
Q 800 975 1025 762 
Q 1250 550 1587 562 
Q 1925 575 2125 837 
Q 2325 1100 2300 1437 
Q 2275 1775 2037 1962 
Q 1800 2150 1275 2225 
L 1275 2550 
Q 1800 2600 2037 2825 
Q 2275 3050 2250 3412 
Q 2225 3775 1925 3937 
Q 1625 4100 1287 3975 
Q 950 3850 750 3275 
L 300 3350 
Q 450 3800 712 4100 
Q 975 4400 1425 4450 
Q 1875 4500 2212 4337 
Q 2550 4175 2687 3837 
Q 2825 3500 2725 3100 
Q 2625 2700 2150 2400 
Q 2500 2250 2687 1950 
Q 2875 1650 2812 1162 
Q 2750 675 2375 375 
Q 2000 75 1525 87 
Q 1050 100 700 387 
Q 350 675 250 1225 
z
" transform="scale(0.015625)"/>
       </defs>
       <use xlink:href="#SimHei-33"/>
       <use xlink:href="#SimHei-30" x="50"/>
      </g>
     </g>
    </g>
    <g id="ytick_5">
     <g id="line2d_21">
      <path d="M 180 364.489996 
L 1296 364.489996 
" clip-path="url(#pdaec34768c)" style="fill: none; stroke-dasharray: 2.96,1.28; stroke-dashoffset: 0; stroke: #b0b0b0; stroke-width: 0.8"/>
     </g>
     <g id="line2d_22">
      <g>
       <use xlink:href="#me6e66f6be4" x="180" y="364.489996" style="stroke: #000000; stroke-width: 0.8"/>
      </g>
     </g>
     <g id="text_12">
      <!-- 32 -->
      <g transform="translate(163 367.927496) scale(0.1 -0.1)">
       <use xlink:href="#SimHei-33"/>
       <use xlink:href="#SimHei-32" x="50"/>
      </g>
     </g>
    </g>
    <g id="ytick_6">
     <g id="line2d_23">
      <path d="M 180 298.342539 
L 1296 298.342539 
" clip-path="url(#pdaec34768c)" style="fill: none; stroke-dasharray: 2.96,1.28; stroke-dashoffset: 0; stroke: #b0b0b0; stroke-width: 0.8"/>
     </g>
     <g id="line2d_24">
      <g>
       <use xlink:href="#me6e66f6be4" x="180" y="298.342539" style="stroke: #000000; stroke-width: 0.8"/>
      </g>
     </g>
     <g id="text_13">
      <!-- 34 -->
      <g transform="translate(163 301.780039) scale(0.1 -0.1)">
       <use xlink:href="#SimHei-33"/>
       <use xlink:href="#SimHei-34" x="50"/>
      </g>
     </g>
    </g>
    <g id="ytick_7">
     <g id="line2d_25">
      <path d="M 180 232.195082 
L 1296 232.195082 
" clip-path="url(#pdaec34768c)" style="fill: none; stroke-dasharray: 2.96,1.28; stroke-dashoffset: 0; stroke: #b0b0b0; stroke-width: 0.8"/>
     </g>
     <g id="line2d_26">
      <g>
       <use xlink:href="#me6e66f6be4" x="180" y="232.195082" style="stroke: #000000; stroke-width: 0.8"/>
      </g>
     </g>
     <g id="text_14">
      <!-- 36 -->
      <g transform="translate(163 235.632582) scale(0.1 -0.1)">
       <use xlink:href="#SimHei-33"/>
       <use xlink:href="#SimHei-36" x="50"/>
      </g>
     </g>
    </g>
    <g id="ytick_8">
     <g id="line2d_27">
      <path d="M 180 166.047625 
L 1296 166.047625 
" clip-path="url(#pdaec34768c)" style="fill: none; stroke-dasharray: 2.96,1.28; stroke-dashoffset: 0; stroke: #b0b0b0; stroke-width: 0.8"/>
     </g>
     <g id="line2d_28">
      <g>
       <use xlink:href="#me6e66f6be4" x="180" y="166.047625" style="stroke: #000000; stroke-width: 0.8"/>
      </g>
     </g>
     <g id="text_15">
      <!-- 38 -->
      <g transform="translate(163 169.485125) scale(0.1 -0.1)">
       <use xlink:href="#SimHei-33"/>
       <use xlink:href="#SimHei-38" x="50"/>
      </g>
     </g>
    </g>
    <g id="ytick_9">
     <g id="line2d_29">
      <path d="M 180 99.900169 
L 1296 99.900169 
" clip-path="url(#pdaec34768c)" style="fill: none; stroke-dasharray: 2.96,1.28; stroke-dashoffset: 0; stroke: #b0b0b0; stroke-width: 0.8"/>
     </g>
     <g id="line2d_30">
      <g>
       <use xlink:href="#me6e66f6be4" x="180" y="99.900169" style="stroke: #000000; stroke-width: 0.8"/>
      </g>
     </g>
     <g id="text_16">
      <!-- 40 -->
      <g transform="translate(163 103.337669) scale(0.1 -0.1)">
       <use xlink:href="#SimHei-34"/>
       <use xlink:href="#SimHei-30" x="50"/>
      </g>
     </g>
    </g>
    <g id="text_17">
     <!-- Value -->
     <g transform="translate(157.5 378.6) rotate(-90) scale(0.12 -0.12)">
      <defs>
       <path id="SimHei-56" d="M 3050 4400 
L 1800 75 
L 1300 75 
L 50 4400 
L 650 4400 
L 1525 1125 
L 1575 1125 
L 2450 4400 
L 3050 4400 
z
" transform="scale(0.015625)"/>
       <path id="SimHei-6c" d="M 1825 125 
L 1325 125 
L 1325 4400 
L 1825 4400 
L 1825 125 
z
" transform="scale(0.015625)"/>
       <path id="SimHei-75" d="M 2800 125 
L 2300 125 
L 2300 650 
Q 2100 375 1862 225 
Q 1625 75 1250 75 
Q 800 75 575 325 
Q 350 575 350 950 
L 350 2925 
L 850 2925 
L 850 1125 
Q 850 825 1000 650 
Q 1150 475 1400 475 
Q 1725 475 2012 812 
Q 2300 1150 2300 1650 
L 2300 2925 
L 2800 2925 
L 2800 125 
z
" transform="scale(0.015625)"/>
      </defs>
      <use xlink:href="#SimHei-56"/>
      <use xlink:href="#SimHei-61" x="50"/>
      <use xlink:href="#SimHei-6c" x="100"/>
      <use xlink:href="#SimHei-75" x="150"/>
      <use xlink:href="#SimHei-65" x="200"/>
     </g>
    </g>
   </g>
   <g id="line2d_31">
    <path d="M 230.727273 614.656003 
L 256.741259 577.035504 
L 282.755245 599.553133 
L 308.769231 582.200089 
L 386.811189 599.124475 
L 412.825175 566.23974 
L 438.839161 542.267696 
L 464.853147 535.35124 
L 568.909091 580.81108 
L 620.937063 547.629945 
L 803.034965 494.202441 
L 829.048951 506.114663 
L 855.062937 488.19024 
L 881.076923 472.650027 
L 907.090909 453.722472 
L 933.104895 459.128417 
L 959.118881 438.287159 
L 1011.146853 444.774455 
L 1037.160839 468.443269 
L 1063.174825 452.146626 
L 1089.188811 489.43271 
L 1115.202797 450.261199 
L 1141.216783 458.988063 
L 1167.230769 466.768579 
L 1193.244755 480.666219 
L 1219.258741 499.923754 
L 1245.272727 475.8734 
" clip-path="url(#pdaec34768c)" style="fill: none; stroke: #1f77b4; stroke-width: 1.5; stroke-linecap: square"/>
    <defs>
     <path id="m14bb0fa391" d="M 0 0.75 
C 0.198902 0.75 0.389685 0.670975 0.53033 0.53033 
C 0.670975 0.389685 0.75 0.198902 0.75 0 
C 0.75 -0.198902 0.670975 -0.389685 0.53033 -0.53033 
C 0.389685 -0.670975 0.198902 -0.75 0 -0.75 
C -0.198902 -0.75 -0.389685 -0.670975 -0.53033 -0.53033 
C -0.670975 -0.389685 -0.75 -0.198902 -0.75 0 
C -0.75 0.198902 -0.670975 0.389685 -0.53033 0.53033 
C -0.389685 0.670975 -0.198902 0.75 0 0.75 
z
" style="stroke: #1f77b4"/>
    </defs>
    <g clip-path="url(#pdaec34768c)">
     <use xlink:href="#m14bb0fa391" x="230.727273" y="614.656003" style="fill: #1f77b4; stroke: #1f77b4"/>
     <use xlink:href="#m14bb0fa391" x="256.741259" y="577.035504" style="fill: #1f77b4; stroke: #1f77b4"/>
     <use xlink:href="#m14bb0fa391" x="282.755245" y="599.553133" style="fill: #1f77b4; stroke: #1f77b4"/>
     <use xlink:href="#m14bb0fa391" x="308.769231" y="582.200089" style="fill: #1f77b4; stroke: #1f77b4"/>
     <use xlink:href="#m14bb0fa391" x="386.811189" y="599.124475" style="fill: #1f77b4; stroke: #1f77b4"/>
     <use xlink:href="#m14bb0fa391" x="412.825175" y="566.23974" style="fill: #1f77b4; stroke: #1f77b4"/>
     <use xlink:href="#m14bb0fa391" x="438.839161" y="542.267696" style="fill: #1f77b4; stroke: #1f77b4"/>
     <use xlink:href="#m14bb0fa391" x="464.853147" y="535.35124" style="fill: #1f77b4; stroke: #1f77b4"/>
     <use xlink:href="#m14bb0fa391" x="568.909091" y="580.81108" style="fill: #1f77b4; stroke: #1f77b4"/>
     <use xlink:href="#m14bb0fa391" x="620.937063" y="547.629945" style="fill: #1f77b4; stroke: #1f77b4"/>
     <use xlink:href="#m14bb0fa391" x="803.034965" y="494.202441" style="fill: #1f77b4; stroke: #1f77b4"/>
     <use xlink:href="#m14bb0fa391" x="829.048951" y="506.114663" style="fill: #1f77b4; stroke: #1f77b4"/>
     <use xlink:href="#m14bb0fa391" x="855.062937" y="488.19024" style="fill: #1f77b4; stroke: #1f77b4"/>
     <use xlink:href="#m14bb0fa391" x="881.076923" y="472.650027" style="fill: #1f77b4; stroke: #1f77b4"/>
     <use xlink:href="#m14bb0fa391" x="907.090909" y="453.722472" style="fill: #1f77b4; stroke: #1f77b4"/>
     <use xlink:href="#m14bb0fa391" x="933.104895" y="459.128417" style="fill: #1f77b4; stroke: #1f77b4"/>
     <use xlink:href="#m14bb0fa391" x="959.118881" y="438.287159" style="fill: #1f77b4; stroke: #1f77b4"/>
     <use xlink:href="#m14bb0fa391" x="1011.146853" y="444.774455" style="fill: #1f77b4; stroke: #1f77b4"/>
     <use xlink:href="#m14bb0fa391" x="1037.160839" y="468.443269" style="fill: #1f77b4; stroke: #1f77b4"/>
     <use xlink:href="#m14bb0fa391" x="1063.174825" y="452.146626" style="fill: #1f77b4; stroke: #1f77b4"/>
     <use xlink:href="#m14bb0fa391" x="1089.188811" y="489.43271" style="fill: #1f77b4; stroke: #1f77b4"/>
     <use xlink:href="#m14bb0fa391" x="1115.202797" y="450.261199" style="fill: #1f77b4; stroke: #1f77b4"/>
     <use xlink:href="#m14bb0fa391" x="1141.216783" y="458.988063" style="fill: #1f77b4; stroke: #1f77b4"/>
     <use xlink:href="#m14bb0fa391" x="1167.230769" y="466.768579" style="fill: #1f77b4; stroke: #1f77b4"/>
     <use xlink:href="#m14bb0fa391" x="1193.244755" y="480.666219" style="fill: #1f77b4; stroke: #1f77b4"/>
     <use xlink:href="#m14bb0fa391" x="1219.258741" y="499.923754" style="fill: #1f77b4; stroke: #1f77b4"/>
     <use xlink:href="#m14bb0fa391" x="1245.272727" y="475.8734" style="fill: #1f77b4; stroke: #1f77b4"/>
    </g>
   </g>
   <g id="line2d_32">
    <path d="M 230.727273 566.373822 
L 256.741259 546.885484 
L 282.755245 548.935948 
L 308.769231 537.22506 
L 386.811189 524.921203 
L 412.825175 514.352332 
L 438.839161 486.683322 
L 464.853147 469.13765 
L 568.909091 475.971271 
L 620.937063 461.684833 
L 803.034965 421.877384 
L 829.048951 405.289155 
L 855.062937 394.098858 
L 881.076923 367.707981 
L 907.090909 335.341017 
L 933.104895 339.306406 
L 959.118881 320.1667 
L 1011.146853 314.657568 
L 1037.160839 328.172255 
L 1063.174825 309.33012 
L 1089.188811 302.465731 
L 1115.202797 372.97892 
L 1141.216783 375.203008 
L 1167.230769 338.915543 
L 1193.244755 361.069872 
L 1219.258741 371.25315 
L 1245.272727 371.418072 
" clip-path="url(#pdaec34768c)" style="fill: none; stroke: #ff7f0e; stroke-width: 1.5; stroke-linecap: square"/>
    <defs>
     <path id="m1fc1fd8b10" d="M 0 0.75 
C 0.198902 0.75 0.389685 0.670975 0.53033 0.53033 
C 0.670975 0.389685 0.75 0.198902 0.75 0 
C 0.75 -0.198902 0.670975 -0.389685 0.53033 -0.53033 
C 0.389685 -0.670975 0.198902 -0.75 0 -0.75 
C -0.198902 -0.75 -0.389685 -0.670975 -0.53033 -0.53033 
C -0.670975 -0.389685 -0.75 -0.198902 -0.75 0 
C -0.75 0.198902 -0.670975 0.389685 -0.53033 0.53033 
C -0.389685 0.670975 -0.198902 0.75 0 0.75 
z
" style="stroke: #ff7f0e"/>
    </defs>
    <g clip-path="url(#pdaec34768c)">
     <use xlink:href="#m1fc1fd8b10" x="230.727273" y="566.373822" style="fill: #ff7f0e; stroke: #ff7f0e"/>
     <use xlink:href="#m1fc1fd8b10" x="256.741259" y="546.885484" style="fill: #ff7f0e; stroke: #ff7f0e"/>
     <use xlink:href="#m1fc1fd8b10" x="282.755245" y="548.935948" style="fill: #ff7f0e; stroke: #ff7f0e"/>
     <use xlink:href="#m1fc1fd8b10" x="308.769231" y="537.22506" style="fill: #ff7f0e; stroke: #ff7f0e"/>
     <use xlink:href="#m1fc1fd8b10" x="386.811189" y="524.921203" style="fill: #ff7f0e; stroke: #ff7f0e"/>
     <use xlink:href="#m1fc1fd8b10" x="412.825175" y="514.352332" style="fill: #ff7f0e; stroke: #ff7f0e"/>
     <use xlink:href="#m1fc1fd8b10" x="438.839161" y="486.683322" style="fill: #ff7f0e; stroke: #ff7f0e"/>
     <use xlink:href="#m1fc1fd8b10" x="464.853147" y="469.13765" style="fill: #ff7f0e; stroke: #ff7f0e"/>
     <use xlink:href="#m1fc1fd8b10" x="568.909091" y="475.971271" style="fill: #ff7f0e; stroke: #ff7f0e"/>
     <use xlink:href="#m1fc1fd8b10" x="620.937063" y="461.684833" style="fill: #ff7f0e; stroke: #ff7f0e"/>
     <use xlink:href="#m1fc1fd8b10" x="803.034965" y="421.877384" style="fill: #ff7f0e; stroke: #ff7f0e"/>
     <use xlink:href="#m1fc1fd8b10" x="829.048951" y="405.289155" style="fill: #ff7f0e; stroke: #ff7f0e"/>
     <use xlink:href="#m1fc1fd8b10" x="855.062937" y="394.098858" style="fill: #ff7f0e; stroke: #ff7f0e"/>
     <use xlink:href="#m1fc1fd8b10" x="881.076923" y="367.707981" style="fill: #ff7f0e; stroke: #ff7f0e"/>
     <use xlink:href="#m1fc1fd8b10" x="907.090909" y="335.341017" style="fill: #ff7f0e; stroke: #ff7f0e"/>
     <use xlink:href="#m1fc1fd8b10" x="933.104895" y="339.306406" style="fill: #ff7f0e; stroke: #ff7f0e"/>
     <use xlink:href="#m1fc1fd8b10" x="959.118881" y="320.1667" style="fill: #ff7f0e; stroke: #ff7f0e"/>
     <use xlink:href="#m1fc1fd8b10" x="1011.146853" y="314.657568" style="fill: #ff7f0e; stroke: #ff7f0e"/>
     <use xlink:href="#m1fc1fd8b10" x="1037.160839" y="328.172255" style="fill: #ff7f0e; stroke: #ff7f0e"/>
     <use xlink:href="#m1fc1fd8b10" x="1063.174825" y="309.33012" style="fill: #ff7f0e; stroke: #ff7f0e"/>
     <use xlink:href="#m1fc1fd8b10" x="1089.188811" y="302.465731" style="fill: #ff7f0e; stroke: #ff7f0e"/>
     <use xlink:href="#m1fc1fd8b10" x="1115.202797" y="372.97892" style="fill: #ff7f0e; stroke: #ff7f0e"/>
     <use xlink:href="#m1fc1fd8b10" x="1141.216783" y="375.203008" style="fill: #ff7f0e; stroke: #ff7f0e"/>
     <use xlink:href="#m1fc1fd8b10" x="1167.230769" y="338.915543" style="fill: #ff7f0e; stroke: #ff7f0e"/>
     <use xlink:href="#m1fc1fd8b10" x="1193.244755" y="361.069872" style="fill: #ff7f0e; stroke: #ff7f0e"/>
     <use xlink:href="#m1fc1fd8b10" x="1219.258741" y="371.25315" style="fill: #ff7f0e; stroke: #ff7f0e"/>
     <use xlink:href="#m1fc1fd8b10" x="1245.272727" y="371.418072" style="fill: #ff7f0e; stroke: #ff7f0e"/>
    </g>
   </g>
   <g id="line2d_33">
    <path d="M 230.727273 533.301931 
L 256.741259 533.947754 
L 282.755245 533.780238 
L 308.769231 516.659214 
L 386.811189 511.148358 
L 412.825175 489.837048 
L 438.839161 479.240331 
L 464.853147 467.491036 
L 568.909091 458.845162 
L 620.937063 440.813985 
L 803.034965 421.817792 
L 829.048951 388.131587 
L 855.062937 374.501503 
L 881.076923 295.234941 
L 907.090909 258.719342 
L 933.104895 271.472837 
L 959.118881 296.417014 
L 1011.146853 271.295128 
L 1037.160839 291.187044 
L 1063.174825 281.40879 
L 1089.188811 283.040428 
L 1141.216783 329.369553 
L 1167.230769 290.330035 
L 1193.244755 316.471842 
L 1219.258741 321.918171 
L 1245.272727 328.155314 
" clip-path="url(#pdaec34768c)" style="fill: none; stroke: #2ca02c; stroke-width: 1.5; stroke-linecap: square"/>
    <defs>
     <path id="m0398fa574b" d="M 0 0.75 
C 0.198902 0.75 0.389685 0.670975 0.53033 0.53033 
C 0.670975 0.389685 0.75 0.198902 0.75 0 
C 0.75 -0.198902 0.670975 -0.389685 0.53033 -0.53033 
C 0.389685 -0.670975 0.198902 -0.75 0 -0.75 
C -0.198902 -0.75 -0.389685 -0.670975 -0.53033 -0.53033 
C -0.670975 -0.389685 -0.75 -0.198902 -0.75 0 
C -0.75 0.198902 -0.670975 0.389685 -0.53033 0.53033 
C -0.389685 0.670975 -0.198902 0.75 0 0.75 
z
" style="stroke: #2ca02c"/>
    </defs>
    <g clip-path="url(#pdaec34768c)">
     <use xlink:href="#m0398fa574b" x="230.727273" y="533.301931" style="fill: #2ca02c; stroke: #2ca02c"/>
     <use xlink:href="#m0398fa574b" x="256.741259" y="533.947754" style="fill: #2ca02c; stroke: #2ca02c"/>
     <use xlink:href="#m0398fa574b" x="282.755245" y="533.780238" style="fill: #2ca02c; stroke: #2ca02c"/>
     <use xlink:href="#m0398fa574b" x="308.769231" y="516.659214" style="fill: #2ca02c; stroke: #2ca02c"/>
     <use xlink:href="#m0398fa574b" x="386.811189" y="511.148358" style="fill: #2ca02c; stroke: #2ca02c"/>
     <use xlink:href="#m0398fa574b" x="412.825175" y="489.837048" style="fill: #2ca02c; stroke: #2ca02c"/>
     <use xlink:href="#m0398fa574b" x="438.839161" y="479.240331" style="fill: #2ca02c; stroke: #2ca02c"/>
     <use xlink:href="#m0398fa574b" x="464.853147" y="467.491036" style="fill: #2ca02c; stroke: #2ca02c"/>
     <use xlink:href="#m0398fa574b" x="568.909091" y="458.845162" style="fill: #2ca02c; stroke: #2ca02c"/>
     <use xlink:href="#m0398fa574b" x="620.937063" y="440.813985" style="fill: #2ca02c; stroke: #2ca02c"/>
     <use xlink:href="#m0398fa574b" x="803.034965" y="421.817792" style="fill: #2ca02c; stroke: #2ca02c"/>
     <use xlink:href="#m0398fa574b" x="829.048951" y="388.131587" style="fill: #2ca02c; stroke: #2ca02c"/>
     <use xlink:href="#m0398fa574b" x="855.062937" y="374.501503" style="fill: #2ca02c; stroke: #2ca02c"/>
     <use xlink:href="#m0398fa574b" x="881.076923" y="295.234941" style="fill: #2ca02c; stroke: #2ca02c"/>
     <use xlink:href="#m0398fa574b" x="907.090909" y="258.719342" style="fill: #2ca02c; stroke: #2ca02c"/>
     <use xlink:href="#m0398fa574b" x="933.104895" y="271.472837" style="fill: #2ca02c; stroke: #2ca02c"/>
     <use xlink:href="#m0398fa574b" x="959.118881" y="296.417014" style="fill: #2ca02c; stroke: #2ca02c"/>
     <use xlink:href="#m0398fa574b" x="1011.146853" y="271.295128" style="fill: #2ca02c; stroke: #2ca02c"/>
     <use xlink:href="#m0398fa574b" x="1037.160839" y="291.187044" style="fill: #2ca02c; stroke: #2ca02c"/>
     <use xlink:href="#m0398fa574b" x="1063.174825" y="281.40879" style="fill: #2ca02c; stroke: #2ca02c"/>
     <use xlink:href="#m0398fa574b" x="1089.188811" y="283.040428" style="fill: #2ca02c; stroke: #2ca02c"/>
     <use xlink:href="#m0398fa574b" x="1141.216783" y="329.369553" style="fill: #2ca02c; stroke: #2ca02c"/>
     <use xlink:href="#m0398fa574b" x="1167.230769" y="290.330035" style="fill: #2ca02c; stroke: #2ca02c"/>
     <use xlink:href="#m0398fa574b" x="1193.244755" y="316.471842" style="fill: #2ca02c; stroke: #2ca02c"/>
     <use xlink:href="#m0398fa574b" x="1219.258741" y="321.918171" style="fill: #2ca02c; stroke: #2ca02c"/>
     <use xlink:href="#m0398fa574b" x="1245.272727" y="328.155314" style="fill: #2ca02c; stroke: #2ca02c"/>
    </g>
   </g>
   <g id="line2d_34">
    <path d="M 230.727273 543.178743 
L 256.741259 526.370863 
L 282.755245 517.668607 
L 308.769231 505.263811 
L 386.811189 510.864869 
L 412.825175 494.375253 
L 438.839161 460.608917 
L 464.853147 438.559304 
L 568.909091 433.869229 
L 620.937063 410.770088 
L 803.034965 367.512628 
L 855.062937 327.094634 
L 881.076923 305.112665 
L 907.090909 257.40029 
L 933.104895 272.055368 
L 959.118881 272.925605 
L 1011.146853 252.891526 
L 1037.160839 266.621827 
L 1063.174825 258.896606 
L 1089.188811 246.956176 
L 1115.202797 263.587096 
L 1141.216783 269.264214 
L 1167.230769 244.612584 
L 1193.244755 265.135547 
L 1219.258741 277.438247 
L 1245.272727 278.080529 
" clip-path="url(#pdaec34768c)" style="fill: none; stroke: #d62728; stroke-width: 1.5; stroke-linecap: square"/>
    <defs>
     <path id="mef1f3cb4da" d="M 0 0.75 
C 0.198902 0.75 0.389685 0.670975 0.53033 0.53033 
C 0.670975 0.389685 0.75 0.198902 0.75 0 
C 0.75 -0.198902 0.670975 -0.389685 0.53033 -0.53033 
C 0.389685 -0.670975 0.198902 -0.75 0 -0.75 
C -0.198902 -0.75 -0.389685 -0.670975 -0.53033 -0.53033 
C -0.670975 -0.389685 -0.75 -0.198902 -0.75 0 
C -0.75 0.198902 -0.670975 0.389685 -0.53033 0.53033 
C -0.389685 0.670975 -0.198902 0.75 0 0.75 
z
" style="stroke: #d62728"/>
    </defs>
    <g clip-path="url(#pdaec34768c)">
     <use xlink:href="#mef1f3cb4da" x="230.727273" y="543.178743" style="fill: #d62728; stroke: #d62728"/>
     <use xlink:href="#mef1f3cb4da" x="256.741259" y="526.370863" style="fill: #d62728; stroke: #d62728"/>
     <use xlink:href="#mef1f3cb4da" x="282.755245" y="517.668607" style="fill: #d62728; stroke: #d62728"/>
     <use xlink:href="#mef1f3cb4da" x="308.769231" y="505.263811" style="fill: #d62728; stroke: #d62728"/>
     <use xlink:href="#mef1f3cb4da" x="386.811189" y="510.864869" style="fill: #d62728; stroke: #d62728"/>
     <use xlink:href="#mef1f3cb4da" x="412.825175" y="494.375253" style="fill: #d62728; stroke: #d62728"/>
     <use xlink:href="#mef1f3cb4da" x="438.839161" y="460.608917" style="fill: #d62728; stroke: #d62728"/>
     <use xlink:href="#mef1f3cb4da" x="464.853147" y="438.559304" style="fill: #d62728; stroke: #d62728"/>
     <use xlink:href="#mef1f3cb4da" x="568.909091" y="433.869229" style="fill: #d62728; stroke: #d62728"/>
     <use xlink:href="#mef1f3cb4da" x="620.937063" y="410.770088" style="fill: #d62728; stroke: #d62728"/>
     <use xlink:href="#mef1f3cb4da" x="803.034965" y="367.512628" style="fill: #d62728; stroke: #d62728"/>
     <use xlink:href="#mef1f3cb4da" x="855.062937" y="327.094634" style="fill: #d62728; stroke: #d62728"/>
     <use xlink:href="#mef1f3cb4da" x="881.076923" y="305.112665" style="fill: #d62728; stroke: #d62728"/>
     <use xlink:href="#mef1f3cb4da" x="907.090909" y="257.40029" style="fill: #d62728; stroke: #d62728"/>
     <use xlink:href="#mef1f3cb4da" x="933.104895" y="272.055368" style="fill: #d62728; stroke: #d62728"/>
     <use xlink:href="#mef1f3cb4da" x="959.118881" y="272.925605" style="fill: #d62728; stroke: #d62728"/>
     <use xlink:href="#mef1f3cb4da" x="1011.146853" y="252.891526" style="fill: #d62728; stroke: #d62728"/>
     <use xlink:href="#mef1f3cb4da" x="1037.160839" y="266.621827" style="fill: #d62728; stroke: #d62728"/>
     <use xlink:href="#mef1f3cb4da" x="1063.174825" y="258.896606" style="fill: #d62728; stroke: #d62728"/>
     <use xlink:href="#mef1f3cb4da" x="1089.188811" y="246.956176" style="fill: #d62728; stroke: #d62728"/>
     <use xlink:href="#mef1f3cb4da" x="1115.202797" y="263.587096" style="fill: #d62728; stroke: #d62728"/>
     <use xlink:href="#mef1f3cb4da" x="1141.216783" y="269.264214" style="fill: #d62728; stroke: #d62728"/>
     <use xlink:href="#mef1f3cb4da" x="1167.230769" y="244.612584" style="fill: #d62728; stroke: #d62728"/>
     <use xlink:href="#mef1f3cb4da" x="1193.244755" y="265.135547" style="fill: #d62728; stroke: #d62728"/>
     <use xlink:href="#mef1f3cb4da" x="1219.258741" y="277.438247" style="fill: #d62728; stroke: #d62728"/>
     <use xlink:href="#mef1f3cb4da" x="1245.272727" y="278.080529" style="fill: #d62728; stroke: #d62728"/>
    </g>
   </g>
   <g id="line2d_35">
    <path d="M 568.909091 378.812834 
L 620.937063 347.839085 
L 803.034965 297.689768 
L 829.048951 263.071943 
L 855.062937 265.870151 
L 881.076923 225.778779 
L 907.090909 191.119645 
L 933.104895 187.769597 
L 959.118881 193.114085 
L 1011.146853 171.302899 
L 1037.160839 179.427452 
L 1063.174825 178.450274 
L 1089.188811 164.125774 
L 1115.202797 242.437269 
L 1141.216783 242.865585 
L 1167.230769 183.859621 
L 1193.244755 205.172888 
L 1219.258741 207.485807 
L 1245.272727 203.846172 
" clip-path="url(#pdaec34768c)" style="fill: none; stroke: #9467bd; stroke-width: 1.5; stroke-linecap: square"/>
    <defs>
     <path id="mdb6589e47f" d="M 0 0.75 
C 0.198902 0.75 0.389685 0.670975 0.53033 0.53033 
C 0.670975 0.389685 0.75 0.198902 0.75 0 
C 0.75 -0.198902 0.670975 -0.389685 0.53033 -0.53033 
C 0.389685 -0.670975 0.198902 -0.75 0 -0.75 
C -0.198902 -0.75 -0.389685 -0.670975 -0.53033 -0.53033 
C -0.670975 -0.389685 -0.75 -0.198902 -0.75 0 
C -0.75 0.198902 -0.670975 0.389685 -0.53033 0.53033 
C -0.389685 0.670975 -0.198902 0.75 0 0.75 
z
" style="stroke: #9467bd"/>
    </defs>
    <g clip-path="url(#pdaec34768c)">
     <use xlink:href="#mdb6589e47f" x="568.909091" y="378.812834" style="fill: #9467bd; stroke: #9467bd"/>
     <use xlink:href="#mdb6589e47f" x="620.937063" y="347.839085" style="fill: #9467bd; stroke: #9467bd"/>
     <use xlink:href="#mdb6589e47f" x="803.034965" y="297.689768" style="fill: #9467bd; stroke: #9467bd"/>
     <use xlink:href="#mdb6589e47f" x="829.048951" y="263.071943" style="fill: #9467bd; stroke: #9467bd"/>
     <use xlink:href="#mdb6589e47f" x="855.062937" y="265.870151" style="fill: #9467bd; stroke: #9467bd"/>
     <use xlink:href="#mdb6589e47f" x="881.076923" y="225.778779" style="fill: #9467bd; stroke: #9467bd"/>
     <use xlink:href="#mdb6589e47f" x="907.090909" y="191.119645" style="fill: #9467bd; stroke: #9467bd"/>
     <use xlink:href="#mdb6589e47f" x="933.104895" y="187.769597" style="fill: #9467bd; stroke: #9467bd"/>
     <use xlink:href="#mdb6589e47f" x="959.118881" y="193.114085" style="fill: #9467bd; stroke: #9467bd"/>
     <use xlink:href="#mdb6589e47f" x="1011.146853" y="171.302899" style="fill: #9467bd; stroke: #9467bd"/>
     <use xlink:href="#mdb6589e47f" x="1037.160839" y="179.427452" style="fill: #9467bd; stroke: #9467bd"/>
     <use xlink:href="#mdb6589e47f" x="1063.174825" y="178.450274" style="fill: #9467bd; stroke: #9467bd"/>
     <use xlink:href="#mdb6589e47f" x="1089.188811" y="164.125774" style="fill: #9467bd; stroke: #9467bd"/>
     <use xlink:href="#mdb6589e47f" x="1115.202797" y="242.437269" style="fill: #9467bd; stroke: #9467bd"/>
     <use xlink:href="#mdb6589e47f" x="1141.216783" y="242.865585" style="fill: #9467bd; stroke: #9467bd"/>
     <use xlink:href="#mdb6589e47f" x="1167.230769" y="183.859621" style="fill: #9467bd; stroke: #9467bd"/>
     <use xlink:href="#mdb6589e47f" x="1193.244755" y="205.172888" style="fill: #9467bd; stroke: #9467bd"/>
     <use xlink:href="#mdb6589e47f" x="1219.258741" y="207.485807" style="fill: #9467bd; stroke: #9467bd"/>
     <use xlink:href="#mdb6589e47f" x="1245.272727" y="203.846172" style="fill: #9467bd; stroke: #9467bd"/>
    </g>
   </g>
   <g id="line2d_36">
    <path d="M 568.909091 440.521556 
L 620.937063 415.118242 
L 803.034965 375.272414 
L 829.048951 361.873352 
L 855.062937 324.272342 
L 881.076923 296.122826 
L 907.090909 262.523475 
L 933.104895 265.505052 
L 959.118881 271.208582 
L 1011.146853 241.670807 
L 1037.160839 258.365923 
L 1063.174825 259.205294 
L 1089.188811 264.447517 
L 1115.202797 306.695057 
L 1141.216783 305.753951 
L 1167.230769 255.623957 
L 1193.244755 287.002975 
L 1219.258741 291.176565 
L 1245.272727 282.954552 
" clip-path="url(#pdaec34768c)" style="fill: none; stroke: #8c564b; stroke-width: 1.5; stroke-linecap: square"/>
    <defs>
     <path id="m535f6ac4c3" d="M 0 0.75 
C 0.198902 0.75 0.389685 0.670975 0.53033 0.53033 
C 0.670975 0.389685 0.75 0.198902 0.75 0 
C 0.75 -0.198902 0.670975 -0.389685 0.53033 -0.53033 
C 0.389685 -0.670975 0.198902 -0.75 0 -0.75 
C -0.198902 -0.75 -0.389685 -0.670975 -0.53033 -0.53033 
C -0.670975 -0.389685 -0.75 -0.198902 -0.75 0 
C -0.75 0.198902 -0.670975 0.389685 -0.53033 0.53033 
C -0.389685 0.670975 -0.198902 0.75 0 0.75 
z
" style="stroke: #8c564b"/>
    </defs>
    <g clip-path="url(#pdaec34768c)">
     <use xlink:href="#m535f6ac4c3" x="568.909091" y="440.521556" style="fill: #8c564b; stroke: #8c564b"/>
     <use xlink:href="#m535f6ac4c3" x="620.937063" y="415.118242" style="fill: #8c564b; stroke: #8c564b"/>
     <use xlink:href="#m535f6ac4c3" x="803.034965" y="375.272414" style="fill: #8c564b; stroke: #8c564b"/>
     <use xlink:href="#m535f6ac4c3" x="829.048951" y="361.873352" style="fill: #8c564b; stroke: #8c564b"/>
     <use xlink:href="#m535f6ac4c3" x="855.062937" y="324.272342" style="fill: #8c564b; stroke: #8c564b"/>
     <use xlink:href="#m535f6ac4c3" x="881.076923" y="296.122826" style="fill: #8c564b; stroke: #8c564b"/>
     <use xlink:href="#m535f6ac4c3" x="907.090909" y="262.523475" style="fill: #8c564b; stroke: #8c564b"/>
     <use xlink:href="#m535f6ac4c3" x="933.104895" y="265.505052" style="fill: #8c564b; stroke: #8c564b"/>
     <use xlink:href="#m535f6ac4c3" x="959.118881" y="271.208582" style="fill: #8c564b; stroke: #8c564b"/>
     <use xlink:href="#m535f6ac4c3" x="1011.146853" y="241.670807" style="fill: #8c564b; stroke: #8c564b"/>
     <use xlink:href="#m535f6ac4c3" x="1037.160839" y="258.365923" style="fill: #8c564b; stroke: #8c564b"/>
     <use xlink:href="#m535f6ac4c3" x="1063.174825" y="259.205294" style="fill: #8c564b; stroke: #8c564b"/>
     <use xlink:href="#m535f6ac4c3" x="1089.188811" y="264.447517" style="fill: #8c564b; stroke: #8c564b"/>
     <use xlink:href="#m535f6ac4c3" x="1115.202797" y="306.695057" style="fill: #8c564b; stroke: #8c564b"/>
     <use xlink:href="#m535f6ac4c3" x="1141.216783" y="305.753951" style="fill: #8c564b; stroke: #8c564b"/>
     <use xlink:href="#m535f6ac4c3" x="1167.230769" y="255.623957" style="fill: #8c564b; stroke: #8c564b"/>
     <use xlink:href="#m535f6ac4c3" x="1193.244755" y="287.002975" style="fill: #8c564b; stroke: #8c564b"/>
     <use xlink:href="#m535f6ac4c3" x="1219.258741" y="291.176565" style="fill: #8c564b; stroke: #8c564b"/>
     <use xlink:href="#m535f6ac4c3" x="1245.272727" y="282.954552" style="fill: #8c564b; stroke: #8c564b"/>
    </g>
   </g>
   <g id="line2d_37">
    <path d="M 230.727273 493.506135 
L 256.741259 466.465805 
L 282.755245 475.736969 
L 308.769231 481.837866 
L 334.783217 438.667019 
L 386.811189 516.378815 
L 412.825175 472.445687 
L 438.839161 457.667433 
L 464.853147 413.15241 
L 490.867133 392.63482 
L 803.034965 422.805678 
L 829.048951 423.645667 
L 855.062937 427.183194 
L 881.076923 404.340143 
L 907.090909 387.994328 
L 933.104895 405.463676 
L 959.118881 427.645448 
L 985.132867 343.116099 
L 1011.146853 396.583325 
L 1037.160839 415.139311 
L 1063.174825 437.259778 
L 1089.188811 444.880861 
L 1115.202797 467.850221 
L 1141.216783 465.277016 
L 1167.230769 424.68177 
L 1193.244755 443.899329 
L 1219.258741 453.536531 
L 1245.272727 415.650445 
" clip-path="url(#pdaec34768c)" style="fill: none; stroke-dasharray: 1.5,2.475; stroke-dashoffset: 0; stroke: #e377c2; stroke-width: 1.5"/>
   </g>
   <g id="line2d_38">
    <path d="M 230.727273 394.284949 
L 256.741259 367.24462 
L 282.755245 376.515784 
L 308.769231 382.61668 
L 334.783217 339.445834 
L 386.811189 417.157629 
L 412.825175 373.224502 
L 438.839161 358.446248 
L 464.853147 313.931225 
L 490.867133 293.413635 
L 803.034965 323.584493 
L 829.048951 324.424482 
L 855.062937 327.962008 
L 881.076923 305.118957 
L 907.090909 288.773142 
L 933.104895 306.242491 
L 959.118881 328.424262 
L 985.132867 243.894914 
L 1011.146853 297.362139 
L 1037.160839 315.918125 
L 1063.174825 338.038593 
L 1089.188811 345.659676 
L 1115.202797 368.629035 
L 1141.216783 366.055831 
L 1167.230769 325.460585 
L 1193.244755 344.678144 
L 1219.258741 354.315346 
L 1245.272727 316.429259 
" clip-path="url(#pdaec34768c)" style="fill: none; stroke-dasharray: 1.5,2.475; stroke-dashoffset: 0; stroke: #7f7f7f; stroke-width: 1.5"/>
   </g>
   <g id="line2d_39">
    <path d="M 230.727273 592.72732 
L 256.741259 565.68699 
L 282.755245 574.958154 
L 308.769231 581.059051 
L 334.783217 537.888205 
L 386.811189 615.6 
L 412.825175 571.666872 
L 438.839161 556.888618 
L 464.853147 512.373595 
L 490.867133 491.856006 
L 803.034965 522.026863 
L 829.048951 522.866852 
L 855.062937 526.404379 
L 881.076923 503.561328 
L 907.090909 487.215513 
L 933.104895 504.684862 
L 959.118881 526.866633 
L 985.132867 442.337285 
L 1011.146853 495.80451 
L 1037.160839 514.360496 
L 1063.174825 536.480964 
L 1089.188811 544.102046 
L 1115.202797 567.071406 
L 1141.216783 564.498201 
L 1167.230769 523.902956 
L 1193.244755 543.120515 
L 1219.258741 552.757717 
L 1245.272727 514.87163 
" clip-path="url(#pdaec34768c)" style="fill: none; stroke-dasharray: 1.5,2.475; stroke-dashoffset: 0; stroke: #bcbd22; stroke-width: 1.5"/>
   </g>
   <g id="line2d_40">
    <path d="M 230.727273 261.990036 
L 256.741259 234.949706 
L 282.755245 244.22087 
L 308.769231 250.321767 
L 334.783217 207.15092 
L 386.811189 284.862715 
L 412.825175 240.929588 
L 438.839161 226.151334 
L 464.853147 181.636311 
L 490.867133 161.118721 
L 803.034965 191.289579 
L 829.048951 192.129568 
L 855.062937 195.667095 
L 881.076923 172.824043 
L 907.090909 156.478229 
L 933.104895 173.947577 
L 959.118881 196.129349 
L 985.132867 111.6 
L 1011.146853 165.067226 
L 1037.160839 183.623211 
L 1063.174825 205.743679 
L 1089.188811 213.364762 
L 1115.202797 236.334122 
L 1141.216783 233.760917 
L 1167.230769 193.165671 
L 1193.244755 212.38323 
L 1219.258741 222.020432 
L 1245.272727 184.134345 
" clip-path="url(#pdaec34768c)" style="fill: none; stroke-dasharray: 1.5,2.475; stroke-dashoffset: 0; stroke: #17becf; stroke-width: 1.5"/>
   </g>
   <g id="patch_3">
    <path d="M 180 640.8 
L 180 86.4 
" style="fill: none; stroke: #000000; stroke-width: 0.8; stroke-linejoin: miter; stroke-linecap: square"/>
   </g>
   <g id="patch_4">
    <path d="M 180 640.8 
L 1296 640.8 
" style="fill: none; stroke: #000000; stroke-width: 0.8; stroke-linejoin: miter; stroke-linecap: square"/>
   </g>
   <g id="text_18">
    <!-- Day Average Temperature(℃) vs Date with benchmarks  -->
    <g transform="translate(582 80.4) scale(0.12 -0.12)">
     <defs>
      <path id="SimHei-79" d="M 2900 2925 
L 1750 -100 
Q 1650 -450 1450 -625 
Q 1250 -800 950 -800 
Q 825 -800 712 -787 
Q 600 -775 500 -725 
L 500 -225 
Q 600 -275 700 -300 
Q 800 -325 875 -325 
Q 1075 -325 1150 -262 
Q 1225 -200 1300 25 
L 200 2925 
L 750 2925 
L 1550 725 
L 1575 725 
L 2350 2925 
L 2900 2925 
z
" transform="scale(0.015625)"/>
      <path id="SimHei-20" transform="scale(0.015625)"/>
      <path id="SimHei-41" d="M 3075 125 
L 2475 125 
L 2125 1450 
L 1025 1450 
L 675 125 
L 75 125 
L 1325 4450 
L 1825 4450 
L 3075 125 
z
M 2000 1925 
L 1600 3450 
L 1550 3450 
L 1150 1925 
L 2000 1925 
z
" transform="scale(0.015625)"/>
      <path id="SimHei-76" d="M 2875 2925 
L 1825 75 
L 1275 75 
L 225 2925 
L 750 2925 
L 1525 750 
L 1575 750 
L 2350 2925 
L 2875 2925 
z
" transform="scale(0.015625)"/>
      <path id="SimHei-72" d="M 2500 2425 
Q 2025 2500 1700 2287 
Q 1375 2075 1150 1550 
L 1150 125 
L 650 125 
L 650 2925 
L 1150 2925 
L 1150 2200 
Q 1375 2600 1712 2787 
Q 2050 2975 2500 2975 
L 2500 2425 
z
" transform="scale(0.015625)"/>
      <path id="SimHei-67" d="M 2975 2500 
Q 2800 2550 2637 2562 
Q 2475 2575 2300 2525 
Q 2375 2450 2425 2337 
Q 2475 2225 2475 2000 
Q 2475 1575 2187 1300 
Q 1900 1025 1475 1025 
Q 1375 1025 1212 1062 
Q 1050 1100 950 1150 
Q 875 1100 850 1050 
Q 825 1000 825 925 
Q 825 800 1000 737 
Q 1175 675 1625 675 
Q 2350 675 2612 475 
Q 2875 275 2875 -25 
Q 2875 -425 2487 -612 
Q 2100 -800 1575 -800 
Q 900 -800 575 -625 
Q 250 -450 250 -150 
Q 250 0 375 150 
Q 500 300 700 400 
Q 550 475 462 587 
Q 375 700 375 875 
Q 375 1025 487 1137 
Q 600 1250 750 1325 
Q 625 1450 550 1625 
Q 475 1800 475 2000 
Q 475 2425 762 2700 
Q 1050 2975 1475 2975 
Q 1700 2975 1862 2912 
Q 2025 2850 2150 2725 
Q 2350 2875 2550 2937 
Q 2750 3000 2975 2975 
L 2975 2500 
z
M 1975 2000 
Q 1975 2250 1850 2400 
Q 1725 2550 1475 2550 
Q 1225 2550 1100 2400 
Q 975 2250 975 2000 
Q 975 1750 1100 1600 
Q 1225 1450 1475 1450 
Q 1725 1450 1850 1600 
Q 1975 1750 1975 2000 
z
M 2400 -75 
Q 2400 25 2287 125 
Q 2175 225 1725 225 
Q 1625 225 1450 237 
Q 1275 250 1050 275 
Q 850 200 775 100 
Q 700 0 700 -100 
Q 700 -250 900 -350 
Q 1100 -450 1600 -450 
Q 2025 -450 2212 -337 
Q 2400 -225 2400 -75 
z
" transform="scale(0.015625)"/>
      <path id="SimHei-54" d="M 2850 3925 
L 1850 3925 
L 1850 125 
L 1275 125 
L 1275 3925 
L 275 3925 
L 275 4400 
L 2850 4400 
L 2850 3925 
z
" transform="scale(0.015625)"/>
      <path id="SimHei-6d" d="M 3050 125 
L 2550 125 
L 2550 2150 
Q 2550 2300 2500 2400 
Q 2450 2500 2300 2500 
Q 2125 2500 1975 2312 
Q 1825 2125 1825 1825 
L 1825 125 
L 1325 125 
L 1325 2150 
Q 1325 2300 1275 2400 
Q 1225 2500 1075 2500 
Q 900 2500 750 2312 
Q 600 2125 600 1825 
L 600 125 
L 100 125 
L 100 2925 
L 600 2925 
L 600 2550 
Q 725 2750 900 2862 
Q 1075 2975 1275 2975 
Q 1475 2975 1612 2862 
Q 1750 2750 1800 2550 
Q 1925 2750 2087 2862 
Q 2250 2975 2450 2975 
Q 2750 2975 2900 2812 
Q 3050 2650 3050 2350 
L 3050 125 
z
" transform="scale(0.015625)"/>
      <path id="SimHei-70" d="M 2825 1525 
Q 2825 800 2475 425 
Q 2125 50 1625 50 
Q 1350 50 1150 162 
Q 950 275 800 500 
L 800 -800 
L 300 -800 
L 300 2925 
L 800 2925 
L 800 2550 
Q 950 2775 1150 2875 
Q 1350 2975 1625 2975 
Q 2125 2975 2475 2612 
Q 2825 2250 2825 1525 
z
M 2275 1525 
Q 2275 2000 2087 2262 
Q 1900 2525 1525 2525 
Q 1225 2525 1012 2262 
Q 800 2000 800 1525 
Q 800 1050 1012 775 
Q 1225 500 1525 500 
Q 1900 500 2087 775 
Q 2275 1050 2275 1525 
z
" transform="scale(0.015625)"/>
      <path id="SimHei-28" d="M 2975 -200 
L 2700 -475 
Q 2075 125 1762 775 
Q 1450 1425 1450 2250 
Q 1450 3075 1762 3725 
Q 2075 4375 2700 5000 
L 2975 4725 
Q 2400 4175 2112 3587 
Q 1825 3000 1825 2250 
Q 1825 1500 2112 912 
Q 2400 325 2975 -200 
z
" transform="scale(0.015625)"/>
      <path id="SimHei-2103" d="M 1050 5050 
Q 1500 5025 1675 4525 
L 1675 4300 
Q 1550 3900 1175 3825 
L 975 3825 
Q 500 3875 450 4450 
Q 475 4925 1025 5050 
L 1050 5050 
z
M 1025 4850 
Q 675 4750 650 4450 
Q 675 4125 950 4025 
L 1100 4000 
Q 1500 4125 1475 4475 
L 1475 4500 
Q 1375 4775 1150 4850 
L 1025 4850 
z
M 4025 4425 
Q 5375 4350 5750 3300 
L 5775 3250 
L 5300 3050 
Q 5000 3850 4300 3900 
L 3925 3925 
Q 2500 3850 2450 2025 
Q 2525 775 3475 425 
Q 3675 325 4125 350 
Q 4975 450 5400 1450 
L 5400 1475 
L 5900 1375 
L 5900 1350 
Q 5325 -75 4075 -125 
L 3725 -125 
Q 2400 100 2100 1175 
Q 1975 1525 1975 2100 
Q 2050 3550 2975 4125 
Q 3375 4400 3925 4425 
L 4025 4425 
z
" transform="scale(0.015625)"/>
      <path id="SimHei-29" d="M 1675 2250 
Q 1675 1425 1362 775 
Q 1050 125 425 -475 
L 150 -200 
Q 725 325 1012 912 
Q 1300 1500 1300 2250 
Q 1300 3000 1012 3587 
Q 725 4175 150 4725 
L 425 5000 
Q 1050 4375 1362 3725 
Q 1675 3075 1675 2250 
z
" transform="scale(0.015625)"/>
      <path id="SimHei-73" d="M 2750 900 
Q 2750 500 2437 287 
Q 2125 75 1650 75 
Q 1050 75 725 312 
Q 400 550 400 1000 
L 900 1000 
Q 900 700 1112 600 
Q 1325 500 1625 500 
Q 1925 500 2075 612 
Q 2225 725 2225 900 
Q 2225 1025 2100 1150 
Q 1975 1275 1475 1350 
Q 900 1425 687 1637 
Q 475 1850 475 2200 
Q 475 2500 762 2737 
Q 1050 2975 1600 2975 
Q 2100 2975 2387 2750 
Q 2675 2525 2675 2150 
L 2175 2150 
Q 2175 2375 2012 2462 
Q 1850 2550 1600 2550 
Q 1275 2550 1137 2437 
Q 1000 2325 1000 2175 
Q 1000 2000 1125 1900 
Q 1250 1800 1650 1750 
Q 2300 1650 2525 1437 
Q 2750 1225 2750 900 
z
" transform="scale(0.015625)"/>
      <path id="SimHei-77" d="M 3075 2925 
L 2450 75 
L 1975 75 
L 1575 2250 
L 1525 2250 
L 1125 75 
L 650 75 
L 25 2925 
L 550 2925 
L 875 1050 
L 925 1050 
L 1275 2925 
L 1825 2925 
L 2175 1050 
L 2225 1050 
L 2550 2925 
L 3075 2925 
z
" transform="scale(0.015625)"/>
      <path id="SimHei-69" d="M 1800 3725 
L 1300 3725 
L 1300 4375 
L 1800 4375 
L 1800 3725 
z
M 1800 125 
L 1300 125 
L 1300 2925 
L 1800 2925 
L 1800 125 
z
" transform="scale(0.015625)"/>
      <path id="SimHei-68" d="M 2800 125 
L 2300 125 
L 2300 1925 
Q 2300 2225 2150 2400 
Q 2000 2575 1750 2575 
Q 1425 2575 1137 2237 
Q 850 1900 850 1400 
L 850 125 
L 350 125 
L 350 4400 
L 850 4400 
L 850 2400 
Q 1050 2675 1287 2825 
Q 1525 2975 1900 2975 
Q 2350 2975 2575 2725 
Q 2800 2475 2800 2100 
L 2800 125 
z
" transform="scale(0.015625)"/>
      <path id="SimHei-62" d="M 2825 1525 
Q 2825 800 2475 437 
Q 2125 75 1625 75 
Q 1350 75 1150 175 
Q 950 275 800 500 
L 800 125 
L 300 125 
L 300 4400 
L 800 4400 
L 800 2550 
Q 950 2775 1150 2887 
Q 1350 3000 1625 3000 
Q 2125 3000 2475 2625 
Q 2825 2250 2825 1525 
z
M 2275 1525 
Q 2275 2000 2087 2275 
Q 1900 2550 1525 2550 
Q 1225 2550 1012 2275 
Q 800 2000 800 1525 
Q 800 1050 1012 787 
Q 1225 525 1525 525 
Q 1900 525 2087 787 
Q 2275 1050 2275 1525 
z
" transform="scale(0.015625)"/>
      <path id="SimHei-6e" d="M 2800 125 
L 2300 125 
L 2300 1925 
Q 2300 2225 2150 2400 
Q 2000 2575 1750 2575 
Q 1425 2575 1137 2237 
Q 850 1900 850 1400 
L 850 125 
L 350 125 
L 350 2925 
L 850 2925 
L 850 2400 
Q 1050 2675 1287 2825 
Q 1525 2975 1900 2975 
Q 2350 2975 2575 2725 
Q 2800 2475 2800 2100 
L 2800 125 
z
" transform="scale(0.015625)"/>
      <path id="SimHei-63" d="M 2850 1250 
Q 2850 725 2487 400 
Q 2125 75 1575 75 
Q 1025 75 625 462 
Q 225 850 225 1525 
Q 225 2200 625 2587 
Q 1025 2975 1575 2975 
Q 2125 2975 2450 2687 
Q 2775 2400 2775 2000 
L 2225 2000 
Q 2200 2300 2012 2412 
Q 1825 2525 1575 2525 
Q 1275 2525 1025 2287 
Q 775 2050 775 1525 
Q 775 1000 1025 762 
Q 1275 525 1575 525 
Q 1900 525 2100 700 
Q 2300 875 2300 1250 
L 2850 1250 
z
" transform="scale(0.015625)"/>
      <path id="SimHei-6b" d="M 2925 125 
L 2350 125 
L 1450 1650 
L 875 1100 
L 875 125 
L 375 125 
L 375 4400 
L 875 4400 
L 875 1675 
L 2125 2925 
L 2750 2925 
L 1775 1975 
L 2925 125 
z
" transform="scale(0.015625)"/>
     </defs>
     <use xlink:href="#SimHei-44"/>
     <use xlink:href="#SimHei-61" x="50"/>
     <use xlink:href="#SimHei-79" x="100"/>
     <use xlink:href="#SimHei-20" x="150"/>
     <use xlink:href="#SimHei-41" x="200"/>
     <use xlink:href="#SimHei-76" x="250"/>
     <use xlink:href="#SimHei-65" x="300"/>
     <use xlink:href="#SimHei-72" x="350"/>
     <use xlink:href="#SimHei-61" x="400"/>
     <use xlink:href="#SimHei-67" x="450"/>
     <use xlink:href="#SimHei-65" x="500"/>
     <use xlink:href="#SimHei-20" x="550"/>
     <use xlink:href="#SimHei-54" x="600"/>
     <use xlink:href="#SimHei-65" x="650"/>
     <use xlink:href="#SimHei-6d" x="700"/>
     <use xlink:href="#SimHei-70" x="750"/>
     <use xlink:href="#SimHei-65" x="800"/>
     <use xlink:href="#SimHei-72" x="850"/>
     <use xlink:href="#SimHei-61" x="900"/>
     <use xlink:href="#SimHei-74" x="950"/>
     <use xlink:href="#SimHei-75" x="1000"/>
     <use xlink:href="#SimHei-72" x="1050"/>
     <use xlink:href="#SimHei-65" x="1100"/>
     <use xlink:href="#SimHei-28" x="1150"/>
     <use xlink:href="#SimHei-2103" x="1200"/>
     <use xlink:href="#SimHei-29" x="1300"/>
     <use xlink:href="#SimHei-20" x="1350"/>
     <use xlink:href="#SimHei-76" x="1400"/>
     <use xlink:href="#SimHei-73" x="1450"/>
     <use xlink:href="#SimHei-20" x="1500"/>
     <use xlink:href="#SimHei-44" x="1550"/>
     <use xlink:href="#SimHei-61" x="1600"/>
     <use xlink:href="#SimHei-74" x="1650"/>
     <use xlink:href="#SimHei-65" x="1700"/>
     <use xlink:href="#SimHei-20" x="1750"/>
     <use xlink:href="#SimHei-77" x="1800"/>
     <use xlink:href="#SimHei-69" x="1850"/>
     <use xlink:href="#SimHei-74" x="1900"/>
     <use xlink:href="#SimHei-68" x="1950"/>
     <use xlink:href="#SimHei-20" x="2000"/>
     <use xlink:href="#SimHei-62" x="2050"/>
     <use xlink:href="#SimHei-65" x="2100"/>
     <use xlink:href="#SimHei-6e" x="2150"/>
     <use xlink:href="#SimHei-63" x="2200"/>
     <use xlink:href="#SimHei-68" x="2250"/>
     <use xlink:href="#SimHei-6d" x="2300"/>
     <use xlink:href="#SimHei-61" x="2350"/>
     <use xlink:href="#SimHei-72" x="2400"/>
     <use xlink:href="#SimHei-6b" x="2450"/>
     <use xlink:href="#SimHei-73" x="2500"/>
     <use xlink:href="#SimHei-20" x="2550"/>
    </g>
   </g>
   <g id="legend_1">
    <g id="patch_5">
     <path d="M 187 254.0875 
L 399 254.0875 
Q 401 254.0875 401 252.0875 
L 401 93.4 
Q 401 91.4 399 91.4 
L 187 91.4 
Q 185 91.4 185 93.4 
L 185 252.0875 
Q 185 254.0875 187 254.0875 
z
" style="fill: #ffffff; opacity: 0.8; stroke: #cccccc; stroke-linejoin: miter"/>
    </g>
    <g id="line2d_41">
     <path d="M 189 101.36875 
L 199 101.36875 
L 209 101.36875 
" style="fill: none; stroke: #1f77b4; stroke-width: 1.5; stroke-linecap: square"/>
     <g>
      <use xlink:href="#m14bb0fa391" x="199" y="101.36875" style="fill: #1f77b4; stroke: #1f77b4"/>
     </g>
    </g>
    <g id="text_19">
     <!-- Temperature(℃): 1-floor -->
     <g transform="translate(217 104.86875) scale(0.12 -0.12)">
      <defs>
       <path id="SimHei-3a" d="M 1825 2425 
L 1250 2425 
L 1250 2975 
L 1825 2975 
L 1825 2425 
z
M 1825 125 
L 1250 125 
L 1250 675 
L 1825 675 
L 1825 125 
z
" transform="scale(0.015625)"/>
       <path id="SimHei-66" d="M 2850 3825 
Q 2725 3900 2550 3950 
Q 2375 4000 2100 4000 
Q 1825 4000 1725 3862 
Q 1625 3725 1625 3525 
L 1625 2925 
L 2650 2925 
L 2650 2525 
L 1625 2525 
L 1625 125 
L 1125 125 
L 1125 2525 
L 275 2525 
L 275 2925 
L 1125 2925 
L 1125 3500 
Q 1125 3950 1400 4200 
Q 1675 4450 2125 4450 
Q 2400 4450 2562 4412 
Q 2725 4375 2850 4325 
L 2850 3825 
z
" transform="scale(0.015625)"/>
       <path id="SimHei-6f" d="M 2925 1525 
Q 2925 875 2525 475 
Q 2125 75 1575 75 
Q 1025 75 625 475 
Q 225 875 225 1525 
Q 225 2175 625 2575 
Q 1025 2975 1575 2975 
Q 2125 2975 2525 2575 
Q 2925 2175 2925 1525 
z
M 2375 1525 
Q 2375 2025 2125 2275 
Q 1875 2525 1575 2525 
Q 1275 2525 1025 2275 
Q 775 2025 775 1525 
Q 775 1025 1025 775 
Q 1275 525 1575 525 
Q 1875 525 2125 775 
Q 2375 1025 2375 1525 
z
" transform="scale(0.015625)"/>
      </defs>
      <use xlink:href="#SimHei-54"/>
      <use xlink:href="#SimHei-65" x="50"/>
      <use xlink:href="#SimHei-6d" x="100"/>
      <use xlink:href="#SimHei-70" x="150"/>
      <use xlink:href="#SimHei-65" x="200"/>
      <use xlink:href="#SimHei-72" x="250"/>
      <use xlink:href="#SimHei-61" x="300"/>
      <use xlink:href="#SimHei-74" x="350"/>
      <use xlink:href="#SimHei-75" x="400"/>
      <use xlink:href="#SimHei-72" x="450"/>
      <use xlink:href="#SimHei-65" x="500"/>
      <use xlink:href="#SimHei-28" x="550"/>
      <use xlink:href="#SimHei-2103" x="600"/>
      <use xlink:href="#SimHei-29" x="700"/>
      <use xlink:href="#SimHei-3a" x="750"/>
      <use xlink:href="#SimHei-20" x="800"/>
      <use xlink:href="#SimHei-31" x="850"/>
      <use xlink:href="#SimHei-2d" x="900"/>
      <use xlink:href="#SimHei-66" x="950"/>
      <use xlink:href="#SimHei-6c" x="1000"/>
      <use xlink:href="#SimHei-6f" x="1050"/>
      <use xlink:href="#SimHei-6f" x="1100"/>
      <use xlink:href="#SimHei-72" x="1150"/>
     </g>
    </g>
    <g id="line2d_42">
     <path d="M 189 117.3375 
L 199 117.3375 
L 209 117.3375 
" style="fill: none; stroke: #ff7f0e; stroke-width: 1.5; stroke-linecap: square"/>
     <g>
      <use xlink:href="#m1fc1fd8b10" x="199" y="117.3375" style="fill: #ff7f0e; stroke: #ff7f0e"/>
     </g>
    </g>
    <g id="text_20">
     <!-- Temperature(℃): 2-floor -->
     <g transform="translate(217 120.8375) scale(0.12 -0.12)">
      <use xlink:href="#SimHei-54"/>
      <use xlink:href="#SimHei-65" x="50"/>
      <use xlink:href="#SimHei-6d" x="100"/>
      <use xlink:href="#SimHei-70" x="150"/>
      <use xlink:href="#SimHei-65" x="200"/>
      <use xlink:href="#SimHei-72" x="250"/>
      <use xlink:href="#SimHei-61" x="300"/>
      <use xlink:href="#SimHei-74" x="350"/>
      <use xlink:href="#SimHei-75" x="400"/>
      <use xlink:href="#SimHei-72" x="450"/>
      <use xlink:href="#SimHei-65" x="500"/>
      <use xlink:href="#SimHei-28" x="550"/>
      <use xlink:href="#SimHei-2103" x="600"/>
      <use xlink:href="#SimHei-29" x="700"/>
      <use xlink:href="#SimHei-3a" x="750"/>
      <use xlink:href="#SimHei-20" x="800"/>
      <use xlink:href="#SimHei-32" x="850"/>
      <use xlink:href="#SimHei-2d" x="900"/>
      <use xlink:href="#SimHei-66" x="950"/>
      <use xlink:href="#SimHei-6c" x="1000"/>
      <use xlink:href="#SimHei-6f" x="1050"/>
      <use xlink:href="#SimHei-6f" x="1100"/>
      <use xlink:href="#SimHei-72" x="1150"/>
     </g>
    </g>
    <g id="line2d_43">
     <path d="M 189 133.30625 
L 199 133.30625 
L 209 133.30625 
" style="fill: none; stroke: #2ca02c; stroke-width: 1.5; stroke-linecap: square"/>
     <g>
      <use xlink:href="#m0398fa574b" x="199" y="133.30625" style="fill: #2ca02c; stroke: #2ca02c"/>
     </g>
    </g>
    <g id="text_21">
     <!-- Temperature(℃): 3-floor -->
     <g transform="translate(217 136.80625) scale(0.12 -0.12)">
      <use xlink:href="#SimHei-54"/>
      <use xlink:href="#SimHei-65" x="50"/>
      <use xlink:href="#SimHei-6d" x="100"/>
      <use xlink:href="#SimHei-70" x="150"/>
      <use xlink:href="#SimHei-65" x="200"/>
      <use xlink:href="#SimHei-72" x="250"/>
      <use xlink:href="#SimHei-61" x="300"/>
      <use xlink:href="#SimHei-74" x="350"/>
      <use xlink:href="#SimHei-75" x="400"/>
      <use xlink:href="#SimHei-72" x="450"/>
      <use xlink:href="#SimHei-65" x="500"/>
      <use xlink:href="#SimHei-28" x="550"/>
      <use xlink:href="#SimHei-2103" x="600"/>
      <use xlink:href="#SimHei-29" x="700"/>
      <use xlink:href="#SimHei-3a" x="750"/>
      <use xlink:href="#SimHei-20" x="800"/>
      <use xlink:href="#SimHei-33" x="850"/>
      <use xlink:href="#SimHei-2d" x="900"/>
      <use xlink:href="#SimHei-66" x="950"/>
      <use xlink:href="#SimHei-6c" x="1000"/>
      <use xlink:href="#SimHei-6f" x="1050"/>
      <use xlink:href="#SimHei-6f" x="1100"/>
      <use xlink:href="#SimHei-72" x="1150"/>
     </g>
    </g>
    <g id="line2d_44">
     <path d="M 189 149.275 
L 199 149.275 
L 209 149.275 
" style="fill: none; stroke: #d62728; stroke-width: 1.5; stroke-linecap: square"/>
     <g>
      <use xlink:href="#mef1f3cb4da" x="199" y="149.275" style="fill: #d62728; stroke: #d62728"/>
     </g>
    </g>
    <g id="text_22">
     <!-- Temperature(℃): 4-floor -->
     <g transform="translate(217 152.775) scale(0.12 -0.12)">
      <use xlink:href="#SimHei-54"/>
      <use xlink:href="#SimHei-65" x="50"/>
      <use xlink:href="#SimHei-6d" x="100"/>
      <use xlink:href="#SimHei-70" x="150"/>
      <use xlink:href="#SimHei-65" x="200"/>
      <use xlink:href="#SimHei-72" x="250"/>
      <use xlink:href="#SimHei-61" x="300"/>
      <use xlink:href="#SimHei-74" x="350"/>
      <use xlink:href="#SimHei-75" x="400"/>
      <use xlink:href="#SimHei-72" x="450"/>
      <use xlink:href="#SimHei-65" x="500"/>
      <use xlink:href="#SimHei-28" x="550"/>
      <use xlink:href="#SimHei-2103" x="600"/>
      <use xlink:href="#SimHei-29" x="700"/>
      <use xlink:href="#SimHei-3a" x="750"/>
      <use xlink:href="#SimHei-20" x="800"/>
      <use xlink:href="#SimHei-34" x="850"/>
      <use xlink:href="#SimHei-2d" x="900"/>
      <use xlink:href="#SimHei-66" x="950"/>
      <use xlink:href="#SimHei-6c" x="1000"/>
      <use xlink:href="#SimHei-6f" x="1050"/>
      <use xlink:href="#SimHei-6f" x="1100"/>
      <use xlink:href="#SimHei-72" x="1150"/>
     </g>
    </g>
    <g id="line2d_45">
     <path d="M 189 165.24375 
L 199 165.24375 
L 209 165.24375 
" style="fill: none; stroke: #9467bd; stroke-width: 1.5; stroke-linecap: square"/>
     <g>
      <use xlink:href="#mdb6589e47f" x="199" y="165.24375" style="fill: #9467bd; stroke: #9467bd"/>
     </g>
    </g>
    <g id="text_23">
     <!-- Temperature(℃): 5-floor -->
     <g transform="translate(217 168.74375) scale(0.12 -0.12)">
      <use xlink:href="#SimHei-54"/>
      <use xlink:href="#SimHei-65" x="50"/>
      <use xlink:href="#SimHei-6d" x="100"/>
      <use xlink:href="#SimHei-70" x="150"/>
      <use xlink:href="#SimHei-65" x="200"/>
      <use xlink:href="#SimHei-72" x="250"/>
      <use xlink:href="#SimHei-61" x="300"/>
      <use xlink:href="#SimHei-74" x="350"/>
      <use xlink:href="#SimHei-75" x="400"/>
      <use xlink:href="#SimHei-72" x="450"/>
      <use xlink:href="#SimHei-65" x="500"/>
      <use xlink:href="#SimHei-28" x="550"/>
      <use xlink:href="#SimHei-2103" x="600"/>
      <use xlink:href="#SimHei-29" x="700"/>
      <use xlink:href="#SimHei-3a" x="750"/>
      <use xlink:href="#SimHei-20" x="800"/>
      <use xlink:href="#SimHei-35" x="850"/>
      <use xlink:href="#SimHei-2d" x="900"/>
      <use xlink:href="#SimHei-66" x="950"/>
      <use xlink:href="#SimHei-6c" x="1000"/>
      <use xlink:href="#SimHei-6f" x="1050"/>
      <use xlink:href="#SimHei-6f" x="1100"/>
      <use xlink:href="#SimHei-72" x="1150"/>
     </g>
    </g>
    <g id="line2d_46">
     <path d="M 189 181.2125 
L 199 181.2125 
L 209 181.2125 
" style="fill: none; stroke: #8c564b; stroke-width: 1.5; stroke-linecap: square"/>
     <g>
      <use xlink:href="#m535f6ac4c3" x="199" y="181.2125" style="fill: #8c564b; stroke: #8c564b"/>
     </g>
    </g>
    <g id="text_24">
     <!-- Temperature(℃): Shaft -->
     <g transform="translate(217 184.7125) scale(0.12 -0.12)">
      <defs>
       <path id="SimHei-53" d="M 2900 1325 
Q 2900 750 2537 412 
Q 2175 75 1550 75 
Q 925 75 575 425 
Q 225 775 225 1300 
L 225 1475 
L 800 1475 
L 800 1325 
Q 800 950 1025 750 
Q 1250 550 1550 550 
Q 1950 550 2137 762 
Q 2325 975 2325 1275 
Q 2325 1525 2100 1737 
Q 1875 1950 1450 2125 
Q 850 2350 587 2625 
Q 325 2900 325 3275 
Q 325 3800 687 4125 
Q 1050 4450 1550 4450 
Q 2200 4450 2487 4062 
Q 2775 3675 2775 3225 
L 2200 3225 
Q 2225 3500 2050 3725 
Q 1875 3950 1550 3950 
Q 1250 3950 1075 3787 
Q 900 3625 900 3350 
Q 900 3125 1037 2962 
Q 1175 2800 1750 2575 
Q 2300 2350 2600 2037 
Q 2900 1725 2900 1325 
z
" transform="scale(0.015625)"/>
      </defs>
      <use xlink:href="#SimHei-54"/>
      <use xlink:href="#SimHei-65" x="50"/>
      <use xlink:href="#SimHei-6d" x="100"/>
      <use xlink:href="#SimHei-70" x="150"/>
      <use xlink:href="#SimHei-65" x="200"/>
      <use xlink:href="#SimHei-72" x="250"/>
      <use xlink:href="#SimHei-61" x="300"/>
      <use xlink:href="#SimHei-74" x="350"/>
      <use xlink:href="#SimHei-75" x="400"/>
      <use xlink:href="#SimHei-72" x="450"/>
      <use xlink:href="#SimHei-65" x="500"/>
      <use xlink:href="#SimHei-28" x="550"/>
      <use xlink:href="#SimHei-2103" x="600"/>
      <use xlink:href="#SimHei-29" x="700"/>
      <use xlink:href="#SimHei-3a" x="750"/>
      <use xlink:href="#SimHei-20" x="800"/>
      <use xlink:href="#SimHei-53" x="850"/>
      <use xlink:href="#SimHei-68" x="900"/>
      <use xlink:href="#SimHei-61" x="950"/>
      <use xlink:href="#SimHei-66" x="1000"/>
      <use xlink:href="#SimHei-74" x="1050"/>
     </g>
    </g>
    <g id="line2d_47">
     <path d="M 189 197.18125 
L 199 197.18125 
L 209 197.18125 
" style="fill: none; stroke-dasharray: 1.5,2.475; stroke-dashoffset: 0; stroke: #e377c2; stroke-width: 1.5"/>
    </g>
    <g id="text_25">
     <!-- Comfortable Temperature(℃) -->
     <g transform="translate(217 200.68125) scale(0.12 -0.12)">
      <defs>
       <path id="SimHei-43" d="M 2975 1825 
Q 2950 875 2575 475 
Q 2200 75 1675 75 
Q 1075 75 650 562 
Q 225 1050 225 2125 
Q 225 3300 637 3875 
Q 1050 4450 1700 4450 
Q 2250 4450 2612 4037 
Q 2975 3625 2950 2875 
L 2400 2875 
Q 2400 3425 2225 3700 
Q 2050 3975 1700 3975 
Q 1300 3975 1062 3562 
Q 825 3150 825 2175 
Q 825 1275 1062 912 
Q 1300 550 1675 550 
Q 1950 550 2175 812 
Q 2400 1075 2400 1825 
L 2975 1825 
z
" transform="scale(0.015625)"/>
      </defs>
      <use xlink:href="#SimHei-43"/>
      <use xlink:href="#SimHei-6f" x="50"/>
      <use xlink:href="#SimHei-6d" x="100"/>
      <use xlink:href="#SimHei-66" x="150"/>
      <use xlink:href="#SimHei-6f" x="200"/>
      <use xlink:href="#SimHei-72" x="250"/>
      <use xlink:href="#SimHei-74" x="300"/>
      <use xlink:href="#SimHei-61" x="350"/>
      <use xlink:href="#SimHei-62" x="400"/>
      <use xlink:href="#SimHei-6c" x="450"/>
      <use xlink:href="#SimHei-65" x="500"/>
      <use xlink:href="#SimHei-20" x="550"/>
      <use xlink:href="#SimHei-54" x="600"/>
      <use xlink:href="#SimHei-65" x="650"/>
      <use xlink:href="#SimHei-6d" x="700"/>
      <use xlink:href="#SimHei-70" x="750"/>
      <use xlink:href="#SimHei-65" x="800"/>
      <use xlink:href="#SimHei-72" x="850"/>
      <use xlink:href="#SimHei-61" x="900"/>
      <use xlink:href="#SimHei-74" x="950"/>
      <use xlink:href="#SimHei-75" x="1000"/>
      <use xlink:href="#SimHei-72" x="1050"/>
      <use xlink:href="#SimHei-65" x="1100"/>
      <use xlink:href="#SimHei-28" x="1150"/>
      <use xlink:href="#SimHei-2103" x="1200"/>
      <use xlink:href="#SimHei-29" x="1300"/>
     </g>
    </g>
    <g id="line2d_48">
     <path d="M 189 213.15 
L 199 213.15 
L 209 213.15 
" style="fill: none; stroke-dasharray: 1.5,2.475; stroke-dashoffset: 0; stroke: #7f7f7f; stroke-width: 1.5"/>
    </g>
    <g id="text_26">
     <!-- Max Acceptable Temperature(℃) -->
     <g transform="translate(217 216.65) scale(0.12 -0.12)">
      <defs>
       <path id="SimHei-4d" d="M 2925 125 
L 2425 125 
L 2425 3175 
L 2375 3175 
L 1775 125 
L 1375 125 
L 775 3175 
L 725 3175 
L 725 125 
L 225 125 
L 225 4400 
L 1000 4400 
L 1550 1575 
L 1600 1575 
L 2150 4400 
L 2925 4400 
L 2925 125 
z
" transform="scale(0.015625)"/>
       <path id="SimHei-78" d="M 2875 125 
L 2275 125 
L 1550 1200 
L 825 125 
L 225 125 
L 1250 1550 
L 300 2925 
L 900 2925 
L 1550 1875 
L 2200 2925 
L 2800 2925 
L 1850 1550 
L 2875 125 
z
" transform="scale(0.015625)"/>
      </defs>
      <use xlink:href="#SimHei-4d"/>
      <use xlink:href="#SimHei-61" x="50"/>
      <use xlink:href="#SimHei-78" x="100"/>
      <use xlink:href="#SimHei-20" x="150"/>
      <use xlink:href="#SimHei-41" x="200"/>
      <use xlink:href="#SimHei-63" x="250"/>
      <use xlink:href="#SimHei-63" x="300"/>
      <use xlink:href="#SimHei-65" x="350"/>
      <use xlink:href="#SimHei-70" x="400"/>
      <use xlink:href="#SimHei-74" x="450"/>
      <use xlink:href="#SimHei-61" x="500"/>
      <use xlink:href="#SimHei-62" x="550"/>
      <use xlink:href="#SimHei-6c" x="600"/>
      <use xlink:href="#SimHei-65" x="650"/>
      <use xlink:href="#SimHei-20" x="700"/>
      <use xlink:href="#SimHei-54" x="750"/>
      <use xlink:href="#SimHei-65" x="800"/>
      <use xlink:href="#SimHei-6d" x="850"/>
      <use xlink:href="#SimHei-70" x="900"/>
      <use xlink:href="#SimHei-65" x="950"/>
      <use xlink:href="#SimHei-72" x="1000"/>
      <use xlink:href="#SimHei-61" x="1050"/>
      <use xlink:href="#SimHei-74" x="1100"/>
      <use xlink:href="#SimHei-75" x="1150"/>
      <use xlink:href="#SimHei-72" x="1200"/>
      <use xlink:href="#SimHei-65" x="1250"/>
      <use xlink:href="#SimHei-28" x="1300"/>
      <use xlink:href="#SimHei-2103" x="1350"/>
      <use xlink:href="#SimHei-29" x="1450"/>
     </g>
    </g>
    <g id="line2d_49">
     <path d="M 189 229.11875 
L 199 229.11875 
L 209 229.11875 
" style="fill: none; stroke-dasharray: 1.5,2.475; stroke-dashoffset: 0; stroke: #bcbd22; stroke-width: 1.5"/>
    </g>
    <g id="text_27">
     <!-- Min Acceptable Temperature(℃) -->
     <g transform="translate(217 232.61875) scale(0.12 -0.12)">
      <use xlink:href="#SimHei-4d"/>
      <use xlink:href="#SimHei-69" x="50"/>
      <use xlink:href="#SimHei-6e" x="100"/>
      <use xlink:href="#SimHei-20" x="150"/>
      <use xlink:href="#SimHei-41" x="200"/>
      <use xlink:href="#SimHei-63" x="250"/>
      <use xlink:href="#SimHei-63" x="300"/>
      <use xlink:href="#SimHei-65" x="350"/>
      <use xlink:href="#SimHei-70" x="400"/>
      <use xlink:href="#SimHei-74" x="450"/>
      <use xlink:href="#SimHei-61" x="500"/>
      <use xlink:href="#SimHei-62" x="550"/>
      <use xlink:href="#SimHei-6c" x="600"/>
      <use xlink:href="#SimHei-65" x="650"/>
      <use xlink:href="#SimHei-20" x="700"/>
      <use xlink:href="#SimHei-54" x="750"/>
      <use xlink:href="#SimHei-65" x="800"/>
      <use xlink:href="#SimHei-6d" x="850"/>
      <use xlink:href="#SimHei-70" x="900"/>
      <use xlink:href="#SimHei-65" x="950"/>
      <use xlink:href="#SimHei-72" x="1000"/>
      <use xlink:href="#SimHei-61" x="1050"/>
      <use xlink:href="#SimHei-74" x="1100"/>
      <use xlink:href="#SimHei-75" x="1150"/>
      <use xlink:href="#SimHei-72" x="1200"/>
      <use xlink:href="#SimHei-65" x="1250"/>
      <use xlink:href="#SimHei-28" x="1300"/>
      <use xlink:href="#SimHei-2103" x="1350"/>
      <use xlink:href="#SimHei-29" x="1450"/>
     </g>
    </g>
    <g id="line2d_50">
     <path d="M 189 245.0875 
L 199 245.0875 
L 209 245.0875 
" style="fill: none; stroke-dasharray: 1.5,2.475; stroke-dashoffset: 0; stroke: #17becf; stroke-width: 1.5"/>
    </g>
    <g id="text_28">
     <!-- Upper Limit Temperature(℃) -->
     <g transform="translate(217 248.5875) scale(0.12 -0.12)">
      <defs>
       <path id="SimHei-55" d="M 2875 1375 
Q 2875 775 2562 425 
Q 2250 75 1575 75 
Q 900 75 587 425 
Q 275 775 275 1375 
L 275 4400 
L 850 4400 
L 850 1375 
Q 850 950 1050 750 
Q 1250 550 1575 550 
Q 1900 550 2100 750 
Q 2300 950 2300 1375 
L 2300 4400 
L 2875 4400 
L 2875 1375 
z
" transform="scale(0.015625)"/>
       <path id="SimHei-4c" d="M 2900 125 
L 300 125 
L 300 4400 
L 875 4400 
L 875 600 
L 2900 600 
L 2900 125 
z
" transform="scale(0.015625)"/>
      </defs>
      <use xlink:href="#SimHei-55"/>
      <use xlink:href="#SimHei-70" x="50"/>
      <use xlink:href="#SimHei-70" x="100"/>
      <use xlink:href="#SimHei-65" x="150"/>
      <use xlink:href="#SimHei-72" x="200"/>
      <use xlink:href="#SimHei-20" x="250"/>
      <use xlink:href="#SimHei-4c" x="300"/>
      <use xlink:href="#SimHei-69" x="350"/>
      <use xlink:href="#SimHei-6d" x="400"/>
      <use xlink:href="#SimHei-69" x="450"/>
      <use xlink:href="#SimHei-74" x="500"/>
      <use xlink:href="#SimHei-20" x="550"/>
      <use xlink:href="#SimHei-54" x="600"/>
      <use xlink:href="#SimHei-65" x="650"/>
      <use xlink:href="#SimHei-6d" x="700"/>
      <use xlink:href="#SimHei-70" x="750"/>
      <use xlink:href="#SimHei-65" x="800"/>
      <use xlink:href="#SimHei-72" x="850"/>
      <use xlink:href="#SimHei-61" x="900"/>
      <use xlink:href="#SimHei-74" x="950"/>
      <use xlink:href="#SimHei-75" x="1000"/>
      <use xlink:href="#SimHei-72" x="1050"/>
      <use xlink:href="#SimHei-65" x="1100"/>
      <use xlink:href="#SimHei-28" x="1150"/>
      <use xlink:href="#SimHei-2103" x="1200"/>
      <use xlink:href="#SimHei-29" x="1300"/>
     </g>
    </g>
   </g>
  </g>
 </g>
 <defs>
  <clipPath id="pdaec34768c">
   <rect x="180" y="86.4" width="1116" height="554.4"/>
  </clipPath>
 </defs>
</svg>
