<?xml version="1.0" encoding="utf-8" standalone="no"?>
<!DOCTYPE svg PUBLIC "-//W3C//DTD SVG 1.1//EN"
  "http://www.w3.org/Graphics/SVG/1.1/DTD/svg11.dtd">
<svg xmlns:xlink="http://www.w3.org/1999/xlink" width="1440pt" height="720pt" viewBox="0 0 1440 720" xmlns="http://www.w3.org/2000/svg" version="1.1">
 <metadata>
  <rdf:RDF xmlns:dc="http://purl.org/dc/elements/1.1/" xmlns:cc="http://creativecommons.org/ns#" xmlns:rdf="http://www.w3.org/1999/02/22-rdf-syntax-ns#">
   <cc:Work>
    <dc:type rdf:resource="http://purl.org/dc/dcmitype/StillImage"/>
    <dc:date>2023-01-28T12:49:41.341613</dc:date>
    <dc:format>image/svg+xml</dc:format>
    <dc:creator>
     <cc:Agent>
      <dc:title>Matplotlib v3.6.2, https://matplotlib.org/</dc:title>
     </cc:Agent>
    </dc:creator>
   </cc:Work>
  </rdf:RDF>
 </metadata>
 <defs>
  <style type="text/css">*{stroke-linejoin: round; stroke-linecap: butt}</style>
 </defs>
 <g id="figure_1">
  <g id="patch_1">
   <path d="M 0 720 
L 1440 720 
L 1440 0 
L 0 0 
z
" style="fill: #ffffff"/>
  </g>
  <g id="axes_1">
   <g id="patch_2">
    <path d="M 180 640.8 
L 1296 640.8 
L 1296 86.4 
L 180 86.4 
z
" style="fill: #ffffff"/>
   </g>
   <g id="matplotlib.axis_1">
    <g id="xtick_1">
     <g id="line2d_1">
      <path d="M 256.741259 640.8 
L 256.741259 86.4 
" clip-path="url(#pb84103b8fa)" style="fill: none; stroke-dasharray: 2.96,1.28; stroke-dashoffset: 0; stroke: #b0b0b0; stroke-width: 0.8"/>
     </g>
     <g id="line2d_2">
      <defs>
       <path id="mc2eb6825a5" d="M 0 0 
L 0 3.5 
" style="stroke: #000000; stroke-width: 0.8"/>
      </defs>
      <g>
       <use xlink:href="#mc2eb6825a5" x="256.741259" y="640.8" style="stroke: #000000; stroke-width: 0.8"/>
      </g>
     </g>
     <g id="text_1">
      <!-- 2022-06-15 -->
      <g transform="translate(231.741259 654.675) scale(0.1 -0.1)">
       <defs>
        <path id="SimHei-32" d="M 300 250 
Q 325 625 650 925 
Q 975 1225 1475 1862 
Q 1975 2500 2125 2850 
Q 2275 3200 2237 3450 
Q 2200 3700 2000 3862 
Q 1800 4025 1537 4000 
Q 1275 3975 1037 3800 
Q 800 3625 675 3275 
L 200 3350 
Q 400 3925 712 4187 
Q 1025 4450 1450 4475 
Q 1700 4500 1900 4462 
Q 2100 4425 2312 4287 
Q 2525 4150 2662 3875 
Q 2800 3600 2762 3212 
Q 2725 2825 2375 2287 
Q 2025 1750 1025 600 
L 2825 600 
L 2825 150 
L 300 150 
L 300 250 
z
" transform="scale(0.015625)"/>
        <path id="SimHei-30" d="M 225 2537 
Q 250 3200 412 3587 
Q 575 3975 875 4225 
Q 1175 4475 1612 4475 
Q 2050 4475 2375 4112 
Q 2700 3750 2800 3200 
Q 2900 2650 2862 1937 
Q 2825 1225 2612 775 
Q 2400 325 1975 150 
Q 1550 -25 1125 187 
Q 700 400 525 750 
Q 350 1100 275 1487 
Q 200 1875 225 2537 
z
M 750 2687 
Q 675 2000 800 1462 
Q 925 925 1212 700 
Q 1500 475 1800 612 
Q 2100 750 2237 1162 
Q 2375 1575 2375 2062 
Q 2375 2550 2337 2950 
Q 2300 3350 2112 3675 
Q 1925 4000 1612 4012 
Q 1300 4025 1062 3700 
Q 825 3375 750 2687 
z
" transform="scale(0.015625)"/>
        <path id="SimHei-2d" d="M 2975 2125 
L 125 2125 
L 125 2525 
L 2975 2525 
L 2975 2125 
z
" transform="scale(0.015625)"/>
        <path id="SimHei-36" d="M 250 1612 
Q 275 1975 387 2225 
Q 500 2475 725 2850 
L 1750 4450 
L 2325 4450 
L 1275 2800 
Q 1950 2975 2350 2750 
Q 2750 2525 2887 2237 
Q 3025 1950 3037 1612 
Q 3050 1275 2937 950 
Q 2825 625 2537 362 
Q 2250 100 1737 75 
Q 1225 50 862 262 
Q 500 475 362 862 
Q 225 1250 250 1612 
z
M 1025 787 
Q 1250 550 1625 525 
Q 2000 500 2250 775 
Q 2500 1050 2500 1575 
Q 2500 2100 2187 2300 
Q 1875 2500 1487 2450 
Q 1100 2400 925 2075 
Q 750 1750 775 1387 
Q 800 1025 1025 787 
z
" transform="scale(0.015625)"/>
        <path id="SimHei-31" d="M 1400 3600 
Q 1075 3275 575 2975 
L 575 3450 
Q 1200 3875 1600 4450 
L 1900 4450 
L 1900 150 
L 1400 150 
L 1400 3600 
z
" transform="scale(0.015625)"/>
        <path id="SimHei-35" d="M 550 1325 
Q 725 650 1150 575 
Q 1575 500 1837 662 
Q 2100 825 2212 1087 
Q 2325 1350 2312 1675 
Q 2300 2000 2137 2225 
Q 1975 2450 1725 2525 
Q 1475 2600 1162 2525 
Q 850 2450 650 2175 
L 225 2225 
Q 275 2375 700 4375 
L 2675 4375 
L 2675 3925 
L 1075 3925 
Q 950 3250 825 2850 
Q 1200 3025 1525 3012 
Q 1850 3000 2150 2862 
Q 2450 2725 2587 2487 
Q 2725 2250 2787 2012 
Q 2850 1775 2837 1500 
Q 2825 1225 2725 937 
Q 2625 650 2425 462 
Q 2225 275 1937 162 
Q 1650 50 1275 75 
Q 900 100 562 350 
Q 225 600 100 1200 
L 550 1325 
z
" transform="scale(0.015625)"/>
       </defs>
       <use xlink:href="#SimHei-32"/>
       <use xlink:href="#SimHei-30" x="50"/>
       <use xlink:href="#SimHei-32" x="100"/>
       <use xlink:href="#SimHei-32" x="150"/>
       <use xlink:href="#SimHei-2d" x="200"/>
       <use xlink:href="#SimHei-30" x="250"/>
       <use xlink:href="#SimHei-36" x="300"/>
       <use xlink:href="#SimHei-2d" x="350"/>
       <use xlink:href="#SimHei-31" x="400"/>
       <use xlink:href="#SimHei-35" x="450"/>
      </g>
     </g>
    </g>
    <g id="xtick_2">
     <g id="line2d_3">
      <path d="M 438.839161 640.8 
L 438.839161 86.4 
" clip-path="url(#pb84103b8fa)" style="fill: none; stroke-dasharray: 2.96,1.28; stroke-dashoffset: 0; stroke: #b0b0b0; stroke-width: 0.8"/>
     </g>
     <g id="line2d_4">
      <g>
       <use xlink:href="#mc2eb6825a5" x="438.839161" y="640.8" style="stroke: #000000; stroke-width: 0.8"/>
      </g>
     </g>
     <g id="text_2">
      <!-- 2022-06-22 -->
      <g transform="translate(413.839161 654.675) scale(0.1 -0.1)">
       <use xlink:href="#SimHei-32"/>
       <use xlink:href="#SimHei-30" x="50"/>
       <use xlink:href="#SimHei-32" x="100"/>
       <use xlink:href="#SimHei-32" x="150"/>
       <use xlink:href="#SimHei-2d" x="200"/>
       <use xlink:href="#SimHei-30" x="250"/>
       <use xlink:href="#SimHei-36" x="300"/>
       <use xlink:href="#SimHei-2d" x="350"/>
       <use xlink:href="#SimHei-32" x="400"/>
       <use xlink:href="#SimHei-32" x="450"/>
      </g>
     </g>
    </g>
    <g id="xtick_3">
     <g id="line2d_5">
      <path d="M 672.965035 640.8 
L 672.965035 86.4 
" clip-path="url(#pb84103b8fa)" style="fill: none; stroke-dasharray: 2.96,1.28; stroke-dashoffset: 0; stroke: #b0b0b0; stroke-width: 0.8"/>
     </g>
     <g id="line2d_6">
      <g>
       <use xlink:href="#mc2eb6825a5" x="672.965035" y="640.8" style="stroke: #000000; stroke-width: 0.8"/>
      </g>
     </g>
     <g id="text_3">
      <!-- 2022-07-01 -->
      <g transform="translate(647.965035 654.675) scale(0.1 -0.1)">
       <defs>
        <path id="SimHei-37" d="M 850 150 
Q 1300 2050 2425 3925 
L 275 3925 
L 275 4375 
L 2950 4375 
L 2950 3950 
Q 1775 2050 1400 150 
L 850 150 
z
" transform="scale(0.015625)"/>
       </defs>
       <use xlink:href="#SimHei-32"/>
       <use xlink:href="#SimHei-30" x="50"/>
       <use xlink:href="#SimHei-32" x="100"/>
       <use xlink:href="#SimHei-32" x="150"/>
       <use xlink:href="#SimHei-2d" x="200"/>
       <use xlink:href="#SimHei-30" x="250"/>
       <use xlink:href="#SimHei-37" x="300"/>
       <use xlink:href="#SimHei-2d" x="350"/>
       <use xlink:href="#SimHei-30" x="400"/>
       <use xlink:href="#SimHei-31" x="450"/>
      </g>
     </g>
    </g>
    <g id="xtick_4">
     <g id="line2d_7">
      <path d="M 855.062937 640.8 
L 855.062937 86.4 
" clip-path="url(#pb84103b8fa)" style="fill: none; stroke-dasharray: 2.96,1.28; stroke-dashoffset: 0; stroke: #b0b0b0; stroke-width: 0.8"/>
     </g>
     <g id="line2d_8">
      <g>
       <use xlink:href="#mc2eb6825a5" x="855.062937" y="640.8" style="stroke: #000000; stroke-width: 0.8"/>
      </g>
     </g>
     <g id="text_4">
      <!-- 2022-07-08 -->
      <g transform="translate(830.062937 654.675) scale(0.1 -0.1)">
       <defs>
        <path id="SimHei-38" d="M 175 1375 
Q 175 1675 325 1962 
Q 475 2250 825 2425 
Q 525 2600 425 2812 
Q 325 3025 312 3300 
Q 300 3575 387 3775 
Q 475 3975 650 4150 
Q 825 4325 1037 4387 
Q 1250 4450 1500 4450 
Q 1750 4450 1950 4400 
Q 2150 4350 2375 4187 
Q 2600 4025 2700 3725 
Q 2800 3425 2687 3025 
Q 2575 2625 2100 2400 
Q 2525 2275 2700 2012 
Q 2875 1750 2875 1375 
Q 2875 1000 2762 775 
Q 2650 550 2512 400 
Q 2375 250 2137 162 
Q 1900 75 1537 75 
Q 1175 75 912 162 
Q 650 250 475 425 
Q 300 600 237 837 
Q 175 1075 175 1375 
z
M 687 1400 
Q 675 1100 787 875 
Q 900 650 1200 587 
Q 1500 525 1825 600 
Q 2150 675 2275 950 
Q 2400 1225 2362 1500 
Q 2325 1775 2050 1962 
Q 1775 2150 1450 2125 
Q 1125 2100 912 1900 
Q 700 1700 687 1400 
z
M 775 3350 
Q 775 3100 950 2875 
Q 1125 2650 1500 2650 
Q 1875 2650 2062 2875 
Q 2250 3100 2237 3412 
Q 2225 3725 2012 3875 
Q 1800 4025 1437 4000 
Q 1075 3975 925 3787 
Q 775 3600 775 3350 
z
" transform="scale(0.015625)"/>
       </defs>
       <use xlink:href="#SimHei-32"/>
       <use xlink:href="#SimHei-30" x="50"/>
       <use xlink:href="#SimHei-32" x="100"/>
       <use xlink:href="#SimHei-32" x="150"/>
       <use xlink:href="#SimHei-2d" x="200"/>
       <use xlink:href="#SimHei-30" x="250"/>
       <use xlink:href="#SimHei-37" x="300"/>
       <use xlink:href="#SimHei-2d" x="350"/>
       <use xlink:href="#SimHei-30" x="400"/>
       <use xlink:href="#SimHei-38" x="450"/>
      </g>
     </g>
    </g>
    <g id="xtick_5">
     <g id="line2d_9">
      <path d="M 1037.160839 640.8 
L 1037.160839 86.4 
" clip-path="url(#pb84103b8fa)" style="fill: none; stroke-dasharray: 2.96,1.28; stroke-dashoffset: 0; stroke: #b0b0b0; stroke-width: 0.8"/>
     </g>
     <g id="line2d_10">
      <g>
       <use xlink:href="#mc2eb6825a5" x="1037.160839" y="640.8" style="stroke: #000000; stroke-width: 0.8"/>
      </g>
     </g>
     <g id="text_5">
      <!-- 2022-07-15 -->
      <g transform="translate(1012.160839 654.675) scale(0.1 -0.1)">
       <use xlink:href="#SimHei-32"/>
       <use xlink:href="#SimHei-30" x="50"/>
       <use xlink:href="#SimHei-32" x="100"/>
       <use xlink:href="#SimHei-32" x="150"/>
       <use xlink:href="#SimHei-2d" x="200"/>
       <use xlink:href="#SimHei-30" x="250"/>
       <use xlink:href="#SimHei-37" x="300"/>
       <use xlink:href="#SimHei-2d" x="350"/>
       <use xlink:href="#SimHei-31" x="400"/>
       <use xlink:href="#SimHei-35" x="450"/>
      </g>
     </g>
    </g>
    <g id="xtick_6">
     <g id="line2d_11">
      <path d="M 1219.258741 640.8 
L 1219.258741 86.4 
" clip-path="url(#pb84103b8fa)" style="fill: none; stroke-dasharray: 2.96,1.28; stroke-dashoffset: 0; stroke: #b0b0b0; stroke-width: 0.8"/>
     </g>
     <g id="line2d_12">
      <g>
       <use xlink:href="#mc2eb6825a5" x="1219.258741" y="640.8" style="stroke: #000000; stroke-width: 0.8"/>
      </g>
     </g>
     <g id="text_6">
      <!-- 2022-07-22 -->
      <g transform="translate(1194.258741 654.675) scale(0.1 -0.1)">
       <use xlink:href="#SimHei-32"/>
       <use xlink:href="#SimHei-30" x="50"/>
       <use xlink:href="#SimHei-32" x="100"/>
       <use xlink:href="#SimHei-32" x="150"/>
       <use xlink:href="#SimHei-2d" x="200"/>
       <use xlink:href="#SimHei-30" x="250"/>
       <use xlink:href="#SimHei-37" x="300"/>
       <use xlink:href="#SimHei-2d" x="350"/>
       <use xlink:href="#SimHei-32" x="400"/>
       <use xlink:href="#SimHei-32" x="450"/>
      </g>
     </g>
    </g>
    <g id="text_7">
     <!-- Date -->
     <g transform="translate(726 668.175) scale(0.12 -0.12)">
      <defs>
       <path id="SimHei-44" d="M 2925 2250 
Q 2925 1100 2437 612 
Q 1950 125 1125 125 
L 275 125 
L 275 4400 
L 1125 4400 
Q 2050 4400 2487 3900 
Q 2925 3400 2925 2250 
z
M 2325 2250 
Q 2325 3175 2025 3550 
Q 1725 3925 1125 3925 
L 850 3925 
L 850 600 
L 1125 600 
Q 1725 600 2025 962 
Q 2325 1325 2325 2250 
z
" transform="scale(0.015625)"/>
       <path id="SimHei-61" d="M 2875 125 
L 2275 125 
Q 2225 175 2200 262 
Q 2175 350 2175 475 
Q 2000 275 1750 175 
Q 1500 75 1225 75 
Q 825 75 550 275 
Q 275 475 275 850 
Q 275 1225 525 1450 
Q 775 1675 1300 1750 
Q 1650 1800 1912 1875 
Q 2175 1950 2175 2075 
Q 2175 2225 2062 2375 
Q 1950 2525 1575 2525 
Q 1275 2525 1137 2412 
Q 1000 2300 950 2100 
L 400 2100 
Q 450 2500 762 2737 
Q 1075 2975 1575 2975 
Q 2125 2975 2400 2725 
Q 2675 2475 2675 2025 
L 2675 650 
Q 2675 500 2725 375 
Q 2775 250 2875 125 
z
M 2175 1050 
L 2175 1550 
Q 2025 1500 1887 1462 
Q 1750 1425 1425 1375 
Q 1050 1325 937 1200 
Q 825 1075 825 900 
Q 825 750 937 637 
Q 1050 525 1275 525 
Q 1500 525 1762 650 
Q 2025 775 2175 1050 
z
" transform="scale(0.015625)"/>
       <path id="SimHei-74" d="M 2750 200 
Q 2625 150 2462 112 
Q 2300 75 2025 75 
Q 1575 75 1300 325 
Q 1025 575 1025 1025 
L 1025 2525 
L 175 2525 
L 175 2925 
L 1025 2925 
L 1025 3900 
L 1525 3900 
L 1525 2925 
L 2550 2925 
L 2550 2525 
L 1525 2525 
L 1525 1000 
Q 1525 800 1625 662 
Q 1725 525 2000 525 
Q 2275 525 2450 575 
Q 2625 625 2750 700 
L 2750 200 
z
" transform="scale(0.015625)"/>
       <path id="SimHei-65" d="M 2850 1075 
Q 2800 625 2450 350 
Q 2100 75 1625 75 
Q 1025 75 637 462 
Q 250 850 250 1525 
Q 250 2200 637 2587 
Q 1025 2975 1625 2975 
Q 2150 2975 2487 2637 
Q 2825 2300 2825 1525 
L 800 1525 
Q 800 975 1037 750 
Q 1275 525 1625 525 
Q 1900 525 2075 662 
Q 2250 800 2300 1075 
L 2850 1075 
z
M 2250 1925 
Q 2200 2275 2025 2412 
Q 1850 2550 1575 2550 
Q 1325 2550 1125 2412 
Q 925 2275 825 1925 
L 2250 1925 
z
" transform="scale(0.015625)"/>
      </defs>
      <use xlink:href="#SimHei-44"/>
      <use xlink:href="#SimHei-61" x="50"/>
      <use xlink:href="#SimHei-74" x="100"/>
      <use xlink:href="#SimHei-65" x="150"/>
     </g>
    </g>
   </g>
   <g id="matplotlib.axis_2">
    <g id="ytick_1">
     <g id="line2d_13">
      <path d="M 180 631.735666 
L 1296 631.735666 
" clip-path="url(#pb84103b8fa)" style="fill: none; stroke-dasharray: 2.96,1.28; stroke-dashoffset: 0; stroke: #b0b0b0; stroke-width: 0.8"/>
     </g>
     <g id="line2d_14">
      <defs>
       <path id="m66d7e94c08" d="M 0 0 
L -3.5 0 
" style="stroke: #000000; stroke-width: 0.8"/>
      </defs>
      <g>
       <use xlink:href="#m66d7e94c08" x="180" y="631.735666" style="stroke: #000000; stroke-width: 0.8"/>
      </g>
     </g>
     <g id="text_8">
      <!-- 24 -->
      <g transform="translate(163 635.173166) scale(0.1 -0.1)">
       <defs>
        <path id="SimHei-34" d="M 2000 1100 
L 75 1100 
L 75 1525 
L 2100 4450 
L 2475 4450 
L 2475 1525 
L 3075 1525 
L 3075 1100 
L 2475 1100 
L 2475 150 
L 2000 150 
L 2000 1100 
z
M 2000 1525 
L 2000 3500 
L 600 1525 
L 2000 1525 
z
" transform="scale(0.015625)"/>
       </defs>
       <use xlink:href="#SimHei-32"/>
       <use xlink:href="#SimHei-34" x="50"/>
      </g>
     </g>
    </g>
    <g id="ytick_2">
     <g id="line2d_15">
      <path d="M 180 557.737706 
L 1296 557.737706 
" clip-path="url(#pb84103b8fa)" style="fill: none; stroke-dasharray: 2.96,1.28; stroke-dashoffset: 0; stroke: #b0b0b0; stroke-width: 0.8"/>
     </g>
     <g id="line2d_16">
      <g>
       <use xlink:href="#m66d7e94c08" x="180" y="557.737706" style="stroke: #000000; stroke-width: 0.8"/>
      </g>
     </g>
     <g id="text_9">
      <!-- 26 -->
      <g transform="translate(163 561.175206) scale(0.1 -0.1)">
       <use xlink:href="#SimHei-32"/>
       <use xlink:href="#SimHei-36" x="50"/>
      </g>
     </g>
    </g>
    <g id="ytick_3">
     <g id="line2d_17">
      <path d="M 180 483.739745 
L 1296 483.739745 
" clip-path="url(#pb84103b8fa)" style="fill: none; stroke-dasharray: 2.96,1.28; stroke-dashoffset: 0; stroke: #b0b0b0; stroke-width: 0.8"/>
     </g>
     <g id="line2d_18">
      <g>
       <use xlink:href="#m66d7e94c08" x="180" y="483.739745" style="stroke: #000000; stroke-width: 0.8"/>
      </g>
     </g>
     <g id="text_10">
      <!-- 28 -->
      <g transform="translate(163 487.177245) scale(0.1 -0.1)">
       <use xlink:href="#SimHei-32"/>
       <use xlink:href="#SimHei-38" x="50"/>
      </g>
     </g>
    </g>
    <g id="ytick_4">
     <g id="line2d_19">
      <path d="M 180 409.741784 
L 1296 409.741784 
" clip-path="url(#pb84103b8fa)" style="fill: none; stroke-dasharray: 2.96,1.28; stroke-dashoffset: 0; stroke: #b0b0b0; stroke-width: 0.8"/>
     </g>
     <g id="line2d_20">
      <g>
       <use xlink:href="#m66d7e94c08" x="180" y="409.741784" style="stroke: #000000; stroke-width: 0.8"/>
      </g>
     </g>
     <g id="text_11">
      <!-- 30 -->
      <g transform="translate(163 413.179284) scale(0.1 -0.1)">
       <defs>
        <path id="SimHei-33" d="M 250 1225 
L 700 1300 
Q 800 975 1025 762 
Q 1250 550 1587 562 
Q 1925 575 2125 837 
Q 2325 1100 2300 1437 
Q 2275 1775 2037 1962 
Q 1800 2150 1275 2225 
L 1275 2550 
Q 1800 2600 2037 2825 
Q 2275 3050 2250 3412 
Q 2225 3775 1925 3937 
Q 1625 4100 1287 3975 
Q 950 3850 750 3275 
L 300 3350 
Q 450 3800 712 4100 
Q 975 4400 1425 4450 
Q 1875 4500 2212 4337 
Q 2550 4175 2687 3837 
Q 2825 3500 2725 3100 
Q 2625 2700 2150 2400 
Q 2500 2250 2687 1950 
Q 2875 1650 2812 1162 
Q 2750 675 2375 375 
Q 2000 75 1525 87 
Q 1050 100 700 387 
Q 350 675 250 1225 
z
" transform="scale(0.015625)"/>
       </defs>
       <use xlink:href="#SimHei-33"/>
       <use xlink:href="#SimHei-30" x="50"/>
      </g>
     </g>
    </g>
    <g id="ytick_5">
     <g id="line2d_21">
      <path d="M 180 335.743823 
L 1296 335.743823 
" clip-path="url(#pb84103b8fa)" style="fill: none; stroke-dasharray: 2.96,1.28; stroke-dashoffset: 0; stroke: #b0b0b0; stroke-width: 0.8"/>
     </g>
     <g id="line2d_22">
      <g>
       <use xlink:href="#m66d7e94c08" x="180" y="335.743823" style="stroke: #000000; stroke-width: 0.8"/>
      </g>
     </g>
     <g id="text_12">
      <!-- 32 -->
      <g transform="translate(163 339.181323) scale(0.1 -0.1)">
       <use xlink:href="#SimHei-33"/>
       <use xlink:href="#SimHei-32" x="50"/>
      </g>
     </g>
    </g>
    <g id="ytick_6">
     <g id="line2d_23">
      <path d="M 180 261.745862 
L 1296 261.745862 
" clip-path="url(#pb84103b8fa)" style="fill: none; stroke-dasharray: 2.96,1.28; stroke-dashoffset: 0; stroke: #b0b0b0; stroke-width: 0.8"/>
     </g>
     <g id="line2d_24">
      <g>
       <use xlink:href="#m66d7e94c08" x="180" y="261.745862" style="stroke: #000000; stroke-width: 0.8"/>
      </g>
     </g>
     <g id="text_13">
      <!-- 34 -->
      <g transform="translate(163 265.183362) scale(0.1 -0.1)">
       <use xlink:href="#SimHei-33"/>
       <use xlink:href="#SimHei-34" x="50"/>
      </g>
     </g>
    </g>
    <g id="ytick_7">
     <g id="line2d_25">
      <path d="M 180 187.747902 
L 1296 187.747902 
" clip-path="url(#pb84103b8fa)" style="fill: none; stroke-dasharray: 2.96,1.28; stroke-dashoffset: 0; stroke: #b0b0b0; stroke-width: 0.8"/>
     </g>
     <g id="line2d_26">
      <g>
       <use xlink:href="#m66d7e94c08" x="180" y="187.747902" style="stroke: #000000; stroke-width: 0.8"/>
      </g>
     </g>
     <g id="text_14">
      <!-- 36 -->
      <g transform="translate(163 191.185402) scale(0.1 -0.1)">
       <use xlink:href="#SimHei-33"/>
       <use xlink:href="#SimHei-36" x="50"/>
      </g>
     </g>
    </g>
    <g id="ytick_8">
     <g id="line2d_27">
      <path d="M 180 113.749941 
L 1296 113.749941 
" clip-path="url(#pb84103b8fa)" style="fill: none; stroke-dasharray: 2.96,1.28; stroke-dashoffset: 0; stroke: #b0b0b0; stroke-width: 0.8"/>
     </g>
     <g id="line2d_28">
      <g>
       <use xlink:href="#m66d7e94c08" x="180" y="113.749941" style="stroke: #000000; stroke-width: 0.8"/>
      </g>
     </g>
     <g id="text_15">
      <!-- 38 -->
      <g transform="translate(163 117.187441) scale(0.1 -0.1)">
       <use xlink:href="#SimHei-33"/>
       <use xlink:href="#SimHei-38" x="50"/>
      </g>
     </g>
    </g>
    <g id="text_16">
     <!-- Value -->
     <g transform="translate(157.5 378.6) rotate(-90) scale(0.12 -0.12)">
      <defs>
       <path id="SimHei-56" d="M 3050 4400 
L 1800 75 
L 1300 75 
L 50 4400 
L 650 4400 
L 1525 1125 
L 1575 1125 
L 2450 4400 
L 3050 4400 
z
" transform="scale(0.015625)"/>
       <path id="SimHei-6c" d="M 1825 125 
L 1325 125 
L 1325 4400 
L 1825 4400 
L 1825 125 
z
" transform="scale(0.015625)"/>
       <path id="SimHei-75" d="M 2800 125 
L 2300 125 
L 2300 650 
Q 2100 375 1862 225 
Q 1625 75 1250 75 
Q 800 75 575 325 
Q 350 575 350 950 
L 350 2925 
L 850 2925 
L 850 1125 
Q 850 825 1000 650 
Q 1150 475 1400 475 
Q 1725 475 2012 812 
Q 2300 1150 2300 1650 
L 2300 2925 
L 2800 2925 
L 2800 125 
z
" transform="scale(0.015625)"/>
      </defs>
      <use xlink:href="#SimHei-56"/>
      <use xlink:href="#SimHei-61" x="50"/>
      <use xlink:href="#SimHei-6c" x="100"/>
      <use xlink:href="#SimHei-75" x="150"/>
      <use xlink:href="#SimHei-65" x="200"/>
     </g>
    </g>
   </g>
   <g id="line2d_29">
    <path d="M 230.727273 615.6 
L 256.741259 573.514629 
L 282.755245 598.704693 
L 308.769231 579.292158 
L 386.811189 598.225161 
L 412.825175 561.437604 
L 438.839161 534.620513 
L 464.853147 526.883199 
L 568.909091 577.738297 
L 620.937063 540.619163 
L 803.034965 480.850783 
L 829.048951 494.176771 
L 855.062937 474.125044 
L 881.076923 456.740489 
L 907.090909 435.566576 
L 933.104895 441.614108 
L 959.118881 418.299371 
L 1011.146853 425.556592 
L 1037.160839 452.034465 
L 1063.174825 433.803706 
L 1089.188811 475.514971 
L 1115.202797 431.694512 
L 1141.216783 441.457097 
L 1167.230769 450.161019 
L 1193.244755 465.708058 
L 1219.258741 487.251113 
L 1245.272727 460.346418 
" clip-path="url(#pb84103b8fa)" style="fill: none; stroke: #1f77b4; stroke-width: 1.5; stroke-linecap: square"/>
    <defs>
     <path id="m2d541d1567" d="M 0 0.75 
C 0.198902 0.75 0.389685 0.670975 0.53033 0.53033 
C 0.670975 0.389685 0.75 0.198902 0.75 0 
C 0.75 -0.198902 0.670975 -0.389685 0.53033 -0.53033 
C 0.389685 -0.670975 0.198902 -0.75 0 -0.75 
C -0.198902 -0.75 -0.389685 -0.670975 -0.53033 -0.53033 
C -0.670975 -0.389685 -0.75 -0.198902 -0.75 0 
C -0.75 0.198902 -0.670975 0.389685 -0.53033 0.53033 
C -0.389685 0.670975 -0.198902 0.75 0 0.75 
z
" style="stroke: #1f77b4"/>
    </defs>
    <g clip-path="url(#pb84103b8fa)">
     <use xlink:href="#m2d541d1567" x="230.727273" y="615.6" style="fill: #1f77b4; stroke: #1f77b4"/>
     <use xlink:href="#m2d541d1567" x="256.741259" y="573.514629" style="fill: #1f77b4; stroke: #1f77b4"/>
     <use xlink:href="#m2d541d1567" x="282.755245" y="598.704693" style="fill: #1f77b4; stroke: #1f77b4"/>
     <use xlink:href="#m2d541d1567" x="308.769231" y="579.292158" style="fill: #1f77b4; stroke: #1f77b4"/>
     <use xlink:href="#m2d541d1567" x="386.811189" y="598.225161" style="fill: #1f77b4; stroke: #1f77b4"/>
     <use xlink:href="#m2d541d1567" x="412.825175" y="561.437604" style="fill: #1f77b4; stroke: #1f77b4"/>
     <use xlink:href="#m2d541d1567" x="438.839161" y="534.620513" style="fill: #1f77b4; stroke: #1f77b4"/>
     <use xlink:href="#m2d541d1567" x="464.853147" y="526.883199" style="fill: #1f77b4; stroke: #1f77b4"/>
     <use xlink:href="#m2d541d1567" x="568.909091" y="577.738297" style="fill: #1f77b4; stroke: #1f77b4"/>
     <use xlink:href="#m2d541d1567" x="620.937063" y="540.619163" style="fill: #1f77b4; stroke: #1f77b4"/>
     <use xlink:href="#m2d541d1567" x="803.034965" y="480.850783" style="fill: #1f77b4; stroke: #1f77b4"/>
     <use xlink:href="#m2d541d1567" x="829.048951" y="494.176771" style="fill: #1f77b4; stroke: #1f77b4"/>
     <use xlink:href="#m2d541d1567" x="855.062937" y="474.125044" style="fill: #1f77b4; stroke: #1f77b4"/>
     <use xlink:href="#m2d541d1567" x="881.076923" y="456.740489" style="fill: #1f77b4; stroke: #1f77b4"/>
     <use xlink:href="#m2d541d1567" x="907.090909" y="435.566576" style="fill: #1f77b4; stroke: #1f77b4"/>
     <use xlink:href="#m2d541d1567" x="933.104895" y="441.614108" style="fill: #1f77b4; stroke: #1f77b4"/>
     <use xlink:href="#m2d541d1567" x="959.118881" y="418.299371" style="fill: #1f77b4; stroke: #1f77b4"/>
     <use xlink:href="#m2d541d1567" x="1011.146853" y="425.556592" style="fill: #1f77b4; stroke: #1f77b4"/>
     <use xlink:href="#m2d541d1567" x="1037.160839" y="452.034465" style="fill: #1f77b4; stroke: #1f77b4"/>
     <use xlink:href="#m2d541d1567" x="1063.174825" y="433.803706" style="fill: #1f77b4; stroke: #1f77b4"/>
     <use xlink:href="#m2d541d1567" x="1089.188811" y="475.514971" style="fill: #1f77b4; stroke: #1f77b4"/>
     <use xlink:href="#m2d541d1567" x="1115.202797" y="431.694512" style="fill: #1f77b4; stroke: #1f77b4"/>
     <use xlink:href="#m2d541d1567" x="1141.216783" y="441.457097" style="fill: #1f77b4; stroke: #1f77b4"/>
     <use xlink:href="#m2d541d1567" x="1167.230769" y="450.161019" style="fill: #1f77b4; stroke: #1f77b4"/>
     <use xlink:href="#m2d541d1567" x="1193.244755" y="465.708058" style="fill: #1f77b4; stroke: #1f77b4"/>
     <use xlink:href="#m2d541d1567" x="1219.258741" y="487.251113" style="fill: #1f77b4; stroke: #1f77b4"/>
     <use xlink:href="#m2d541d1567" x="1245.272727" y="460.346418" style="fill: #1f77b4; stroke: #1f77b4"/>
    </g>
   </g>
   <g id="line2d_30">
    <path d="M 230.727273 561.5876 
L 256.741259 539.786348 
L 282.755245 542.080166 
L 308.769231 528.979407 
L 386.811189 515.215306 
L 412.825175 503.392102 
L 438.839161 472.439281 
L 464.853147 452.811256 
L 568.909091 460.455904 
L 620.937063 444.473925 
L 803.034965 399.942054 
L 829.048951 381.385103 
L 855.062937 368.86672 
L 881.076923 339.343724 
L 907.090909 303.135388 
L 933.104895 307.571397 
L 959.118881 286.160156 
L 1011.146853 279.997189 
L 1037.160839 295.115824 
L 1063.174825 274.03747 
L 1089.188811 266.358402 
L 1115.202797 345.240228 
L 1141.216783 347.728276 
L 1167.230769 307.134146 
L 1193.244755 331.917792 
L 1219.258741 343.30964 
L 1245.272727 343.494136 
" clip-path="url(#pb84103b8fa)" style="fill: none; stroke: #ff7f0e; stroke-width: 1.5; stroke-linecap: square"/>
    <defs>
     <path id="m1ff9f77adc" d="M 0 0.75 
C 0.198902 0.75 0.389685 0.670975 0.53033 0.53033 
C 0.670975 0.389685 0.75 0.198902 0.75 0 
C 0.75 -0.198902 0.670975 -0.389685 0.53033 -0.53033 
C 0.389685 -0.670975 0.198902 -0.75 0 -0.75 
C -0.198902 -0.75 -0.389685 -0.670975 -0.53033 -0.53033 
C -0.670975 -0.389685 -0.75 -0.198902 -0.75 0 
C -0.75 0.198902 -0.670975 0.389685 -0.53033 0.53033 
C -0.389685 0.670975 -0.198902 0.75 0 0.75 
z
" style="stroke: #ff7f0e"/>
    </defs>
    <g clip-path="url(#pb84103b8fa)">
     <use xlink:href="#m1ff9f77adc" x="230.727273" y="561.5876" style="fill: #ff7f0e; stroke: #ff7f0e"/>
     <use xlink:href="#m1ff9f77adc" x="256.741259" y="539.786348" style="fill: #ff7f0e; stroke: #ff7f0e"/>
     <use xlink:href="#m1ff9f77adc" x="282.755245" y="542.080166" style="fill: #ff7f0e; stroke: #ff7f0e"/>
     <use xlink:href="#m1ff9f77adc" x="308.769231" y="528.979407" style="fill: #ff7f0e; stroke: #ff7f0e"/>
     <use xlink:href="#m1ff9f77adc" x="386.811189" y="515.215306" style="fill: #ff7f0e; stroke: #ff7f0e"/>
     <use xlink:href="#m1ff9f77adc" x="412.825175" y="503.392102" style="fill: #ff7f0e; stroke: #ff7f0e"/>
     <use xlink:href="#m1ff9f77adc" x="438.839161" y="472.439281" style="fill: #ff7f0e; stroke: #ff7f0e"/>
     <use xlink:href="#m1ff9f77adc" x="464.853147" y="452.811256" style="fill: #ff7f0e; stroke: #ff7f0e"/>
     <use xlink:href="#m1ff9f77adc" x="568.909091" y="460.455904" style="fill: #ff7f0e; stroke: #ff7f0e"/>
     <use xlink:href="#m1ff9f77adc" x="620.937063" y="444.473925" style="fill: #ff7f0e; stroke: #ff7f0e"/>
     <use xlink:href="#m1ff9f77adc" x="803.034965" y="399.942054" style="fill: #ff7f0e; stroke: #ff7f0e"/>
     <use xlink:href="#m1ff9f77adc" x="829.048951" y="381.385103" style="fill: #ff7f0e; stroke: #ff7f0e"/>
     <use xlink:href="#m1ff9f77adc" x="855.062937" y="368.86672" style="fill: #ff7f0e; stroke: #ff7f0e"/>
     <use xlink:href="#m1ff9f77adc" x="881.076923" y="339.343724" style="fill: #ff7f0e; stroke: #ff7f0e"/>
     <use xlink:href="#m1ff9f77adc" x="907.090909" y="303.135388" style="fill: #ff7f0e; stroke: #ff7f0e"/>
     <use xlink:href="#m1ff9f77adc" x="933.104895" y="307.571397" style="fill: #ff7f0e; stroke: #ff7f0e"/>
     <use xlink:href="#m1ff9f77adc" x="959.118881" y="286.160156" style="fill: #ff7f0e; stroke: #ff7f0e"/>
     <use xlink:href="#m1ff9f77adc" x="1011.146853" y="279.997189" style="fill: #ff7f0e; stroke: #ff7f0e"/>
     <use xlink:href="#m1ff9f77adc" x="1037.160839" y="295.115824" style="fill: #ff7f0e; stroke: #ff7f0e"/>
     <use xlink:href="#m1ff9f77adc" x="1063.174825" y="274.03747" style="fill: #ff7f0e; stroke: #ff7f0e"/>
     <use xlink:href="#m1ff9f77adc" x="1089.188811" y="266.358402" style="fill: #ff7f0e; stroke: #ff7f0e"/>
     <use xlink:href="#m1ff9f77adc" x="1115.202797" y="345.240228" style="fill: #ff7f0e; stroke: #ff7f0e"/>
     <use xlink:href="#m1ff9f77adc" x="1141.216783" y="347.728276" style="fill: #ff7f0e; stroke: #ff7f0e"/>
     <use xlink:href="#m1ff9f77adc" x="1167.230769" y="307.134146" style="fill: #ff7f0e; stroke: #ff7f0e"/>
     <use xlink:href="#m1ff9f77adc" x="1193.244755" y="331.917792" style="fill: #ff7f0e; stroke: #ff7f0e"/>
     <use xlink:href="#m1ff9f77adc" x="1219.258741" y="343.30964" style="fill: #ff7f0e; stroke: #ff7f0e"/>
     <use xlink:href="#m1ff9f77adc" x="1245.272727" y="343.494136" style="fill: #ff7f0e; stroke: #ff7f0e"/>
    </g>
   </g>
   <g id="line2d_31">
    <path d="M 230.727273 524.590674 
L 256.741259 525.313145 
L 282.755245 525.125747 
L 308.769231 505.972769 
L 386.811189 499.807873 
L 412.825175 475.967297 
L 438.839161 464.112942 
L 464.853147 450.969219 
L 568.909091 441.297236 
L 620.937063 421.126086 
L 803.034965 399.875389 
L 829.048951 362.191243 
L 855.062937 346.943515 
L 881.076923 258.269448 
L 907.090909 217.42011 
L 933.104895 231.687214 
L 959.118881 259.591812 
L 1011.146853 231.488414 
L 1037.160839 253.74114 
L 1063.174825 242.802384 
L 1089.188811 244.627667 
L 1141.216783 296.45522 
L 1167.230769 252.782419 
L 1193.244755 282.026785 
L 1219.258741 288.119495 
L 1245.272727 295.096873 
" clip-path="url(#pb84103b8fa)" style="fill: none; stroke: #2ca02c; stroke-width: 1.5; stroke-linecap: square"/>
    <defs>
     <path id="m289a7aff63" d="M 0 0.75 
C 0.198902 0.75 0.389685 0.670975 0.53033 0.53033 
C 0.670975 0.389685 0.75 0.198902 0.75 0 
C 0.75 -0.198902 0.670975 -0.389685 0.53033 -0.53033 
C 0.389685 -0.670975 0.198902 -0.75 0 -0.75 
C -0.198902 -0.75 -0.389685 -0.670975 -0.53033 -0.53033 
C -0.670975 -0.389685 -0.75 -0.198902 -0.75 0 
C -0.75 0.198902 -0.670975 0.389685 -0.53033 0.53033 
C -0.389685 0.670975 -0.198902 0.75 0 0.75 
z
" style="stroke: #2ca02c"/>
    </defs>
    <g clip-path="url(#pb84103b8fa)">
     <use xlink:href="#m289a7aff63" x="230.727273" y="524.590674" style="fill: #2ca02c; stroke: #2ca02c"/>
     <use xlink:href="#m289a7aff63" x="256.741259" y="525.313145" style="fill: #2ca02c; stroke: #2ca02c"/>
     <use xlink:href="#m289a7aff63" x="282.755245" y="525.125747" style="fill: #2ca02c; stroke: #2ca02c"/>
     <use xlink:href="#m289a7aff63" x="308.769231" y="505.972769" style="fill: #2ca02c; stroke: #2ca02c"/>
     <use xlink:href="#m289a7aff63" x="386.811189" y="499.807873" style="fill: #2ca02c; stroke: #2ca02c"/>
     <use xlink:href="#m289a7aff63" x="412.825175" y="475.967297" style="fill: #2ca02c; stroke: #2ca02c"/>
     <use xlink:href="#m289a7aff63" x="438.839161" y="464.112942" style="fill: #2ca02c; stroke: #2ca02c"/>
     <use xlink:href="#m289a7aff63" x="464.853147" y="450.969219" style="fill: #2ca02c; stroke: #2ca02c"/>
     <use xlink:href="#m289a7aff63" x="568.909091" y="441.297236" style="fill: #2ca02c; stroke: #2ca02c"/>
     <use xlink:href="#m289a7aff63" x="620.937063" y="421.126086" style="fill: #2ca02c; stroke: #2ca02c"/>
     <use xlink:href="#m289a7aff63" x="803.034965" y="399.875389" style="fill: #2ca02c; stroke: #2ca02c"/>
     <use xlink:href="#m289a7aff63" x="829.048951" y="362.191243" style="fill: #2ca02c; stroke: #2ca02c"/>
     <use xlink:href="#m289a7aff63" x="855.062937" y="346.943515" style="fill: #2ca02c; stroke: #2ca02c"/>
     <use xlink:href="#m289a7aff63" x="881.076923" y="258.269448" style="fill: #2ca02c; stroke: #2ca02c"/>
     <use xlink:href="#m289a7aff63" x="907.090909" y="217.42011" style="fill: #2ca02c; stroke: #2ca02c"/>
     <use xlink:href="#m289a7aff63" x="933.104895" y="231.687214" style="fill: #2ca02c; stroke: #2ca02c"/>
     <use xlink:href="#m289a7aff63" x="959.118881" y="259.591812" style="fill: #2ca02c; stroke: #2ca02c"/>
     <use xlink:href="#m289a7aff63" x="1011.146853" y="231.488414" style="fill: #2ca02c; stroke: #2ca02c"/>
     <use xlink:href="#m289a7aff63" x="1037.160839" y="253.74114" style="fill: #2ca02c; stroke: #2ca02c"/>
     <use xlink:href="#m289a7aff63" x="1063.174825" y="242.802384" style="fill: #2ca02c; stroke: #2ca02c"/>
     <use xlink:href="#m289a7aff63" x="1089.188811" y="244.627667" style="fill: #2ca02c; stroke: #2ca02c"/>
     <use xlink:href="#m289a7aff63" x="1141.216783" y="296.45522" style="fill: #2ca02c; stroke: #2ca02c"/>
     <use xlink:href="#m289a7aff63" x="1167.230769" y="252.782419" style="fill: #2ca02c; stroke: #2ca02c"/>
     <use xlink:href="#m289a7aff63" x="1193.244755" y="282.026785" style="fill: #2ca02c; stroke: #2ca02c"/>
     <use xlink:href="#m289a7aff63" x="1219.258741" y="288.119495" style="fill: #2ca02c; stroke: #2ca02c"/>
     <use xlink:href="#m289a7aff63" x="1245.272727" y="295.096873" style="fill: #2ca02c; stroke: #2ca02c"/>
    </g>
   </g>
   <g id="line2d_32">
    <path d="M 230.727273 535.639684 
L 256.741259 516.837015 
L 282.755245 507.101958 
L 308.769231 493.224938 
L 386.811189 499.490739 
L 412.825175 481.044105 
L 438.839161 443.270317 
L 464.853147 418.603815 
L 568.909091 413.357113 
L 620.937063 387.516522 
L 803.034965 339.125187 
L 855.062937 293.910309 
L 881.076923 269.319479 
L 907.090909 215.94451 
L 933.104895 232.338881 
L 959.118881 233.312399 
L 1011.146853 210.900638 
L 1037.160839 226.260477 
L 1063.174825 217.618412 
L 1089.188811 204.260869 
L 1115.202797 222.865578 
L 1141.216783 229.216467 
L 1167.230769 201.639136 
L 1193.244755 224.597802 
L 1219.258741 238.360609 
L 1245.272727 239.079119 
" clip-path="url(#pb84103b8fa)" style="fill: none; stroke: #d62728; stroke-width: 1.5; stroke-linecap: square"/>
    <defs>
     <path id="m6cc76be816" d="M 0 0.75 
C 0.198902 0.75 0.389685 0.670975 0.53033 0.53033 
C 0.670975 0.389685 0.75 0.198902 0.75 0 
C 0.75 -0.198902 0.670975 -0.389685 0.53033 -0.53033 
C 0.389685 -0.670975 0.198902 -0.75 0 -0.75 
C -0.198902 -0.75 -0.389685 -0.670975 -0.53033 -0.53033 
C -0.670975 -0.389685 -0.75 -0.198902 -0.75 0 
C -0.75 0.198902 -0.670975 0.389685 -0.53033 0.53033 
C -0.389685 0.670975 -0.198902 0.75 0 0.75 
z
" style="stroke: #d62728"/>
    </defs>
    <g clip-path="url(#pb84103b8fa)">
     <use xlink:href="#m6cc76be816" x="230.727273" y="535.639684" style="fill: #d62728; stroke: #d62728"/>
     <use xlink:href="#m6cc76be816" x="256.741259" y="516.837015" style="fill: #d62728; stroke: #d62728"/>
     <use xlink:href="#m6cc76be816" x="282.755245" y="507.101958" style="fill: #d62728; stroke: #d62728"/>
     <use xlink:href="#m6cc76be816" x="308.769231" y="493.224938" style="fill: #d62728; stroke: #d62728"/>
     <use xlink:href="#m6cc76be816" x="386.811189" y="499.490739" style="fill: #d62728; stroke: #d62728"/>
     <use xlink:href="#m6cc76be816" x="412.825175" y="481.044105" style="fill: #d62728; stroke: #d62728"/>
     <use xlink:href="#m6cc76be816" x="438.839161" y="443.270317" style="fill: #d62728; stroke: #d62728"/>
     <use xlink:href="#m6cc76be816" x="464.853147" y="418.603815" style="fill: #d62728; stroke: #d62728"/>
     <use xlink:href="#m6cc76be816" x="568.909091" y="413.357113" style="fill: #d62728; stroke: #d62728"/>
     <use xlink:href="#m6cc76be816" x="620.937063" y="387.516522" style="fill: #d62728; stroke: #d62728"/>
     <use xlink:href="#m6cc76be816" x="803.034965" y="339.125187" style="fill: #d62728; stroke: #d62728"/>
     <use xlink:href="#m6cc76be816" x="855.062937" y="293.910309" style="fill: #d62728; stroke: #d62728"/>
     <use xlink:href="#m6cc76be816" x="881.076923" y="269.319479" style="fill: #d62728; stroke: #d62728"/>
     <use xlink:href="#m6cc76be816" x="907.090909" y="215.94451" style="fill: #d62728; stroke: #d62728"/>
     <use xlink:href="#m6cc76be816" x="933.104895" y="232.338881" style="fill: #d62728; stroke: #d62728"/>
     <use xlink:href="#m6cc76be816" x="959.118881" y="233.312399" style="fill: #d62728; stroke: #d62728"/>
     <use xlink:href="#m6cc76be816" x="1011.146853" y="210.900638" style="fill: #d62728; stroke: #d62728"/>
     <use xlink:href="#m6cc76be816" x="1037.160839" y="226.260477" style="fill: #d62728; stroke: #d62728"/>
     <use xlink:href="#m6cc76be816" x="1063.174825" y="217.618412" style="fill: #d62728; stroke: #d62728"/>
     <use xlink:href="#m6cc76be816" x="1089.188811" y="204.260869" style="fill: #d62728; stroke: #d62728"/>
     <use xlink:href="#m6cc76be816" x="1115.202797" y="222.865578" style="fill: #d62728; stroke: #d62728"/>
     <use xlink:href="#m6cc76be816" x="1141.216783" y="229.216467" style="fill: #d62728; stroke: #d62728"/>
     <use xlink:href="#m6cc76be816" x="1167.230769" y="201.639136" style="fill: #d62728; stroke: #d62728"/>
     <use xlink:href="#m6cc76be816" x="1193.244755" y="224.597802" style="fill: #d62728; stroke: #d62728"/>
     <use xlink:href="#m6cc76be816" x="1219.258741" y="238.360609" style="fill: #d62728; stroke: #d62728"/>
     <use xlink:href="#m6cc76be816" x="1245.272727" y="239.079119" style="fill: #d62728; stroke: #d62728"/>
    </g>
   </g>
   <g id="line2d_33">
    <path d="M 568.909091 351.766522 
L 620.937063 317.11675 
L 803.034965 261.015619 
L 829.048951 222.289285 
L 855.062937 225.419591 
L 881.076923 180.570099 
L 907.090909 141.797555 
L 933.104895 138.049916 
L 959.118881 144.028698 
L 1011.146853 119.62892 
L 1037.160839 128.71771 
L 1063.174825 127.624558 
L 1089.188811 111.6 
L 1115.202797 199.20565 
L 1141.216783 199.684799 
L 1167.230769 133.675898 
L 1193.244755 157.518662 
L 1219.258741 160.106083 
L 1245.272727 156.03449 
" clip-path="url(#pb84103b8fa)" style="fill: none; stroke: #9467bd; stroke-width: 1.5; stroke-linecap: square"/>
    <defs>
     <path id="m80cd4da3ff" d="M 0 0.75 
C 0.198902 0.75 0.389685 0.670975 0.53033 0.53033 
C 0.670975 0.389685 0.75 0.198902 0.75 0 
C 0.75 -0.198902 0.670975 -0.389685 0.53033 -0.53033 
C 0.389685 -0.670975 0.198902 -0.75 0 -0.75 
C -0.198902 -0.75 -0.389685 -0.670975 -0.53033 -0.53033 
C -0.670975 -0.389685 -0.75 -0.198902 -0.75 0 
C -0.75 0.198902 -0.670975 0.389685 -0.53033 0.53033 
C -0.389685 0.670975 -0.198902 0.75 0 0.75 
z
" style="stroke: #9467bd"/>
    </defs>
    <g clip-path="url(#pb84103b8fa)">
     <use xlink:href="#m80cd4da3ff" x="568.909091" y="351.766522" style="fill: #9467bd; stroke: #9467bd"/>
     <use xlink:href="#m80cd4da3ff" x="620.937063" y="317.11675" style="fill: #9467bd; stroke: #9467bd"/>
     <use xlink:href="#m80cd4da3ff" x="803.034965" y="261.015619" style="fill: #9467bd; stroke: #9467bd"/>
     <use xlink:href="#m80cd4da3ff" x="829.048951" y="222.289285" style="fill: #9467bd; stroke: #9467bd"/>
     <use xlink:href="#m80cd4da3ff" x="855.062937" y="225.419591" style="fill: #9467bd; stroke: #9467bd"/>
     <use xlink:href="#m80cd4da3ff" x="881.076923" y="180.570099" style="fill: #9467bd; stroke: #9467bd"/>
     <use xlink:href="#m80cd4da3ff" x="907.090909" y="141.797555" style="fill: #9467bd; stroke: #9467bd"/>
     <use xlink:href="#m80cd4da3ff" x="933.104895" y="138.049916" style="fill: #9467bd; stroke: #9467bd"/>
     <use xlink:href="#m80cd4da3ff" x="959.118881" y="144.028698" style="fill: #9467bd; stroke: #9467bd"/>
     <use xlink:href="#m80cd4da3ff" x="1011.146853" y="119.62892" style="fill: #9467bd; stroke: #9467bd"/>
     <use xlink:href="#m80cd4da3ff" x="1037.160839" y="128.71771" style="fill: #9467bd; stroke: #9467bd"/>
     <use xlink:href="#m80cd4da3ff" x="1063.174825" y="127.624558" style="fill: #9467bd; stroke: #9467bd"/>
     <use xlink:href="#m80cd4da3ff" x="1089.188811" y="111.6" style="fill: #9467bd; stroke: #9467bd"/>
     <use xlink:href="#m80cd4da3ff" x="1115.202797" y="199.20565" style="fill: #9467bd; stroke: #9467bd"/>
     <use xlink:href="#m80cd4da3ff" x="1141.216783" y="199.684799" style="fill: #9467bd; stroke: #9467bd"/>
     <use xlink:href="#m80cd4da3ff" x="1167.230769" y="133.675898" style="fill: #9467bd; stroke: #9467bd"/>
     <use xlink:href="#m80cd4da3ff" x="1193.244755" y="157.518662" style="fill: #9467bd; stroke: #9467bd"/>
     <use xlink:href="#m80cd4da3ff" x="1219.258741" y="160.106083" style="fill: #9467bd; stroke: #9467bd"/>
     <use xlink:href="#m80cd4da3ff" x="1245.272727" y="156.03449" style="fill: #9467bd; stroke: #9467bd"/>
    </g>
   </g>
   <g id="line2d_34">
    <path d="M 568.909091 420.798951 
L 620.937063 392.380724 
L 803.034965 347.805919 
L 829.048951 332.816631 
L 855.062937 290.753063 
L 881.076923 259.262709 
L 907.090909 221.675725 
L 933.104895 225.01116 
L 959.118881 231.391597 
L 1011.146853 198.348223 
L 1037.160839 217.024746 
L 1063.174825 217.963736 
L 1089.188811 223.828115 
L 1115.202797 271.089673 
L 1141.216783 270.036875 
L 1167.230769 213.957359 
L 1193.244755 249.060498 
L 1219.258741 253.729417 
L 1245.272727 244.5316 
" clip-path="url(#pb84103b8fa)" style="fill: none; stroke: #8c564b; stroke-width: 1.5; stroke-linecap: square"/>
    <defs>
     <path id="m26f6df0e9f" d="M 0 0.75 
C 0.198902 0.75 0.389685 0.670975 0.53033 0.53033 
C 0.670975 0.389685 0.75 0.198902 0.75 0 
C 0.75 -0.198902 0.670975 -0.389685 0.53033 -0.53033 
C 0.389685 -0.670975 0.198902 -0.75 0 -0.75 
C -0.198902 -0.75 -0.389685 -0.670975 -0.53033 -0.53033 
C -0.670975 -0.389685 -0.75 -0.198902 -0.75 0 
C -0.75 0.198902 -0.670975 0.389685 -0.53033 0.53033 
C -0.389685 0.670975 -0.198902 0.75 0 0.75 
z
" style="stroke: #8c564b"/>
    </defs>
    <g clip-path="url(#pb84103b8fa)">
     <use xlink:href="#m26f6df0e9f" x="568.909091" y="420.798951" style="fill: #8c564b; stroke: #8c564b"/>
     <use xlink:href="#m26f6df0e9f" x="620.937063" y="392.380724" style="fill: #8c564b; stroke: #8c564b"/>
     <use xlink:href="#m26f6df0e9f" x="803.034965" y="347.805919" style="fill: #8c564b; stroke: #8c564b"/>
     <use xlink:href="#m26f6df0e9f" x="829.048951" y="332.816631" style="fill: #8c564b; stroke: #8c564b"/>
     <use xlink:href="#m26f6df0e9f" x="855.062937" y="290.753063" style="fill: #8c564b; stroke: #8c564b"/>
     <use xlink:href="#m26f6df0e9f" x="881.076923" y="259.262709" style="fill: #8c564b; stroke: #8c564b"/>
     <use xlink:href="#m26f6df0e9f" x="907.090909" y="221.675725" style="fill: #8c564b; stroke: #8c564b"/>
     <use xlink:href="#m26f6df0e9f" x="933.104895" y="225.01116" style="fill: #8c564b; stroke: #8c564b"/>
     <use xlink:href="#m26f6df0e9f" x="959.118881" y="231.391597" style="fill: #8c564b; stroke: #8c564b"/>
     <use xlink:href="#m26f6df0e9f" x="1011.146853" y="198.348223" style="fill: #8c564b; stroke: #8c564b"/>
     <use xlink:href="#m26f6df0e9f" x="1037.160839" y="217.024746" style="fill: #8c564b; stroke: #8c564b"/>
     <use xlink:href="#m26f6df0e9f" x="1063.174825" y="217.963736" style="fill: #8c564b; stroke: #8c564b"/>
     <use xlink:href="#m26f6df0e9f" x="1089.188811" y="223.828115" style="fill: #8c564b; stroke: #8c564b"/>
     <use xlink:href="#m26f6df0e9f" x="1115.202797" y="271.089673" style="fill: #8c564b; stroke: #8c564b"/>
     <use xlink:href="#m26f6df0e9f" x="1141.216783" y="270.036875" style="fill: #8c564b; stroke: #8c564b"/>
     <use xlink:href="#m26f6df0e9f" x="1167.230769" y="213.957359" style="fill: #8c564b; stroke: #8c564b"/>
     <use xlink:href="#m26f6df0e9f" x="1193.244755" y="249.060498" style="fill: #8c564b; stroke: #8c564b"/>
     <use xlink:href="#m26f6df0e9f" x="1219.258741" y="253.729417" style="fill: #8c564b; stroke: #8c564b"/>
     <use xlink:href="#m26f6df0e9f" x="1245.272727" y="244.5316" style="fill: #8c564b; stroke: #8c564b"/>
    </g>
   </g>
   <g id="patch_3">
    <path d="M 180 640.8 
L 180 86.4 
" style="fill: none; stroke: #000000; stroke-width: 0.8; stroke-linejoin: miter; stroke-linecap: square"/>
   </g>
   <g id="patch_4">
    <path d="M 180 640.8 
L 1296 640.8 
" style="fill: none; stroke: #000000; stroke-width: 0.8; stroke-linejoin: miter; stroke-linecap: square"/>
   </g>
   <g id="text_17">
    <!-- Day Average Temperature(℃) vs Date  -->
    <g transform="translate(630 80.4) scale(0.12 -0.12)">
     <defs>
      <path id="SimHei-79" d="M 2900 2925 
L 1750 -100 
Q 1650 -450 1450 -625 
Q 1250 -800 950 -800 
Q 825 -800 712 -787 
Q 600 -775 500 -725 
L 500 -225 
Q 600 -275 700 -300 
Q 800 -325 875 -325 
Q 1075 -325 1150 -262 
Q 1225 -200 1300 25 
L 200 2925 
L 750 2925 
L 1550 725 
L 1575 725 
L 2350 2925 
L 2900 2925 
z
" transform="scale(0.015625)"/>
      <path id="SimHei-20" transform="scale(0.015625)"/>
      <path id="SimHei-41" d="M 3075 125 
L 2475 125 
L 2125 1450 
L 1025 1450 
L 675 125 
L 75 125 
L 1325 4450 
L 1825 4450 
L 3075 125 
z
M 2000 1925 
L 1600 3450 
L 1550 3450 
L 1150 1925 
L 2000 1925 
z
" transform="scale(0.015625)"/>
      <path id="SimHei-76" d="M 2875 2925 
L 1825 75 
L 1275 75 
L 225 2925 
L 750 2925 
L 1525 750 
L 1575 750 
L 2350 2925 
L 2875 2925 
z
" transform="scale(0.015625)"/>
      <path id="SimHei-72" d="M 2500 2425 
Q 2025 2500 1700 2287 
Q 1375 2075 1150 1550 
L 1150 125 
L 650 125 
L 650 2925 
L 1150 2925 
L 1150 2200 
Q 1375 2600 1712 2787 
Q 2050 2975 2500 2975 
L 2500 2425 
z
" transform="scale(0.015625)"/>
      <path id="SimHei-67" d="M 2975 2500 
Q 2800 2550 2637 2562 
Q 2475 2575 2300 2525 
Q 2375 2450 2425 2337 
Q 2475 2225 2475 2000 
Q 2475 1575 2187 1300 
Q 1900 1025 1475 1025 
Q 1375 1025 1212 1062 
Q 1050 1100 950 1150 
Q 875 1100 850 1050 
Q 825 1000 825 925 
Q 825 800 1000 737 
Q 1175 675 1625 675 
Q 2350 675 2612 475 
Q 2875 275 2875 -25 
Q 2875 -425 2487 -612 
Q 2100 -800 1575 -800 
Q 900 -800 575 -625 
Q 250 -450 250 -150 
Q 250 0 375 150 
Q 500 300 700 400 
Q 550 475 462 587 
Q 375 700 375 875 
Q 375 1025 487 1137 
Q 600 1250 750 1325 
Q 625 1450 550 1625 
Q 475 1800 475 2000 
Q 475 2425 762 2700 
Q 1050 2975 1475 2975 
Q 1700 2975 1862 2912 
Q 2025 2850 2150 2725 
Q 2350 2875 2550 2937 
Q 2750 3000 2975 2975 
L 2975 2500 
z
M 1975 2000 
Q 1975 2250 1850 2400 
Q 1725 2550 1475 2550 
Q 1225 2550 1100 2400 
Q 975 2250 975 2000 
Q 975 1750 1100 1600 
Q 1225 1450 1475 1450 
Q 1725 1450 1850 1600 
Q 1975 1750 1975 2000 
z
M 2400 -75 
Q 2400 25 2287 125 
Q 2175 225 1725 225 
Q 1625 225 1450 237 
Q 1275 250 1050 275 
Q 850 200 775 100 
Q 700 0 700 -100 
Q 700 -250 900 -350 
Q 1100 -450 1600 -450 
Q 2025 -450 2212 -337 
Q 2400 -225 2400 -75 
z
" transform="scale(0.015625)"/>
      <path id="SimHei-54" d="M 2850 3925 
L 1850 3925 
L 1850 125 
L 1275 125 
L 1275 3925 
L 275 3925 
L 275 4400 
L 2850 4400 
L 2850 3925 
z
" transform="scale(0.015625)"/>
      <path id="SimHei-6d" d="M 3050 125 
L 2550 125 
L 2550 2150 
Q 2550 2300 2500 2400 
Q 2450 2500 2300 2500 
Q 2125 2500 1975 2312 
Q 1825 2125 1825 1825 
L 1825 125 
L 1325 125 
L 1325 2150 
Q 1325 2300 1275 2400 
Q 1225 2500 1075 2500 
Q 900 2500 750 2312 
Q 600 2125 600 1825 
L 600 125 
L 100 125 
L 100 2925 
L 600 2925 
L 600 2550 
Q 725 2750 900 2862 
Q 1075 2975 1275 2975 
Q 1475 2975 1612 2862 
Q 1750 2750 1800 2550 
Q 1925 2750 2087 2862 
Q 2250 2975 2450 2975 
Q 2750 2975 2900 2812 
Q 3050 2650 3050 2350 
L 3050 125 
z
" transform="scale(0.015625)"/>
      <path id="SimHei-70" d="M 2825 1525 
Q 2825 800 2475 425 
Q 2125 50 1625 50 
Q 1350 50 1150 162 
Q 950 275 800 500 
L 800 -800 
L 300 -800 
L 300 2925 
L 800 2925 
L 800 2550 
Q 950 2775 1150 2875 
Q 1350 2975 1625 2975 
Q 2125 2975 2475 2612 
Q 2825 2250 2825 1525 
z
M 2275 1525 
Q 2275 2000 2087 2262 
Q 1900 2525 1525 2525 
Q 1225 2525 1012 2262 
Q 800 2000 800 1525 
Q 800 1050 1012 775 
Q 1225 500 1525 500 
Q 1900 500 2087 775 
Q 2275 1050 2275 1525 
z
" transform="scale(0.015625)"/>
      <path id="SimHei-28" d="M 2975 -200 
L 2700 -475 
Q 2075 125 1762 775 
Q 1450 1425 1450 2250 
Q 1450 3075 1762 3725 
Q 2075 4375 2700 5000 
L 2975 4725 
Q 2400 4175 2112 3587 
Q 1825 3000 1825 2250 
Q 1825 1500 2112 912 
Q 2400 325 2975 -200 
z
" transform="scale(0.015625)"/>
      <path id="SimHei-2103" d="M 1050 5050 
Q 1500 5025 1675 4525 
L 1675 4300 
Q 1550 3900 1175 3825 
L 975 3825 
Q 500 3875 450 4450 
Q 475 4925 1025 5050 
L 1050 5050 
z
M 1025 4850 
Q 675 4750 650 4450 
Q 675 4125 950 4025 
L 1100 4000 
Q 1500 4125 1475 4475 
L 1475 4500 
Q 1375 4775 1150 4850 
L 1025 4850 
z
M 4025 4425 
Q 5375 4350 5750 3300 
L 5775 3250 
L 5300 3050 
Q 5000 3850 4300 3900 
L 3925 3925 
Q 2500 3850 2450 2025 
Q 2525 775 3475 425 
Q 3675 325 4125 350 
Q 4975 450 5400 1450 
L 5400 1475 
L 5900 1375 
L 5900 1350 
Q 5325 -75 4075 -125 
L 3725 -125 
Q 2400 100 2100 1175 
Q 1975 1525 1975 2100 
Q 2050 3550 2975 4125 
Q 3375 4400 3925 4425 
L 4025 4425 
z
" transform="scale(0.015625)"/>
      <path id="SimHei-29" d="M 1675 2250 
Q 1675 1425 1362 775 
Q 1050 125 425 -475 
L 150 -200 
Q 725 325 1012 912 
Q 1300 1500 1300 2250 
Q 1300 3000 1012 3587 
Q 725 4175 150 4725 
L 425 5000 
Q 1050 4375 1362 3725 
Q 1675 3075 1675 2250 
z
" transform="scale(0.015625)"/>
      <path id="SimHei-73" d="M 2750 900 
Q 2750 500 2437 287 
Q 2125 75 1650 75 
Q 1050 75 725 312 
Q 400 550 400 1000 
L 900 1000 
Q 900 700 1112 600 
Q 1325 500 1625 500 
Q 1925 500 2075 612 
Q 2225 725 2225 900 
Q 2225 1025 2100 1150 
Q 1975 1275 1475 1350 
Q 900 1425 687 1637 
Q 475 1850 475 2200 
Q 475 2500 762 2737 
Q 1050 2975 1600 2975 
Q 2100 2975 2387 2750 
Q 2675 2525 2675 2150 
L 2175 2150 
Q 2175 2375 2012 2462 
Q 1850 2550 1600 2550 
Q 1275 2550 1137 2437 
Q 1000 2325 1000 2175 
Q 1000 2000 1125 1900 
Q 1250 1800 1650 1750 
Q 2300 1650 2525 1437 
Q 2750 1225 2750 900 
z
" transform="scale(0.015625)"/>
     </defs>
     <use xlink:href="#SimHei-44"/>
     <use xlink:href="#SimHei-61" x="50"/>
     <use xlink:href="#SimHei-79" x="100"/>
     <use xlink:href="#SimHei-20" x="150"/>
     <use xlink:href="#SimHei-41" x="200"/>
     <use xlink:href="#SimHei-76" x="250"/>
     <use xlink:href="#SimHei-65" x="300"/>
     <use xlink:href="#SimHei-72" x="350"/>
     <use xlink:href="#SimHei-61" x="400"/>
     <use xlink:href="#SimHei-67" x="450"/>
     <use xlink:href="#SimHei-65" x="500"/>
     <use xlink:href="#SimHei-20" x="550"/>
     <use xlink:href="#SimHei-54" x="600"/>
     <use xlink:href="#SimHei-65" x="650"/>
     <use xlink:href="#SimHei-6d" x="700"/>
     <use xlink:href="#SimHei-70" x="750"/>
     <use xlink:href="#SimHei-65" x="800"/>
     <use xlink:href="#SimHei-72" x="850"/>
     <use xlink:href="#SimHei-61" x="900"/>
     <use xlink:href="#SimHei-74" x="950"/>
     <use xlink:href="#SimHei-75" x="1000"/>
     <use xlink:href="#SimHei-72" x="1050"/>
     <use xlink:href="#SimHei-65" x="1100"/>
     <use xlink:href="#SimHei-28" x="1150"/>
     <use xlink:href="#SimHei-2103" x="1200"/>
     <use xlink:href="#SimHei-29" x="1300"/>
     <use xlink:href="#SimHei-20" x="1350"/>
     <use xlink:href="#SimHei-76" x="1400"/>
     <use xlink:href="#SimHei-73" x="1450"/>
     <use xlink:href="#SimHei-20" x="1500"/>
     <use xlink:href="#SimHei-44" x="1550"/>
     <use xlink:href="#SimHei-61" x="1600"/>
     <use xlink:href="#SimHei-74" x="1650"/>
     <use xlink:href="#SimHei-65" x="1700"/>
     <use xlink:href="#SimHei-20" x="1750"/>
    </g>
   </g>
   <g id="legend_1">
    <g id="patch_5">
     <path d="M 187 190.2125 
L 363 190.2125 
Q 365 190.2125 365 188.2125 
L 365 93.4 
Q 365 91.4 363 91.4 
L 187 91.4 
Q 185 91.4 185 93.4 
L 185 188.2125 
Q 185 190.2125 187 190.2125 
z
" style="fill: #ffffff; opacity: 0.8; stroke: #cccccc; stroke-linejoin: miter"/>
    </g>
    <g id="line2d_35">
     <path d="M 189 101.36875 
L 199 101.36875 
L 209 101.36875 
" style="fill: none; stroke: #1f77b4; stroke-width: 1.5; stroke-linecap: square"/>
     <g>
      <use xlink:href="#m2d541d1567" x="199" y="101.36875" style="fill: #1f77b4; stroke: #1f77b4"/>
     </g>
    </g>
    <g id="text_18">
     <!-- Temperature(℃): 1-floor -->
     <g transform="translate(217 104.86875) scale(0.12 -0.12)">
      <defs>
       <path id="SimHei-3a" d="M 1825 2425 
L 1250 2425 
L 1250 2975 
L 1825 2975 
L 1825 2425 
z
M 1825 125 
L 1250 125 
L 1250 675 
L 1825 675 
L 1825 125 
z
" transform="scale(0.015625)"/>
       <path id="SimHei-66" d="M 2850 3825 
Q 2725 3900 2550 3950 
Q 2375 4000 2100 4000 
Q 1825 4000 1725 3862 
Q 1625 3725 1625 3525 
L 1625 2925 
L 2650 2925 
L 2650 2525 
L 1625 2525 
L 1625 125 
L 1125 125 
L 1125 2525 
L 275 2525 
L 275 2925 
L 1125 2925 
L 1125 3500 
Q 1125 3950 1400 4200 
Q 1675 4450 2125 4450 
Q 2400 4450 2562 4412 
Q 2725 4375 2850 4325 
L 2850 3825 
z
" transform="scale(0.015625)"/>
       <path id="SimHei-6f" d="M 2925 1525 
Q 2925 875 2525 475 
Q 2125 75 1575 75 
Q 1025 75 625 475 
Q 225 875 225 1525 
Q 225 2175 625 2575 
Q 1025 2975 1575 2975 
Q 2125 2975 2525 2575 
Q 2925 2175 2925 1525 
z
M 2375 1525 
Q 2375 2025 2125 2275 
Q 1875 2525 1575 2525 
Q 1275 2525 1025 2275 
Q 775 2025 775 1525 
Q 775 1025 1025 775 
Q 1275 525 1575 525 
Q 1875 525 2125 775 
Q 2375 1025 2375 1525 
z
" transform="scale(0.015625)"/>
      </defs>
      <use xlink:href="#SimHei-54"/>
      <use xlink:href="#SimHei-65" x="50"/>
      <use xlink:href="#SimHei-6d" x="100"/>
      <use xlink:href="#SimHei-70" x="150"/>
      <use xlink:href="#SimHei-65" x="200"/>
      <use xlink:href="#SimHei-72" x="250"/>
      <use xlink:href="#SimHei-61" x="300"/>
      <use xlink:href="#SimHei-74" x="350"/>
      <use xlink:href="#SimHei-75" x="400"/>
      <use xlink:href="#SimHei-72" x="450"/>
      <use xlink:href="#SimHei-65" x="500"/>
      <use xlink:href="#SimHei-28" x="550"/>
      <use xlink:href="#SimHei-2103" x="600"/>
      <use xlink:href="#SimHei-29" x="700"/>
      <use xlink:href="#SimHei-3a" x="750"/>
      <use xlink:href="#SimHei-20" x="800"/>
      <use xlink:href="#SimHei-31" x="850"/>
      <use xlink:href="#SimHei-2d" x="900"/>
      <use xlink:href="#SimHei-66" x="950"/>
      <use xlink:href="#SimHei-6c" x="1000"/>
      <use xlink:href="#SimHei-6f" x="1050"/>
      <use xlink:href="#SimHei-6f" x="1100"/>
      <use xlink:href="#SimHei-72" x="1150"/>
     </g>
    </g>
    <g id="line2d_36">
     <path d="M 189 117.3375 
L 199 117.3375 
L 209 117.3375 
" style="fill: none; stroke: #ff7f0e; stroke-width: 1.5; stroke-linecap: square"/>
     <g>
      <use xlink:href="#m1ff9f77adc" x="199" y="117.3375" style="fill: #ff7f0e; stroke: #ff7f0e"/>
     </g>
    </g>
    <g id="text_19">
     <!-- Temperature(℃): 2-floor -->
     <g transform="translate(217 120.8375) scale(0.12 -0.12)">
      <use xlink:href="#SimHei-54"/>
      <use xlink:href="#SimHei-65" x="50"/>
      <use xlink:href="#SimHei-6d" x="100"/>
      <use xlink:href="#SimHei-70" x="150"/>
      <use xlink:href="#SimHei-65" x="200"/>
      <use xlink:href="#SimHei-72" x="250"/>
      <use xlink:href="#SimHei-61" x="300"/>
      <use xlink:href="#SimHei-74" x="350"/>
      <use xlink:href="#SimHei-75" x="400"/>
      <use xlink:href="#SimHei-72" x="450"/>
      <use xlink:href="#SimHei-65" x="500"/>
      <use xlink:href="#SimHei-28" x="550"/>
      <use xlink:href="#SimHei-2103" x="600"/>
      <use xlink:href="#SimHei-29" x="700"/>
      <use xlink:href="#SimHei-3a" x="750"/>
      <use xlink:href="#SimHei-20" x="800"/>
      <use xlink:href="#SimHei-32" x="850"/>
      <use xlink:href="#SimHei-2d" x="900"/>
      <use xlink:href="#SimHei-66" x="950"/>
      <use xlink:href="#SimHei-6c" x="1000"/>
      <use xlink:href="#SimHei-6f" x="1050"/>
      <use xlink:href="#SimHei-6f" x="1100"/>
      <use xlink:href="#SimHei-72" x="1150"/>
     </g>
    </g>
    <g id="line2d_37">
     <path d="M 189 133.30625 
L 199 133.30625 
L 209 133.30625 
" style="fill: none; stroke: #2ca02c; stroke-width: 1.5; stroke-linecap: square"/>
     <g>
      <use xlink:href="#m289a7aff63" x="199" y="133.30625" style="fill: #2ca02c; stroke: #2ca02c"/>
     </g>
    </g>
    <g id="text_20">
     <!-- Temperature(℃): 3-floor -->
     <g transform="translate(217 136.80625) scale(0.12 -0.12)">
      <use xlink:href="#SimHei-54"/>
      <use xlink:href="#SimHei-65" x="50"/>
      <use xlink:href="#SimHei-6d" x="100"/>
      <use xlink:href="#SimHei-70" x="150"/>
      <use xlink:href="#SimHei-65" x="200"/>
      <use xlink:href="#SimHei-72" x="250"/>
      <use xlink:href="#SimHei-61" x="300"/>
      <use xlink:href="#SimHei-74" x="350"/>
      <use xlink:href="#SimHei-75" x="400"/>
      <use xlink:href="#SimHei-72" x="450"/>
      <use xlink:href="#SimHei-65" x="500"/>
      <use xlink:href="#SimHei-28" x="550"/>
      <use xlink:href="#SimHei-2103" x="600"/>
      <use xlink:href="#SimHei-29" x="700"/>
      <use xlink:href="#SimHei-3a" x="750"/>
      <use xlink:href="#SimHei-20" x="800"/>
      <use xlink:href="#SimHei-33" x="850"/>
      <use xlink:href="#SimHei-2d" x="900"/>
      <use xlink:href="#SimHei-66" x="950"/>
      <use xlink:href="#SimHei-6c" x="1000"/>
      <use xlink:href="#SimHei-6f" x="1050"/>
      <use xlink:href="#SimHei-6f" x="1100"/>
      <use xlink:href="#SimHei-72" x="1150"/>
     </g>
    </g>
    <g id="line2d_38">
     <path d="M 189 149.275 
L 199 149.275 
L 209 149.275 
" style="fill: none; stroke: #d62728; stroke-width: 1.5; stroke-linecap: square"/>
     <g>
      <use xlink:href="#m6cc76be816" x="199" y="149.275" style="fill: #d62728; stroke: #d62728"/>
     </g>
    </g>
    <g id="text_21">
     <!-- Temperature(℃): 4-floor -->
     <g transform="translate(217 152.775) scale(0.12 -0.12)">
      <use xlink:href="#SimHei-54"/>
      <use xlink:href="#SimHei-65" x="50"/>
      <use xlink:href="#SimHei-6d" x="100"/>
      <use xlink:href="#SimHei-70" x="150"/>
      <use xlink:href="#SimHei-65" x="200"/>
      <use xlink:href="#SimHei-72" x="250"/>
      <use xlink:href="#SimHei-61" x="300"/>
      <use xlink:href="#SimHei-74" x="350"/>
      <use xlink:href="#SimHei-75" x="400"/>
      <use xlink:href="#SimHei-72" x="450"/>
      <use xlink:href="#SimHei-65" x="500"/>
      <use xlink:href="#SimHei-28" x="550"/>
      <use xlink:href="#SimHei-2103" x="600"/>
      <use xlink:href="#SimHei-29" x="700"/>
      <use xlink:href="#SimHei-3a" x="750"/>
      <use xlink:href="#SimHei-20" x="800"/>
      <use xlink:href="#SimHei-34" x="850"/>
      <use xlink:href="#SimHei-2d" x="900"/>
      <use xlink:href="#SimHei-66" x="950"/>
      <use xlink:href="#SimHei-6c" x="1000"/>
      <use xlink:href="#SimHei-6f" x="1050"/>
      <use xlink:href="#SimHei-6f" x="1100"/>
      <use xlink:href="#SimHei-72" x="1150"/>
     </g>
    </g>
    <g id="line2d_39">
     <path d="M 189 165.24375 
L 199 165.24375 
L 209 165.24375 
" style="fill: none; stroke: #9467bd; stroke-width: 1.5; stroke-linecap: square"/>
     <g>
      <use xlink:href="#m80cd4da3ff" x="199" y="165.24375" style="fill: #9467bd; stroke: #9467bd"/>
     </g>
    </g>
    <g id="text_22">
     <!-- Temperature(℃): 5-floor -->
     <g transform="translate(217 168.74375) scale(0.12 -0.12)">
      <use xlink:href="#SimHei-54"/>
      <use xlink:href="#SimHei-65" x="50"/>
      <use xlink:href="#SimHei-6d" x="100"/>
      <use xlink:href="#SimHei-70" x="150"/>
      <use xlink:href="#SimHei-65" x="200"/>
      <use xlink:href="#SimHei-72" x="250"/>
      <use xlink:href="#SimHei-61" x="300"/>
      <use xlink:href="#SimHei-74" x="350"/>
      <use xlink:href="#SimHei-75" x="400"/>
      <use xlink:href="#SimHei-72" x="450"/>
      <use xlink:href="#SimHei-65" x="500"/>
      <use xlink:href="#SimHei-28" x="550"/>
      <use xlink:href="#SimHei-2103" x="600"/>
      <use xlink:href="#SimHei-29" x="700"/>
      <use xlink:href="#SimHei-3a" x="750"/>
      <use xlink:href="#SimHei-20" x="800"/>
      <use xlink:href="#SimHei-35" x="850"/>
      <use xlink:href="#SimHei-2d" x="900"/>
      <use xlink:href="#SimHei-66" x="950"/>
      <use xlink:href="#SimHei-6c" x="1000"/>
      <use xlink:href="#SimHei-6f" x="1050"/>
      <use xlink:href="#SimHei-6f" x="1100"/>
      <use xlink:href="#SimHei-72" x="1150"/>
     </g>
    </g>
    <g id="line2d_40">
     <path d="M 189 181.2125 
L 199 181.2125 
L 209 181.2125 
" style="fill: none; stroke: #8c564b; stroke-width: 1.5; stroke-linecap: square"/>
     <g>
      <use xlink:href="#m26f6df0e9f" x="199" y="181.2125" style="fill: #8c564b; stroke: #8c564b"/>
     </g>
    </g>
    <g id="text_23">
     <!-- Temperature(℃): Shaft -->
     <g transform="translate(217 184.7125) scale(0.12 -0.12)">
      <defs>
       <path id="SimHei-53" d="M 2900 1325 
Q 2900 750 2537 412 
Q 2175 75 1550 75 
Q 925 75 575 425 
Q 225 775 225 1300 
L 225 1475 
L 800 1475 
L 800 1325 
Q 800 950 1025 750 
Q 1250 550 1550 550 
Q 1950 550 2137 762 
Q 2325 975 2325 1275 
Q 2325 1525 2100 1737 
Q 1875 1950 1450 2125 
Q 850 2350 587 2625 
Q 325 2900 325 3275 
Q 325 3800 687 4125 
Q 1050 4450 1550 4450 
Q 2200 4450 2487 4062 
Q 2775 3675 2775 3225 
L 2200 3225 
Q 2225 3500 2050 3725 
Q 1875 3950 1550 3950 
Q 1250 3950 1075 3787 
Q 900 3625 900 3350 
Q 900 3125 1037 2962 
Q 1175 2800 1750 2575 
Q 2300 2350 2600 2037 
Q 2900 1725 2900 1325 
z
" transform="scale(0.015625)"/>
       <path id="SimHei-68" d="M 2800 125 
L 2300 125 
L 2300 1925 
Q 2300 2225 2150 2400 
Q 2000 2575 1750 2575 
Q 1425 2575 1137 2237 
Q 850 1900 850 1400 
L 850 125 
L 350 125 
L 350 4400 
L 850 4400 
L 850 2400 
Q 1050 2675 1287 2825 
Q 1525 2975 1900 2975 
Q 2350 2975 2575 2725 
Q 2800 2475 2800 2100 
L 2800 125 
z
" transform="scale(0.015625)"/>
      </defs>
      <use xlink:href="#SimHei-54"/>
      <use xlink:href="#SimHei-65" x="50"/>
      <use xlink:href="#SimHei-6d" x="100"/>
      <use xlink:href="#SimHei-70" x="150"/>
      <use xlink:href="#SimHei-65" x="200"/>
      <use xlink:href="#SimHei-72" x="250"/>
      <use xlink:href="#SimHei-61" x="300"/>
      <use xlink:href="#SimHei-74" x="350"/>
      <use xlink:href="#SimHei-75" x="400"/>
      <use xlink:href="#SimHei-72" x="450"/>
      <use xlink:href="#SimHei-65" x="500"/>
      <use xlink:href="#SimHei-28" x="550"/>
      <use xlink:href="#SimHei-2103" x="600"/>
      <use xlink:href="#SimHei-29" x="700"/>
      <use xlink:href="#SimHei-3a" x="750"/>
      <use xlink:href="#SimHei-20" x="800"/>
      <use xlink:href="#SimHei-53" x="850"/>
      <use xlink:href="#SimHei-68" x="900"/>
      <use xlink:href="#SimHei-61" x="950"/>
      <use xlink:href="#SimHei-66" x="1000"/>
      <use xlink:href="#SimHei-74" x="1050"/>
     </g>
    </g>
   </g>
  </g>
 </g>
 <defs>
  <clipPath id="pb84103b8fa">
   <rect x="180" y="86.4" width="1116" height="554.4"/>
  </clipPath>
 </defs>
</svg>
