<?xml version="1.0" encoding="utf-8" standalone="no"?>
<!DOCTYPE svg PUBLIC "-//W3C//DTD SVG 1.1//EN"
  "http://www.w3.org/Graphics/SVG/1.1/DTD/svg11.dtd">
<svg xmlns:xlink="http://www.w3.org/1999/xlink" width="1440pt" height="720pt" viewBox="0 0 1440 720" xmlns="http://www.w3.org/2000/svg" version="1.1">
 <metadata>
  <rdf:RDF xmlns:dc="http://purl.org/dc/elements/1.1/" xmlns:cc="http://creativecommons.org/ns#" xmlns:rdf="http://www.w3.org/1999/02/22-rdf-syntax-ns#">
   <cc:Work>
    <dc:type rdf:resource="http://purl.org/dc/dcmitype/StillImage"/>
    <dc:date>2023-01-28T12:50:07.333277</dc:date>
    <dc:format>image/svg+xml</dc:format>
    <dc:creator>
     <cc:Agent>
      <dc:title>Matplotlib v3.6.2, https://matplotlib.org/</dc:title>
     </cc:Agent>
    </dc:creator>
   </cc:Work>
  </rdf:RDF>
 </metadata>
 <defs>
  <style type="text/css">*{stroke-linejoin: round; stroke-linecap: butt}</style>
 </defs>
 <g id="figure_1">
  <g id="patch_1">
   <path d="M 0 720 
L 1440 720 
L 1440 0 
L 0 0 
z
" style="fill: #ffffff"/>
  </g>
  <g id="axes_1">
   <g id="patch_2">
    <path d="M 180 640.8 
L 1296 640.8 
L 1296 86.4 
L 180 86.4 
z
" style="fill: #ffffff"/>
   </g>
   <g id="matplotlib.axis_1">
    <g id="xtick_1">
     <g id="line2d_1">
      <path d="M 312.141414 640.8 
L 312.141414 86.4 
" clip-path="url(#p6f611ad176)" style="fill: none; stroke-dasharray: 2.96,1.28; stroke-dashoffset: 0; stroke: #b0b0b0; stroke-width: 0.8"/>
     </g>
     <g id="line2d_2">
      <defs>
       <path id="ma9e438a0fc" d="M 0 0 
L 0 3.5 
" style="stroke: #000000; stroke-width: 0.8"/>
      </defs>
      <g>
       <use xlink:href="#ma9e438a0fc" x="312.141414" y="640.8" style="stroke: #000000; stroke-width: 0.8"/>
      </g>
     </g>
     <g id="text_1">
      <!-- 09:43:20 -->
      <g transform="translate(292.141414 654.675) scale(0.1 -0.1)">
       <defs>
        <path id="SimHei-30" d="M 225 2537 
Q 250 3200 412 3587 
Q 575 3975 875 4225 
Q 1175 4475 1612 4475 
Q 2050 4475 2375 4112 
Q 2700 3750 2800 3200 
Q 2900 2650 2862 1937 
Q 2825 1225 2612 775 
Q 2400 325 1975 150 
Q 1550 -25 1125 187 
Q 700 400 525 750 
Q 350 1100 275 1487 
Q 200 1875 225 2537 
z
M 750 2687 
Q 675 2000 800 1462 
Q 925 925 1212 700 
Q 1500 475 1800 612 
Q 2100 750 2237 1162 
Q 2375 1575 2375 2062 
Q 2375 2550 2337 2950 
Q 2300 3350 2112 3675 
Q 1925 4000 1612 4012 
Q 1300 4025 1062 3700 
Q 825 3375 750 2687 
z
" transform="scale(0.015625)"/>
        <path id="SimHei-39" d="M 800 75 
Q 1350 1000 1700 1750 
Q 1075 1650 662 1912 
Q 250 2175 162 2625 
Q 75 3075 175 3437 
Q 275 3800 487 4037 
Q 700 4275 1000 4375 
Q 1300 4475 1537 4475 
Q 1775 4475 2025 4375 
Q 2275 4275 2475 4075 
Q 2675 3875 2750 3662 
Q 2825 3450 2825 3112 
Q 2825 2775 2575 2250 
Q 2325 1725 1350 75 
L 800 75 
z
M 662 2875 
Q 700 2550 937 2337 
Q 1175 2125 1450 2150 
Q 1725 2175 1887 2300 
Q 2050 2425 2200 2725 
Q 2300 3100 2250 3362 
Q 2200 3625 1987 3800 
Q 1775 3975 1525 3975 
Q 1375 4000 1137 3900 
Q 900 3800 762 3500 
Q 625 3200 662 2875 
z
" transform="scale(0.015625)"/>
        <path id="SimHei-3a" d="M 1825 2425 
L 1250 2425 
L 1250 2975 
L 1825 2975 
L 1825 2425 
z
M 1825 125 
L 1250 125 
L 1250 675 
L 1825 675 
L 1825 125 
z
" transform="scale(0.015625)"/>
        <path id="SimHei-34" d="M 2000 1100 
L 75 1100 
L 75 1525 
L 2100 4450 
L 2475 4450 
L 2475 1525 
L 3075 1525 
L 3075 1100 
L 2475 1100 
L 2475 150 
L 2000 150 
L 2000 1100 
z
M 2000 1525 
L 2000 3500 
L 600 1525 
L 2000 1525 
z
" transform="scale(0.015625)"/>
        <path id="SimHei-33" d="M 250 1225 
L 700 1300 
Q 800 975 1025 762 
Q 1250 550 1587 562 
Q 1925 575 2125 837 
Q 2325 1100 2300 1437 
Q 2275 1775 2037 1962 
Q 1800 2150 1275 2225 
L 1275 2550 
Q 1800 2600 2037 2825 
Q 2275 3050 2250 3412 
Q 2225 3775 1925 3937 
Q 1625 4100 1287 3975 
Q 950 3850 750 3275 
L 300 3350 
Q 450 3800 712 4100 
Q 975 4400 1425 4450 
Q 1875 4500 2212 4337 
Q 2550 4175 2687 3837 
Q 2825 3500 2725 3100 
Q 2625 2700 2150 2400 
Q 2500 2250 2687 1950 
Q 2875 1650 2812 1162 
Q 2750 675 2375 375 
Q 2000 75 1525 87 
Q 1050 100 700 387 
Q 350 675 250 1225 
z
" transform="scale(0.015625)"/>
        <path id="SimHei-32" d="M 300 250 
Q 325 625 650 925 
Q 975 1225 1475 1862 
Q 1975 2500 2125 2850 
Q 2275 3200 2237 3450 
Q 2200 3700 2000 3862 
Q 1800 4025 1537 4000 
Q 1275 3975 1037 3800 
Q 800 3625 675 3275 
L 200 3350 
Q 400 3925 712 4187 
Q 1025 4450 1450 4475 
Q 1700 4500 1900 4462 
Q 2100 4425 2312 4287 
Q 2525 4150 2662 3875 
Q 2800 3600 2762 3212 
Q 2725 2825 2375 2287 
Q 2025 1750 1025 600 
L 2825 600 
L 2825 150 
L 300 150 
L 300 250 
z
" transform="scale(0.015625)"/>
       </defs>
       <use xlink:href="#SimHei-30"/>
       <use xlink:href="#SimHei-39" x="50"/>
       <use xlink:href="#SimHei-3a" x="100"/>
       <use xlink:href="#SimHei-34" x="150"/>
       <use xlink:href="#SimHei-33" x="200"/>
       <use xlink:href="#SimHei-3a" x="250"/>
       <use xlink:href="#SimHei-32" x="300"/>
       <use xlink:href="#SimHei-30" x="350"/>
      </g>
     </g>
    </g>
    <g id="xtick_2">
     <g id="line2d_3">
      <path d="M 468.707071 640.8 
L 468.707071 86.4 
" clip-path="url(#p6f611ad176)" style="fill: none; stroke-dasharray: 2.96,1.28; stroke-dashoffset: 0; stroke: #b0b0b0; stroke-width: 0.8"/>
     </g>
     <g id="line2d_4">
      <g>
       <use xlink:href="#ma9e438a0fc" x="468.707071" y="640.8" style="stroke: #000000; stroke-width: 0.8"/>
      </g>
     </g>
     <g id="text_2">
      <!-- 11:06:40 -->
      <g transform="translate(448.707071 654.675) scale(0.1 -0.1)">
       <defs>
        <path id="SimHei-31" d="M 1400 3600 
Q 1075 3275 575 2975 
L 575 3450 
Q 1200 3875 1600 4450 
L 1900 4450 
L 1900 150 
L 1400 150 
L 1400 3600 
z
" transform="scale(0.015625)"/>
        <path id="SimHei-36" d="M 250 1612 
Q 275 1975 387 2225 
Q 500 2475 725 2850 
L 1750 4450 
L 2325 4450 
L 1275 2800 
Q 1950 2975 2350 2750 
Q 2750 2525 2887 2237 
Q 3025 1950 3037 1612 
Q 3050 1275 2937 950 
Q 2825 625 2537 362 
Q 2250 100 1737 75 
Q 1225 50 862 262 
Q 500 475 362 862 
Q 225 1250 250 1612 
z
M 1025 787 
Q 1250 550 1625 525 
Q 2000 500 2250 775 
Q 2500 1050 2500 1575 
Q 2500 2100 2187 2300 
Q 1875 2500 1487 2450 
Q 1100 2400 925 2075 
Q 750 1750 775 1387 
Q 800 1025 1025 787 
z
" transform="scale(0.015625)"/>
       </defs>
       <use xlink:href="#SimHei-31"/>
       <use xlink:href="#SimHei-31" x="50"/>
       <use xlink:href="#SimHei-3a" x="100"/>
       <use xlink:href="#SimHei-30" x="150"/>
       <use xlink:href="#SimHei-36" x="200"/>
       <use xlink:href="#SimHei-3a" x="250"/>
       <use xlink:href="#SimHei-34" x="300"/>
       <use xlink:href="#SimHei-30" x="350"/>
      </g>
     </g>
    </g>
    <g id="xtick_3">
     <g id="line2d_5">
      <path d="M 625.272727 640.8 
L 625.272727 86.4 
" clip-path="url(#p6f611ad176)" style="fill: none; stroke-dasharray: 2.96,1.28; stroke-dashoffset: 0; stroke: #b0b0b0; stroke-width: 0.8"/>
     </g>
     <g id="line2d_6">
      <g>
       <use xlink:href="#ma9e438a0fc" x="625.272727" y="640.8" style="stroke: #000000; stroke-width: 0.8"/>
      </g>
     </g>
     <g id="text_3">
      <!-- 12:30 -->
      <g transform="translate(612.772727 654.675) scale(0.1 -0.1)">
       <use xlink:href="#SimHei-31"/>
       <use xlink:href="#SimHei-32" x="50"/>
       <use xlink:href="#SimHei-3a" x="100"/>
       <use xlink:href="#SimHei-33" x="150"/>
       <use xlink:href="#SimHei-30" x="200"/>
      </g>
     </g>
    </g>
    <g id="xtick_4">
     <g id="line2d_7">
      <path d="M 781.838384 640.8 
L 781.838384 86.4 
" clip-path="url(#p6f611ad176)" style="fill: none; stroke-dasharray: 2.96,1.28; stroke-dashoffset: 0; stroke: #b0b0b0; stroke-width: 0.8"/>
     </g>
     <g id="line2d_8">
      <g>
       <use xlink:href="#ma9e438a0fc" x="781.838384" y="640.8" style="stroke: #000000; stroke-width: 0.8"/>
      </g>
     </g>
     <g id="text_4">
      <!-- 13:53:20 -->
      <g transform="translate(761.838384 654.675) scale(0.1 -0.1)">
       <defs>
        <path id="SimHei-35" d="M 550 1325 
Q 725 650 1150 575 
Q 1575 500 1837 662 
Q 2100 825 2212 1087 
Q 2325 1350 2312 1675 
Q 2300 2000 2137 2225 
Q 1975 2450 1725 2525 
Q 1475 2600 1162 2525 
Q 850 2450 650 2175 
L 225 2225 
Q 275 2375 700 4375 
L 2675 4375 
L 2675 3925 
L 1075 3925 
Q 950 3250 825 2850 
Q 1200 3025 1525 3012 
Q 1850 3000 2150 2862 
Q 2450 2725 2587 2487 
Q 2725 2250 2787 2012 
Q 2850 1775 2837 1500 
Q 2825 1225 2725 937 
Q 2625 650 2425 462 
Q 2225 275 1937 162 
Q 1650 50 1275 75 
Q 900 100 562 350 
Q 225 600 100 1200 
L 550 1325 
z
" transform="scale(0.015625)"/>
       </defs>
       <use xlink:href="#SimHei-31"/>
       <use xlink:href="#SimHei-33" x="50"/>
       <use xlink:href="#SimHei-3a" x="100"/>
       <use xlink:href="#SimHei-35" x="150"/>
       <use xlink:href="#SimHei-33" x="200"/>
       <use xlink:href="#SimHei-3a" x="250"/>
       <use xlink:href="#SimHei-32" x="300"/>
       <use xlink:href="#SimHei-30" x="350"/>
      </g>
     </g>
    </g>
    <g id="xtick_5">
     <g id="line2d_9">
      <path d="M 938.40404 640.8 
L 938.40404 86.4 
" clip-path="url(#p6f611ad176)" style="fill: none; stroke-dasharray: 2.96,1.28; stroke-dashoffset: 0; stroke: #b0b0b0; stroke-width: 0.8"/>
     </g>
     <g id="line2d_10">
      <g>
       <use xlink:href="#ma9e438a0fc" x="938.40404" y="640.8" style="stroke: #000000; stroke-width: 0.8"/>
      </g>
     </g>
     <g id="text_5">
      <!-- 15:16:40 -->
      <g transform="translate(918.40404 654.675) scale(0.1 -0.1)">
       <use xlink:href="#SimHei-31"/>
       <use xlink:href="#SimHei-35" x="50"/>
       <use xlink:href="#SimHei-3a" x="100"/>
       <use xlink:href="#SimHei-31" x="150"/>
       <use xlink:href="#SimHei-36" x="200"/>
       <use xlink:href="#SimHei-3a" x="250"/>
       <use xlink:href="#SimHei-34" x="300"/>
       <use xlink:href="#SimHei-30" x="350"/>
      </g>
     </g>
    </g>
    <g id="xtick_6">
     <g id="line2d_11">
      <path d="M 1094.969697 640.8 
L 1094.969697 86.4 
" clip-path="url(#p6f611ad176)" style="fill: none; stroke-dasharray: 2.96,1.28; stroke-dashoffset: 0; stroke: #b0b0b0; stroke-width: 0.8"/>
     </g>
     <g id="line2d_12">
      <g>
       <use xlink:href="#ma9e438a0fc" x="1094.969697" y="640.8" style="stroke: #000000; stroke-width: 0.8"/>
      </g>
     </g>
     <g id="text_6">
      <!-- 16:40 -->
      <g transform="translate(1082.469697 654.675) scale(0.1 -0.1)">
       <use xlink:href="#SimHei-31"/>
       <use xlink:href="#SimHei-36" x="50"/>
       <use xlink:href="#SimHei-3a" x="100"/>
       <use xlink:href="#SimHei-34" x="150"/>
       <use xlink:href="#SimHei-30" x="200"/>
      </g>
     </g>
    </g>
    <g id="xtick_7">
     <g id="line2d_13">
      <path d="M 1251.535354 640.8 
L 1251.535354 86.4 
" clip-path="url(#p6f611ad176)" style="fill: none; stroke-dasharray: 2.96,1.28; stroke-dashoffset: 0; stroke: #b0b0b0; stroke-width: 0.8"/>
     </g>
     <g id="line2d_14">
      <g>
       <use xlink:href="#ma9e438a0fc" x="1251.535354" y="640.8" style="stroke: #000000; stroke-width: 0.8"/>
      </g>
     </g>
     <g id="text_7">
      <!-- 18:03:20 -->
      <g transform="translate(1231.535354 654.675) scale(0.1 -0.1)">
       <defs>
        <path id="SimHei-38" d="M 175 1375 
Q 175 1675 325 1962 
Q 475 2250 825 2425 
Q 525 2600 425 2812 
Q 325 3025 312 3300 
Q 300 3575 387 3775 
Q 475 3975 650 4150 
Q 825 4325 1037 4387 
Q 1250 4450 1500 4450 
Q 1750 4450 1950 4400 
Q 2150 4350 2375 4187 
Q 2600 4025 2700 3725 
Q 2800 3425 2687 3025 
Q 2575 2625 2100 2400 
Q 2525 2275 2700 2012 
Q 2875 1750 2875 1375 
Q 2875 1000 2762 775 
Q 2650 550 2512 400 
Q 2375 250 2137 162 
Q 1900 75 1537 75 
Q 1175 75 912 162 
Q 650 250 475 425 
Q 300 600 237 837 
Q 175 1075 175 1375 
z
M 687 1400 
Q 675 1100 787 875 
Q 900 650 1200 587 
Q 1500 525 1825 600 
Q 2150 675 2275 950 
Q 2400 1225 2362 1500 
Q 2325 1775 2050 1962 
Q 1775 2150 1450 2125 
Q 1125 2100 912 1900 
Q 700 1700 687 1400 
z
M 775 3350 
Q 775 3100 950 2875 
Q 1125 2650 1500 2650 
Q 1875 2650 2062 2875 
Q 2250 3100 2237 3412 
Q 2225 3725 2012 3875 
Q 1800 4025 1437 4000 
Q 1075 3975 925 3787 
Q 775 3600 775 3350 
z
" transform="scale(0.015625)"/>
       </defs>
       <use xlink:href="#SimHei-31"/>
       <use xlink:href="#SimHei-38" x="50"/>
       <use xlink:href="#SimHei-3a" x="100"/>
       <use xlink:href="#SimHei-30" x="150"/>
       <use xlink:href="#SimHei-33" x="200"/>
       <use xlink:href="#SimHei-3a" x="250"/>
       <use xlink:href="#SimHei-32" x="300"/>
       <use xlink:href="#SimHei-30" x="350"/>
      </g>
     </g>
    </g>
    <g id="text_8">
     <!-- Time -->
     <g transform="translate(726 668.175) scale(0.12 -0.12)">
      <defs>
       <path id="SimHei-54" d="M 2850 3925 
L 1850 3925 
L 1850 125 
L 1275 125 
L 1275 3925 
L 275 3925 
L 275 4400 
L 2850 4400 
L 2850 3925 
z
" transform="scale(0.015625)"/>
       <path id="SimHei-69" d="M 1800 3725 
L 1300 3725 
L 1300 4375 
L 1800 4375 
L 1800 3725 
z
M 1800 125 
L 1300 125 
L 1300 2925 
L 1800 2925 
L 1800 125 
z
" transform="scale(0.015625)"/>
       <path id="SimHei-6d" d="M 3050 125 
L 2550 125 
L 2550 2150 
Q 2550 2300 2500 2400 
Q 2450 2500 2300 2500 
Q 2125 2500 1975 2312 
Q 1825 2125 1825 1825 
L 1825 125 
L 1325 125 
L 1325 2150 
Q 1325 2300 1275 2400 
Q 1225 2500 1075 2500 
Q 900 2500 750 2312 
Q 600 2125 600 1825 
L 600 125 
L 100 125 
L 100 2925 
L 600 2925 
L 600 2550 
Q 725 2750 900 2862 
Q 1075 2975 1275 2975 
Q 1475 2975 1612 2862 
Q 1750 2750 1800 2550 
Q 1925 2750 2087 2862 
Q 2250 2975 2450 2975 
Q 2750 2975 2900 2812 
Q 3050 2650 3050 2350 
L 3050 125 
z
" transform="scale(0.015625)"/>
       <path id="SimHei-65" d="M 2850 1075 
Q 2800 625 2450 350 
Q 2100 75 1625 75 
Q 1025 75 637 462 
Q 250 850 250 1525 
Q 250 2200 637 2587 
Q 1025 2975 1625 2975 
Q 2150 2975 2487 2637 
Q 2825 2300 2825 1525 
L 800 1525 
Q 800 975 1037 750 
Q 1275 525 1625 525 
Q 1900 525 2075 662 
Q 2250 800 2300 1075 
L 2850 1075 
z
M 2250 1925 
Q 2200 2275 2025 2412 
Q 1850 2550 1575 2550 
Q 1325 2550 1125 2412 
Q 925 2275 825 1925 
L 2250 1925 
z
" transform="scale(0.015625)"/>
      </defs>
      <use xlink:href="#SimHei-54"/>
      <use xlink:href="#SimHei-69" x="50"/>
      <use xlink:href="#SimHei-6d" x="100"/>
      <use xlink:href="#SimHei-65" x="150"/>
     </g>
    </g>
   </g>
   <g id="matplotlib.axis_2">
    <g id="ytick_1">
     <g id="line2d_15">
      <path d="M 180 591.309779 
L 1296 591.309779 
" clip-path="url(#p6f611ad176)" style="fill: none; stroke-dasharray: 2.96,1.28; stroke-dashoffset: 0; stroke: #b0b0b0; stroke-width: 0.8"/>
     </g>
     <g id="line2d_16">
      <defs>
       <path id="m69b725e794" d="M 0 0 
L -3.5 0 
" style="stroke: #000000; stroke-width: 0.8"/>
      </defs>
      <g>
       <use xlink:href="#m69b725e794" x="180" y="591.309779" style="stroke: #000000; stroke-width: 0.8"/>
      </g>
     </g>
     <g id="text_9">
      <!-- 28 -->
      <g transform="translate(163 594.747279) scale(0.1 -0.1)">
       <use xlink:href="#SimHei-32"/>
       <use xlink:href="#SimHei-38" x="50"/>
      </g>
     </g>
    </g>
    <g id="ytick_2">
     <g id="line2d_17">
      <path d="M 180 502.474634 
L 1296 502.474634 
" clip-path="url(#p6f611ad176)" style="fill: none; stroke-dasharray: 2.96,1.28; stroke-dashoffset: 0; stroke: #b0b0b0; stroke-width: 0.8"/>
     </g>
     <g id="line2d_18">
      <g>
       <use xlink:href="#m69b725e794" x="180" y="502.474634" style="stroke: #000000; stroke-width: 0.8"/>
      </g>
     </g>
     <g id="text_10">
      <!-- 30 -->
      <g transform="translate(163 505.912134) scale(0.1 -0.1)">
       <use xlink:href="#SimHei-33"/>
       <use xlink:href="#SimHei-30" x="50"/>
      </g>
     </g>
    </g>
    <g id="ytick_3">
     <g id="line2d_19">
      <path d="M 180 413.63949 
L 1296 413.63949 
" clip-path="url(#p6f611ad176)" style="fill: none; stroke-dasharray: 2.96,1.28; stroke-dashoffset: 0; stroke: #b0b0b0; stroke-width: 0.8"/>
     </g>
     <g id="line2d_20">
      <g>
       <use xlink:href="#m69b725e794" x="180" y="413.63949" style="stroke: #000000; stroke-width: 0.8"/>
      </g>
     </g>
     <g id="text_11">
      <!-- 32 -->
      <g transform="translate(163 417.07699) scale(0.1 -0.1)">
       <use xlink:href="#SimHei-33"/>
       <use xlink:href="#SimHei-32" x="50"/>
      </g>
     </g>
    </g>
    <g id="ytick_4">
     <g id="line2d_21">
      <path d="M 180 324.804346 
L 1296 324.804346 
" clip-path="url(#p6f611ad176)" style="fill: none; stroke-dasharray: 2.96,1.28; stroke-dashoffset: 0; stroke: #b0b0b0; stroke-width: 0.8"/>
     </g>
     <g id="line2d_22">
      <g>
       <use xlink:href="#m69b725e794" x="180" y="324.804346" style="stroke: #000000; stroke-width: 0.8"/>
      </g>
     </g>
     <g id="text_12">
      <!-- 34 -->
      <g transform="translate(163 328.241846) scale(0.1 -0.1)">
       <use xlink:href="#SimHei-33"/>
       <use xlink:href="#SimHei-34" x="50"/>
      </g>
     </g>
    </g>
    <g id="ytick_5">
     <g id="line2d_23">
      <path d="M 180 235.969202 
L 1296 235.969202 
" clip-path="url(#p6f611ad176)" style="fill: none; stroke-dasharray: 2.96,1.28; stroke-dashoffset: 0; stroke: #b0b0b0; stroke-width: 0.8"/>
     </g>
     <g id="line2d_24">
      <g>
       <use xlink:href="#m69b725e794" x="180" y="235.969202" style="stroke: #000000; stroke-width: 0.8"/>
      </g>
     </g>
     <g id="text_13">
      <!-- 36 -->
      <g transform="translate(163 239.406702) scale(0.1 -0.1)">
       <use xlink:href="#SimHei-33"/>
       <use xlink:href="#SimHei-36" x="50"/>
      </g>
     </g>
    </g>
    <g id="ytick_6">
     <g id="line2d_25">
      <path d="M 180 147.134058 
L 1296 147.134058 
" clip-path="url(#p6f611ad176)" style="fill: none; stroke-dasharray: 2.96,1.28; stroke-dashoffset: 0; stroke: #b0b0b0; stroke-width: 0.8"/>
     </g>
     <g id="line2d_26">
      <g>
       <use xlink:href="#m69b725e794" x="180" y="147.134058" style="stroke: #000000; stroke-width: 0.8"/>
      </g>
     </g>
     <g id="text_14">
      <!-- 38 -->
      <g transform="translate(163 150.571558) scale(0.1 -0.1)">
       <use xlink:href="#SimHei-33"/>
       <use xlink:href="#SimHei-38" x="50"/>
      </g>
     </g>
    </g>
    <g id="text_15">
     <!-- Value -->
     <g transform="translate(157.5 378.6) rotate(-90) scale(0.12 -0.12)">
      <defs>
       <path id="SimHei-56" d="M 3050 4400 
L 1800 75 
L 1300 75 
L 50 4400 
L 650 4400 
L 1525 1125 
L 1575 1125 
L 2450 4400 
L 3050 4400 
z
" transform="scale(0.015625)"/>
       <path id="SimHei-61" d="M 2875 125 
L 2275 125 
Q 2225 175 2200 262 
Q 2175 350 2175 475 
Q 2000 275 1750 175 
Q 1500 75 1225 75 
Q 825 75 550 275 
Q 275 475 275 850 
Q 275 1225 525 1450 
Q 775 1675 1300 1750 
Q 1650 1800 1912 1875 
Q 2175 1950 2175 2075 
Q 2175 2225 2062 2375 
Q 1950 2525 1575 2525 
Q 1275 2525 1137 2412 
Q 1000 2300 950 2100 
L 400 2100 
Q 450 2500 762 2737 
Q 1075 2975 1575 2975 
Q 2125 2975 2400 2725 
Q 2675 2475 2675 2025 
L 2675 650 
Q 2675 500 2725 375 
Q 2775 250 2875 125 
z
M 2175 1050 
L 2175 1550 
Q 2025 1500 1887 1462 
Q 1750 1425 1425 1375 
Q 1050 1325 937 1200 
Q 825 1075 825 900 
Q 825 750 937 637 
Q 1050 525 1275 525 
Q 1500 525 1762 650 
Q 2025 775 2175 1050 
z
" transform="scale(0.015625)"/>
       <path id="SimHei-6c" d="M 1825 125 
L 1325 125 
L 1325 4400 
L 1825 4400 
L 1825 125 
z
" transform="scale(0.015625)"/>
       <path id="SimHei-75" d="M 2800 125 
L 2300 125 
L 2300 650 
Q 2100 375 1862 225 
Q 1625 75 1250 75 
Q 800 75 575 325 
Q 350 575 350 950 
L 350 2925 
L 850 2925 
L 850 1125 
Q 850 825 1000 650 
Q 1150 475 1400 475 
Q 1725 475 2012 812 
Q 2300 1150 2300 1650 
L 2300 2925 
L 2800 2925 
L 2800 125 
z
" transform="scale(0.015625)"/>
      </defs>
      <use xlink:href="#SimHei-56"/>
      <use xlink:href="#SimHei-61" x="50"/>
      <use xlink:href="#SimHei-6c" x="100"/>
      <use xlink:href="#SimHei-75" x="150"/>
      <use xlink:href="#SimHei-65" x="200"/>
     </g>
    </g>
   </g>
   <g id="line2d_27">
    <path d="M 238.242424 564.659235 
L 247.636364 564.659235 
L 257.030303 564.659235 
L 266.424242 560.217478 
L 275.818182 560.217478 
L 285.212121 555.775721 
L 294.606061 560.217478 
L 304 560.217478 
L 313.393939 564.659235 
L 322.787879 560.217478 
L 332.181818 551.333964 
L 341.575758 551.333964 
L 350.969697 551.333964 
L 360.363636 546.892206 
L 369.757576 546.892206 
L 379.151515 551.333964 
L 388.545455 551.333964 
L 397.939394 546.892206 
L 407.333333 542.450449 
L 416.727273 546.892206 
L 426.121212 542.450449 
L 435.515152 542.450449 
L 444.909091 542.450449 
L 454.30303 538.008692 
L 463.69697 533.566935 
L 473.090909 538.008692 
L 482.484848 533.566935 
L 491.878788 538.008692 
L 501.272727 533.566935 
L 510.666667 533.566935 
L 520.060606 529.125178 
L 529.454545 533.566935 
L 538.848485 533.566935 
L 548.242424 533.566935 
L 557.636364 533.566935 
L 567.030303 533.566935 
L 576.424242 529.125178 
L 585.818182 529.125178 
L 595.212121 529.125178 
L 604.606061 524.68342 
L 614 524.68342 
L 623.393939 529.125178 
L 632.787879 529.125178 
L 642.181818 520.241663 
L 651.575758 529.125178 
L 660.969697 524.68342 
L 670.363636 524.68342 
L 679.757576 524.68342 
L 689.151515 524.68342 
L 698.545455 524.68342 
L 707.939394 520.241663 
L 717.333333 520.241663 
L 726.727273 520.241663 
L 736.121212 520.241663 
L 745.515152 520.241663 
L 754.909091 520.241663 
L 764.30303 520.241663 
L 773.69697 520.241663 
L 783.090909 520.241663 
L 792.484848 520.241663 
L 801.878788 520.241663 
L 811.272727 515.799906 
L 820.666667 515.799906 
L 830.060606 520.241663 
L 839.454545 515.799906 
L 848.848485 520.241663 
L 858.242424 515.799906 
L 867.636364 515.799906 
L 877.030303 515.799906 
L 886.424242 515.799906 
L 895.818182 511.358149 
L 905.212121 506.916392 
L 914.606061 506.916392 
L 924 511.358149 
L 933.393939 506.916392 
L 942.787879 511.358149 
L 952.181818 511.358149 
L 961.575758 511.358149 
L 970.969697 506.916392 
L 980.363636 506.916392 
L 989.757576 506.916392 
L 999.151515 506.916392 
L 1008.545455 506.916392 
L 1017.939394 502.474634 
L 1027.333333 506.916392 
L 1036.727273 511.358149 
L 1046.121212 506.916392 
L 1055.515152 502.474634 
L 1064.909091 511.358149 
L 1074.30303 502.474634 
L 1083.69697 511.358149 
L 1093.090909 515.799906 
L 1102.484848 515.799906 
L 1111.878788 515.799906 
L 1121.272727 515.799906 
L 1130.666667 515.799906 
L 1140.060606 511.358149 
L 1149.454545 511.358149 
L 1158.848485 515.799906 
L 1168.242424 511.358149 
L 1177.636364 520.241663 
L 1187.030303 524.68342 
L 1196.424242 551.333964 
L 1205.818182 529.125178 
L 1215.212121 524.68342 
L 1224.606061 520.241663 
L 1234 524.68342 
L 1243.393939 524.68342 
" clip-path="url(#p6f611ad176)" style="fill: none; stroke: #1f77b4; stroke-width: 1.5; stroke-linecap: square"/>
   </g>
   <g id="line2d_28">
    <path d="M 230.727273 440.290033 
L 240.121212 440.290033 
L 249.515152 440.290033 
L 258.909091 435.848276 
L 268.30303 431.406519 
L 277.69697 431.406519 
L 287.090909 431.406519 
L 296.484848 431.406519 
L 305.878788 426.964762 
L 315.272727 426.964762 
L 324.666667 422.523005 
L 334.060606 418.081247 
L 343.454545 422.523005 
L 352.848485 422.523005 
L 362.242424 418.081247 
L 371.636364 418.081247 
L 381.030303 413.63949 
L 390.424242 418.081247 
L 399.818182 418.081247 
L 409.212121 409.197733 
L 418.606061 409.197733 
L 428 409.197733 
L 437.393939 404.755976 
L 446.787879 400.314219 
L 456.181818 400.314219 
L 465.575758 404.755976 
L 474.969697 400.314219 
L 484.363636 400.314219 
L 493.757576 400.314219 
L 503.151515 400.314219 
L 512.545455 395.872461 
L 521.939394 395.872461 
L 531.333333 395.872461 
L 540.727273 395.872461 
L 550.121212 391.430704 
L 559.515152 391.430704 
L 568.909091 391.430704 
L 578.30303 386.988947 
L 587.69697 391.430704 
L 597.090909 386.988947 
L 606.484848 386.988947 
L 615.878788 382.54719 
L 625.272727 386.988947 
L 634.666667 382.54719 
L 644.060606 391.430704 
L 653.454545 386.988947 
L 662.848485 386.988947 
L 672.242424 382.54719 
L 681.636364 386.988947 
L 691.030303 386.988947 
L 700.424242 382.54719 
L 709.818182 382.54719 
L 719.212121 378.105433 
L 728.606061 378.105433 
L 738 373.663675 
L 747.393939 373.663675 
L 756.787879 378.105433 
L 766.181818 378.105433 
L 775.575758 373.663675 
L 784.969697 373.663675 
L 794.363636 373.663675 
L 803.757576 378.105433 
L 813.151515 373.663675 
L 822.545455 378.105433 
L 831.939394 378.105433 
L 841.333333 373.663675 
L 850.727273 373.663675 
L 860.121212 369.221918 
L 869.515152 378.105433 
L 878.909091 373.663675 
L 888.30303 369.221918 
L 897.69697 369.221918 
L 907.090909 364.780161 
L 916.484848 369.221918 
L 925.878788 369.221918 
L 935.272727 364.780161 
L 944.666667 369.221918 
L 954.060606 364.780161 
L 963.454545 369.221918 
L 972.848485 364.780161 
L 982.242424 364.780161 
L 991.636364 369.221918 
L 1001.030303 369.221918 
L 1010.424242 360.338404 
L 1019.818182 369.221918 
L 1029.212121 364.780161 
L 1038.606061 364.780161 
L 1048 360.338404 
L 1057.393939 364.780161 
L 1066.787879 369.221918 
L 1076.181818 364.780161 
L 1085.575758 369.221918 
L 1094.969697 373.663675 
L 1104.363636 364.780161 
L 1113.757576 369.221918 
L 1123.151515 369.221918 
L 1132.545455 369.221918 
L 1141.939394 364.780161 
L 1151.333333 360.338404 
L 1160.727273 369.221918 
L 1170.121212 369.221918 
L 1179.515152 369.221918 
L 1188.909091 369.221918 
L 1198.30303 378.105433 
L 1207.69697 378.105433 
L 1217.090909 373.663675 
L 1226.484848 373.663675 
L 1235.878788 373.663675 
L 1245.272727 369.221918 
" clip-path="url(#p6f611ad176)" style="fill: none; stroke: #ff7f0e; stroke-width: 1.5; stroke-linecap: square"/>
   </g>
   <g id="line2d_29">
    <path d="M 234.484848 386.988947 
L 243.878788 386.988947 
L 253.272727 382.54719 
L 262.666667 382.54719 
L 272.060606 378.105433 
L 281.454545 378.105433 
L 290.848485 378.105433 
L 300.242424 373.663675 
L 309.636364 369.221918 
L 319.030303 369.221918 
L 328.424242 369.221918 
L 337.818182 364.780161 
L 347.212121 369.221918 
L 356.606061 364.780161 
L 366 364.780161 
L 375.393939 360.338404 
L 384.787879 360.338404 
L 394.181818 360.338404 
L 403.575758 355.896646 
L 412.969697 355.896646 
L 422.363636 351.454889 
L 431.757576 351.454889 
L 441.151515 351.454889 
L 450.545455 347.013132 
L 459.939394 347.013132 
L 469.333333 342.571375 
L 478.727273 347.013132 
L 488.121212 342.571375 
L 497.515152 342.571375 
L 506.909091 342.571375 
L 516.30303 338.129618 
L 525.69697 342.571375 
L 535.090909 338.129618 
L 544.484848 333.68786 
L 553.878788 338.129618 
L 563.272727 338.129618 
L 572.666667 333.68786 
L 582.060606 333.68786 
L 591.454545 329.246103 
L 600.848485 333.68786 
L 610.242424 324.804346 
L 619.636364 329.246103 
L 629.030303 329.246103 
L 638.424242 329.246103 
L 647.818182 324.804346 
L 657.212121 324.804346 
L 666.606061 324.804346 
L 676 320.362589 
L 685.393939 324.804346 
L 694.787879 324.804346 
L 704.181818 320.362589 
L 713.575758 320.362589 
L 722.969697 320.362589 
L 732.363636 315.920832 
L 741.757576 315.920832 
L 751.151515 315.920832 
L 760.545455 311.479074 
L 769.939394 315.920832 
L 779.333333 315.920832 
L 788.727273 315.920832 
L 798.121212 311.479074 
L 807.515152 311.479074 
L 816.909091 311.479074 
L 826.30303 311.479074 
L 835.69697 311.479074 
L 845.090909 307.037317 
L 854.484848 307.037317 
L 863.878788 311.479074 
L 873.272727 307.037317 
L 882.666667 307.037317 
L 892.060606 311.479074 
L 901.454545 311.479074 
L 910.848485 307.037317 
L 920.242424 307.037317 
L 929.636364 307.037317 
L 939.030303 307.037317 
L 948.424242 302.59556 
L 957.818182 307.037317 
L 967.212121 302.59556 
L 976.606061 302.59556 
L 986 302.59556 
L 995.393939 307.037317 
L 1004.787879 302.59556 
L 1014.181818 302.59556 
L 1023.575758 307.037317 
L 1032.969697 298.153803 
L 1042.363636 302.59556 
L 1051.757576 302.59556 
L 1061.151515 307.037317 
L 1070.545455 302.59556 
L 1079.939394 302.59556 
L 1089.333333 307.037317 
L 1098.727273 307.037317 
L 1108.121212 302.59556 
L 1117.515152 302.59556 
L 1126.909091 302.59556 
L 1136.30303 298.153803 
L 1145.69697 298.153803 
L 1155.090909 302.59556 
L 1164.484848 298.153803 
L 1173.878788 298.153803 
L 1183.272727 298.153803 
L 1192.666667 307.037317 
L 1202.060606 307.037317 
L 1211.454545 311.479074 
L 1220.848485 307.037317 
L 1230.242424 307.037317 
L 1239.636364 307.037317 
" clip-path="url(#p6f611ad176)" style="fill: none; stroke: #2ca02c; stroke-width: 1.5; stroke-linecap: square"/>
   </g>
   <g id="line2d_30">
    <path d="M 238.242424 320.362589 
L 247.636364 320.362589 
L 257.030303 315.920832 
L 266.424242 315.920832 
L 275.818182 315.920832 
L 285.212121 311.479074 
L 294.606061 311.479074 
L 304 311.479074 
L 313.393939 311.479074 
L 322.787879 311.479074 
L 332.181818 307.037317 
L 341.575758 311.479074 
L 350.969697 307.037317 
L 360.363636 302.59556 
L 369.757576 302.59556 
L 379.151515 298.153803 
L 388.545455 298.153803 
L 397.939394 293.712046 
L 407.333333 293.712046 
L 416.727273 293.712046 
L 426.121212 293.712046 
L 435.515152 289.270288 
L 444.909091 289.270288 
L 454.30303 289.270288 
L 463.69697 284.828531 
L 473.090909 284.828531 
L 482.484848 280.386774 
L 491.878788 284.828531 
L 501.272727 280.386774 
L 510.666667 280.386774 
L 520.060606 275.945017 
L 529.454545 275.945017 
L 538.848485 275.945017 
L 548.242424 271.50326 
L 557.636364 271.50326 
L 567.030303 271.50326 
L 576.424242 271.50326 
L 585.818182 271.50326 
L 595.212121 271.50326 
L 604.606061 267.061502 
L 614 267.061502 
L 623.393939 267.061502 
L 632.787879 267.061502 
L 642.181818 262.619745 
L 651.575758 267.061502 
L 660.969697 267.061502 
L 670.363636 262.619745 
L 679.757576 267.061502 
L 689.151515 258.177988 
L 698.545455 267.061502 
L 707.939394 262.619745 
L 717.333333 258.177988 
L 726.727273 262.619745 
L 736.121212 258.177988 
L 745.515152 253.736231 
L 754.909091 258.177988 
L 764.30303 253.736231 
L 773.69697 258.177988 
L 783.090909 253.736231 
L 792.484848 253.736231 
L 801.878788 249.294473 
L 811.272727 249.294473 
L 820.666667 253.736231 
L 830.060606 253.736231 
L 839.454545 249.294473 
L 848.848485 258.177988 
L 858.242424 253.736231 
L 867.636364 253.736231 
L 877.030303 249.294473 
L 886.424242 249.294473 
L 895.818182 249.294473 
L 905.212121 249.294473 
L 914.606061 244.852716 
L 924 249.294473 
L 933.393939 249.294473 
L 942.787879 249.294473 
L 952.181818 249.294473 
L 961.575758 244.852716 
L 970.969697 244.852716 
L 980.363636 244.852716 
L 989.757576 244.852716 
L 999.151515 244.852716 
L 1008.545455 240.410959 
L 1017.939394 244.852716 
L 1027.333333 244.852716 
L 1036.727273 249.294473 
L 1046.121212 244.852716 
L 1055.515152 240.410959 
L 1064.909091 244.852716 
L 1074.30303 244.852716 
L 1083.69697 244.852716 
L 1093.090909 253.736231 
L 1102.484848 249.294473 
L 1111.878788 244.852716 
L 1121.272727 244.852716 
L 1130.666667 240.410959 
L 1140.060606 244.852716 
L 1149.454545 240.410959 
L 1158.848485 240.410959 
L 1168.242424 244.852716 
L 1177.636364 244.852716 
L 1187.030303 249.294473 
L 1196.424242 249.294473 
L 1205.818182 253.736231 
L 1215.212121 253.736231 
L 1224.606061 249.294473 
L 1234 258.177988 
L 1243.393939 253.736231 
" clip-path="url(#p6f611ad176)" style="fill: none; stroke: #d62728; stroke-width: 1.5; stroke-linecap: square"/>
   </g>
   <g id="line2d_31">
    <path d="M 230.727273 240.410959 
L 240.121212 235.969202 
L 249.515152 231.527445 
L 258.909091 231.527445 
L 268.30303 231.527445 
L 277.69697 227.085687 
L 287.090909 222.64393 
L 296.484848 222.64393 
L 305.878788 222.64393 
L 315.272727 222.64393 
L 324.666667 218.202173 
L 334.060606 209.318659 
L 343.454545 213.760416 
L 352.848485 209.318659 
L 362.242424 209.318659 
L 371.636364 204.876901 
L 381.030303 200.435144 
L 390.424242 200.435144 
L 399.818182 195.993387 
L 409.212121 195.993387 
L 418.606061 191.55163 
L 428 191.55163 
L 437.393939 187.109873 
L 446.787879 182.668115 
L 456.181818 182.668115 
L 465.575758 182.668115 
L 474.969697 178.226358 
L 484.363636 182.668115 
L 493.757576 173.784601 
L 503.151515 173.784601 
L 512.545455 173.784601 
L 521.939394 164.901087 
L 531.333333 169.342844 
L 540.727273 164.901087 
L 550.121212 160.459329 
L 559.515152 160.459329 
L 568.909091 160.459329 
L 578.30303 160.459329 
L 587.69697 151.575815 
L 597.090909 156.017572 
L 606.484848 147.134058 
L 615.878788 147.134058 
L 625.272727 147.134058 
L 634.666667 147.134058 
L 644.060606 147.134058 
L 653.454545 147.134058 
L 662.848485 147.134058 
L 672.242424 147.134058 
L 681.636364 142.6923 
L 691.030303 142.6923 
L 700.424242 142.6923 
L 709.818182 147.134058 
L 719.212121 133.808786 
L 728.606061 138.250543 
L 738 138.250543 
L 747.393939 133.808786 
L 756.787879 129.367029 
L 766.181818 133.808786 
L 775.575758 129.367029 
L 784.969697 129.367029 
L 794.363636 129.367029 
L 803.757576 120.483514 
L 813.151515 124.925272 
L 822.545455 124.925272 
L 831.939394 124.925272 
L 841.333333 124.925272 
L 850.727273 124.925272 
L 860.121212 129.367029 
L 869.515152 129.367029 
L 878.909091 124.925272 
L 888.30303 120.483514 
L 897.69697 120.483514 
L 907.090909 120.483514 
L 916.484848 116.041757 
L 925.878788 120.483514 
L 935.272727 120.483514 
L 944.666667 116.041757 
L 954.060606 116.041757 
L 963.454545 120.483514 
L 972.848485 116.041757 
L 982.242424 111.6 
L 991.636364 116.041757 
L 1001.030303 111.6 
L 1010.424242 116.041757 
L 1019.818182 116.041757 
L 1029.212121 116.041757 
L 1038.606061 116.041757 
L 1048 116.041757 
L 1057.393939 120.483514 
L 1066.787879 120.483514 
L 1076.181818 120.483514 
L 1085.575758 120.483514 
L 1094.969697 124.925272 
L 1104.363636 120.483514 
L 1113.757576 120.483514 
L 1123.151515 120.483514 
L 1132.545455 124.925272 
L 1141.939394 124.925272 
L 1151.333333 120.483514 
L 1160.727273 124.925272 
L 1170.121212 124.925272 
L 1179.515152 124.925272 
L 1188.909091 129.367029 
L 1198.30303 129.367029 
L 1207.69697 133.808786 
L 1217.090909 138.250543 
L 1226.484848 133.808786 
L 1235.878788 129.367029 
L 1245.272727 138.250543 
" clip-path="url(#p6f611ad176)" style="fill: none; stroke: #9467bd; stroke-width: 1.5; stroke-linecap: square"/>
   </g>
   <g id="line2d_32">
    <path d="M 238.242424 338.129618 
L 247.636364 333.68786 
L 257.030303 324.804346 
L 266.424242 320.362589 
L 275.818182 315.920832 
L 285.212121 324.804346 
L 294.606061 320.362589 
L 304 315.920832 
L 313.393939 307.037317 
L 322.787879 302.59556 
L 332.181818 302.59556 
L 341.575758 302.59556 
L 350.969697 293.712046 
L 360.363636 293.712046 
L 369.757576 284.828531 
L 379.151515 284.828531 
L 388.545455 280.386774 
L 397.939394 280.386774 
L 407.333333 284.828531 
L 416.727273 284.828531 
L 426.121212 271.50326 
L 435.515152 267.061502 
L 444.909091 262.619745 
L 454.30303 262.619745 
L 463.69697 258.177988 
L 473.090909 262.619745 
L 482.484848 258.177988 
L 491.878788 258.177988 
L 501.272727 249.294473 
L 510.666667 249.294473 
L 520.060606 249.294473 
L 529.454545 244.852716 
L 538.848485 235.969202 
L 548.242424 227.085687 
L 557.636364 231.527445 
L 567.030303 231.527445 
L 576.424242 231.527445 
L 585.818182 227.085687 
L 595.212121 227.085687 
L 604.606061 227.085687 
L 614 222.64393 
L 623.393939 231.527445 
L 632.787879 231.527445 
L 642.181818 231.527445 
L 651.575758 244.852716 
L 660.969697 231.527445 
L 670.363636 235.969202 
L 679.757576 231.527445 
L 689.151515 231.527445 
L 698.545455 227.085687 
L 707.939394 218.202173 
L 717.333333 213.760416 
L 726.727273 213.760416 
L 736.121212 218.202173 
L 745.515152 213.760416 
L 754.909091 218.202173 
L 764.30303 213.760416 
L 773.69697 218.202173 
L 783.090909 213.760416 
L 792.484848 213.760416 
L 801.878788 200.435144 
L 811.272727 209.318659 
L 820.666667 213.760416 
L 830.060606 209.318659 
L 839.454545 209.318659 
L 848.848485 213.760416 
L 858.242424 218.202173 
L 867.636364 213.760416 
L 877.030303 218.202173 
L 886.424242 209.318659 
L 895.818182 209.318659 
L 905.212121 209.318659 
L 914.606061 209.318659 
L 924 209.318659 
L 933.393939 213.760416 
L 942.787879 209.318659 
L 952.181818 204.876901 
L 961.575758 209.318659 
L 970.969697 204.876901 
L 980.363636 204.876901 
L 989.757576 213.760416 
L 999.151515 213.760416 
L 1008.545455 213.760416 
L 1017.939394 218.202173 
L 1027.333333 213.760416 
L 1036.727273 213.760416 
L 1046.121212 218.202173 
L 1055.515152 213.760416 
L 1064.909091 218.202173 
L 1074.30303 222.64393 
L 1083.69697 227.085687 
L 1093.090909 231.527445 
L 1102.484848 231.527445 
L 1111.878788 227.085687 
L 1121.272727 222.64393 
L 1130.666667 218.202173 
L 1140.060606 209.318659 
L 1149.454545 209.318659 
L 1158.848485 218.202173 
L 1168.242424 227.085687 
L 1177.636364 227.085687 
L 1187.030303 235.969202 
L 1196.424242 258.177988 
L 1205.818182 249.294473 
L 1215.212121 244.852716 
L 1224.606061 244.852716 
L 1234 240.410959 
L 1243.393939 249.294473 
" clip-path="url(#p6f611ad176)" style="fill: none; stroke: #8c564b; stroke-width: 1.5; stroke-linecap: square"/>
   </g>
   <g id="line2d_33">
    <path d="M 230.727273 482.347284 
L 1245.272727 482.347284 
" clip-path="url(#p6f611ad176)" style="fill: none; stroke-dasharray: 1.5,2.475; stroke-dashoffset: 0; stroke: #e377c2; stroke-width: 1.5"/>
   </g>
   <g id="line2d_34">
    <path d="M 230.727273 349.094567 
L 1245.272727 349.094567 
" clip-path="url(#p6f611ad176)" style="fill: none; stroke-dasharray: 1.5,2.475; stroke-dashoffset: 0; stroke: #7f7f7f; stroke-width: 1.5"/>
   </g>
   <g id="line2d_35">
    <path d="M 230.727273 615.6 
L 1245.272727 615.6 
" clip-path="url(#p6f611ad176)" style="fill: none; stroke-dasharray: 1.5,2.475; stroke-dashoffset: 0; stroke: #bcbd22; stroke-width: 1.5"/>
   </g>
   <g id="line2d_36">
    <path d="M 230.727273 171.424279 
L 1245.272727 171.424279 
" clip-path="url(#p6f611ad176)" style="fill: none; stroke-dasharray: 1.5,2.475; stroke-dashoffset: 0; stroke: #17becf; stroke-width: 1.5"/>
   </g>
   <g id="patch_3">
    <path d="M 180 640.8 
L 180 86.4 
" style="fill: none; stroke: #000000; stroke-width: 0.8; stroke-linejoin: miter; stroke-linecap: square"/>
   </g>
   <g id="patch_4">
    <path d="M 180 640.8 
L 1296 640.8 
" style="fill: none; stroke: #000000; stroke-width: 0.8; stroke-linejoin: miter; stroke-linecap: square"/>
   </g>
   <g id="text_16">
    <!-- Temperature(℃) vs Time with benchmarks  -->
    <g transform="translate(618 80.4) scale(0.12 -0.12)">
     <defs>
      <path id="SimHei-70" d="M 2825 1525 
Q 2825 800 2475 425 
Q 2125 50 1625 50 
Q 1350 50 1150 162 
Q 950 275 800 500 
L 800 -800 
L 300 -800 
L 300 2925 
L 800 2925 
L 800 2550 
Q 950 2775 1150 2875 
Q 1350 2975 1625 2975 
Q 2125 2975 2475 2612 
Q 2825 2250 2825 1525 
z
M 2275 1525 
Q 2275 2000 2087 2262 
Q 1900 2525 1525 2525 
Q 1225 2525 1012 2262 
Q 800 2000 800 1525 
Q 800 1050 1012 775 
Q 1225 500 1525 500 
Q 1900 500 2087 775 
Q 2275 1050 2275 1525 
z
" transform="scale(0.015625)"/>
      <path id="SimHei-72" d="M 2500 2425 
Q 2025 2500 1700 2287 
Q 1375 2075 1150 1550 
L 1150 125 
L 650 125 
L 650 2925 
L 1150 2925 
L 1150 2200 
Q 1375 2600 1712 2787 
Q 2050 2975 2500 2975 
L 2500 2425 
z
" transform="scale(0.015625)"/>
      <path id="SimHei-74" d="M 2750 200 
Q 2625 150 2462 112 
Q 2300 75 2025 75 
Q 1575 75 1300 325 
Q 1025 575 1025 1025 
L 1025 2525 
L 175 2525 
L 175 2925 
L 1025 2925 
L 1025 3900 
L 1525 3900 
L 1525 2925 
L 2550 2925 
L 2550 2525 
L 1525 2525 
L 1525 1000 
Q 1525 800 1625 662 
Q 1725 525 2000 525 
Q 2275 525 2450 575 
Q 2625 625 2750 700 
L 2750 200 
z
" transform="scale(0.015625)"/>
      <path id="SimHei-28" d="M 2975 -200 
L 2700 -475 
Q 2075 125 1762 775 
Q 1450 1425 1450 2250 
Q 1450 3075 1762 3725 
Q 2075 4375 2700 5000 
L 2975 4725 
Q 2400 4175 2112 3587 
Q 1825 3000 1825 2250 
Q 1825 1500 2112 912 
Q 2400 325 2975 -200 
z
" transform="scale(0.015625)"/>
      <path id="SimHei-2103" d="M 1050 5050 
Q 1500 5025 1675 4525 
L 1675 4300 
Q 1550 3900 1175 3825 
L 975 3825 
Q 500 3875 450 4450 
Q 475 4925 1025 5050 
L 1050 5050 
z
M 1025 4850 
Q 675 4750 650 4450 
Q 675 4125 950 4025 
L 1100 4000 
Q 1500 4125 1475 4475 
L 1475 4500 
Q 1375 4775 1150 4850 
L 1025 4850 
z
M 4025 4425 
Q 5375 4350 5750 3300 
L 5775 3250 
L 5300 3050 
Q 5000 3850 4300 3900 
L 3925 3925 
Q 2500 3850 2450 2025 
Q 2525 775 3475 425 
Q 3675 325 4125 350 
Q 4975 450 5400 1450 
L 5400 1475 
L 5900 1375 
L 5900 1350 
Q 5325 -75 4075 -125 
L 3725 -125 
Q 2400 100 2100 1175 
Q 1975 1525 1975 2100 
Q 2050 3550 2975 4125 
Q 3375 4400 3925 4425 
L 4025 4425 
z
" transform="scale(0.015625)"/>
      <path id="SimHei-29" d="M 1675 2250 
Q 1675 1425 1362 775 
Q 1050 125 425 -475 
L 150 -200 
Q 725 325 1012 912 
Q 1300 1500 1300 2250 
Q 1300 3000 1012 3587 
Q 725 4175 150 4725 
L 425 5000 
Q 1050 4375 1362 3725 
Q 1675 3075 1675 2250 
z
" transform="scale(0.015625)"/>
      <path id="SimHei-20" transform="scale(0.015625)"/>
      <path id="SimHei-76" d="M 2875 2925 
L 1825 75 
L 1275 75 
L 225 2925 
L 750 2925 
L 1525 750 
L 1575 750 
L 2350 2925 
L 2875 2925 
z
" transform="scale(0.015625)"/>
      <path id="SimHei-73" d="M 2750 900 
Q 2750 500 2437 287 
Q 2125 75 1650 75 
Q 1050 75 725 312 
Q 400 550 400 1000 
L 900 1000 
Q 900 700 1112 600 
Q 1325 500 1625 500 
Q 1925 500 2075 612 
Q 2225 725 2225 900 
Q 2225 1025 2100 1150 
Q 1975 1275 1475 1350 
Q 900 1425 687 1637 
Q 475 1850 475 2200 
Q 475 2500 762 2737 
Q 1050 2975 1600 2975 
Q 2100 2975 2387 2750 
Q 2675 2525 2675 2150 
L 2175 2150 
Q 2175 2375 2012 2462 
Q 1850 2550 1600 2550 
Q 1275 2550 1137 2437 
Q 1000 2325 1000 2175 
Q 1000 2000 1125 1900 
Q 1250 1800 1650 1750 
Q 2300 1650 2525 1437 
Q 2750 1225 2750 900 
z
" transform="scale(0.015625)"/>
      <path id="SimHei-77" d="M 3075 2925 
L 2450 75 
L 1975 75 
L 1575 2250 
L 1525 2250 
L 1125 75 
L 650 75 
L 25 2925 
L 550 2925 
L 875 1050 
L 925 1050 
L 1275 2925 
L 1825 2925 
L 2175 1050 
L 2225 1050 
L 2550 2925 
L 3075 2925 
z
" transform="scale(0.015625)"/>
      <path id="SimHei-68" d="M 2800 125 
L 2300 125 
L 2300 1925 
Q 2300 2225 2150 2400 
Q 2000 2575 1750 2575 
Q 1425 2575 1137 2237 
Q 850 1900 850 1400 
L 850 125 
L 350 125 
L 350 4400 
L 850 4400 
L 850 2400 
Q 1050 2675 1287 2825 
Q 1525 2975 1900 2975 
Q 2350 2975 2575 2725 
Q 2800 2475 2800 2100 
L 2800 125 
z
" transform="scale(0.015625)"/>
      <path id="SimHei-62" d="M 2825 1525 
Q 2825 800 2475 437 
Q 2125 75 1625 75 
Q 1350 75 1150 175 
Q 950 275 800 500 
L 800 125 
L 300 125 
L 300 4400 
L 800 4400 
L 800 2550 
Q 950 2775 1150 2887 
Q 1350 3000 1625 3000 
Q 2125 3000 2475 2625 
Q 2825 2250 2825 1525 
z
M 2275 1525 
Q 2275 2000 2087 2275 
Q 1900 2550 1525 2550 
Q 1225 2550 1012 2275 
Q 800 2000 800 1525 
Q 800 1050 1012 787 
Q 1225 525 1525 525 
Q 1900 525 2087 787 
Q 2275 1050 2275 1525 
z
" transform="scale(0.015625)"/>
      <path id="SimHei-6e" d="M 2800 125 
L 2300 125 
L 2300 1925 
Q 2300 2225 2150 2400 
Q 2000 2575 1750 2575 
Q 1425 2575 1137 2237 
Q 850 1900 850 1400 
L 850 125 
L 350 125 
L 350 2925 
L 850 2925 
L 850 2400 
Q 1050 2675 1287 2825 
Q 1525 2975 1900 2975 
Q 2350 2975 2575 2725 
Q 2800 2475 2800 2100 
L 2800 125 
z
" transform="scale(0.015625)"/>
      <path id="SimHei-63" d="M 2850 1250 
Q 2850 725 2487 400 
Q 2125 75 1575 75 
Q 1025 75 625 462 
Q 225 850 225 1525 
Q 225 2200 625 2587 
Q 1025 2975 1575 2975 
Q 2125 2975 2450 2687 
Q 2775 2400 2775 2000 
L 2225 2000 
Q 2200 2300 2012 2412 
Q 1825 2525 1575 2525 
Q 1275 2525 1025 2287 
Q 775 2050 775 1525 
Q 775 1000 1025 762 
Q 1275 525 1575 525 
Q 1900 525 2100 700 
Q 2300 875 2300 1250 
L 2850 1250 
z
" transform="scale(0.015625)"/>
      <path id="SimHei-6b" d="M 2925 125 
L 2350 125 
L 1450 1650 
L 875 1100 
L 875 125 
L 375 125 
L 375 4400 
L 875 4400 
L 875 1675 
L 2125 2925 
L 2750 2925 
L 1775 1975 
L 2925 125 
z
" transform="scale(0.015625)"/>
     </defs>
     <use xlink:href="#SimHei-54"/>
     <use xlink:href="#SimHei-65" x="50"/>
     <use xlink:href="#SimHei-6d" x="100"/>
     <use xlink:href="#SimHei-70" x="150"/>
     <use xlink:href="#SimHei-65" x="200"/>
     <use xlink:href="#SimHei-72" x="250"/>
     <use xlink:href="#SimHei-61" x="300"/>
     <use xlink:href="#SimHei-74" x="350"/>
     <use xlink:href="#SimHei-75" x="400"/>
     <use xlink:href="#SimHei-72" x="450"/>
     <use xlink:href="#SimHei-65" x="500"/>
     <use xlink:href="#SimHei-28" x="550"/>
     <use xlink:href="#SimHei-2103" x="600"/>
     <use xlink:href="#SimHei-29" x="700"/>
     <use xlink:href="#SimHei-20" x="750"/>
     <use xlink:href="#SimHei-76" x="800"/>
     <use xlink:href="#SimHei-73" x="850"/>
     <use xlink:href="#SimHei-20" x="900"/>
     <use xlink:href="#SimHei-54" x="950"/>
     <use xlink:href="#SimHei-69" x="1000"/>
     <use xlink:href="#SimHei-6d" x="1050"/>
     <use xlink:href="#SimHei-65" x="1100"/>
     <use xlink:href="#SimHei-20" x="1150"/>
     <use xlink:href="#SimHei-77" x="1200"/>
     <use xlink:href="#SimHei-69" x="1250"/>
     <use xlink:href="#SimHei-74" x="1300"/>
     <use xlink:href="#SimHei-68" x="1350"/>
     <use xlink:href="#SimHei-20" x="1400"/>
     <use xlink:href="#SimHei-62" x="1450"/>
     <use xlink:href="#SimHei-65" x="1500"/>
     <use xlink:href="#SimHei-6e" x="1550"/>
     <use xlink:href="#SimHei-63" x="1600"/>
     <use xlink:href="#SimHei-68" x="1650"/>
     <use xlink:href="#SimHei-6d" x="1700"/>
     <use xlink:href="#SimHei-61" x="1750"/>
     <use xlink:href="#SimHei-72" x="1800"/>
     <use xlink:href="#SimHei-6b" x="1850"/>
     <use xlink:href="#SimHei-73" x="1900"/>
     <use xlink:href="#SimHei-20" x="1950"/>
    </g>
   </g>
   <g id="legend_1">
    <g id="patch_5">
     <path d="M 187 224.4 
L 387 224.4 
Q 389 224.4 389 222.4 
L 389 93.4 
Q 389 91.4 387 91.4 
L 187 91.4 
Q 185 91.4 185 93.4 
L 185 222.4 
Q 185 224.4 187 224.4 
z
" style="fill: #ffffff; opacity: 0.8; stroke: #cccccc; stroke-linejoin: miter"/>
    </g>
    <g id="line2d_37">
     <path d="M 189 98.9 
L 199 98.9 
L 209 98.9 
" style="fill: none; stroke: #1f77b4; stroke-width: 1.5; stroke-linecap: square"/>
    </g>
    <g id="text_17">
     <!-- 2022-07-23: 1-floor Temperature(℃) -->
     <g transform="translate(217 102.4) scale(0.08 -0.08)">
      <defs>
       <path id="SimHei-2d" d="M 2975 2125 
L 125 2125 
L 125 2525 
L 2975 2525 
L 2975 2125 
z
" transform="scale(0.015625)"/>
       <path id="SimHei-37" d="M 850 150 
Q 1300 2050 2425 3925 
L 275 3925 
L 275 4375 
L 2950 4375 
L 2950 3950 
Q 1775 2050 1400 150 
L 850 150 
z
" transform="scale(0.015625)"/>
       <path id="SimHei-66" d="M 2850 3825 
Q 2725 3900 2550 3950 
Q 2375 4000 2100 4000 
Q 1825 4000 1725 3862 
Q 1625 3725 1625 3525 
L 1625 2925 
L 2650 2925 
L 2650 2525 
L 1625 2525 
L 1625 125 
L 1125 125 
L 1125 2525 
L 275 2525 
L 275 2925 
L 1125 2925 
L 1125 3500 
Q 1125 3950 1400 4200 
Q 1675 4450 2125 4450 
Q 2400 4450 2562 4412 
Q 2725 4375 2850 4325 
L 2850 3825 
z
" transform="scale(0.015625)"/>
       <path id="SimHei-6f" d="M 2925 1525 
Q 2925 875 2525 475 
Q 2125 75 1575 75 
Q 1025 75 625 475 
Q 225 875 225 1525 
Q 225 2175 625 2575 
Q 1025 2975 1575 2975 
Q 2125 2975 2525 2575 
Q 2925 2175 2925 1525 
z
M 2375 1525 
Q 2375 2025 2125 2275 
Q 1875 2525 1575 2525 
Q 1275 2525 1025 2275 
Q 775 2025 775 1525 
Q 775 1025 1025 775 
Q 1275 525 1575 525 
Q 1875 525 2125 775 
Q 2375 1025 2375 1525 
z
" transform="scale(0.015625)"/>
      </defs>
      <use xlink:href="#SimHei-32"/>
      <use xlink:href="#SimHei-30" x="50"/>
      <use xlink:href="#SimHei-32" x="100"/>
      <use xlink:href="#SimHei-32" x="150"/>
      <use xlink:href="#SimHei-2d" x="200"/>
      <use xlink:href="#SimHei-30" x="250"/>
      <use xlink:href="#SimHei-37" x="300"/>
      <use xlink:href="#SimHei-2d" x="350"/>
      <use xlink:href="#SimHei-32" x="400"/>
      <use xlink:href="#SimHei-33" x="450"/>
      <use xlink:href="#SimHei-3a" x="500"/>
      <use xlink:href="#SimHei-20" x="550"/>
      <use xlink:href="#SimHei-31" x="600"/>
      <use xlink:href="#SimHei-2d" x="650"/>
      <use xlink:href="#SimHei-66" x="700"/>
      <use xlink:href="#SimHei-6c" x="750"/>
      <use xlink:href="#SimHei-6f" x="800"/>
      <use xlink:href="#SimHei-6f" x="850"/>
      <use xlink:href="#SimHei-72" x="900"/>
      <use xlink:href="#SimHei-20" x="950"/>
      <use xlink:href="#SimHei-54" x="1000"/>
      <use xlink:href="#SimHei-65" x="1050"/>
      <use xlink:href="#SimHei-6d" x="1100"/>
      <use xlink:href="#SimHei-70" x="1150"/>
      <use xlink:href="#SimHei-65" x="1200"/>
      <use xlink:href="#SimHei-72" x="1250"/>
      <use xlink:href="#SimHei-61" x="1300"/>
      <use xlink:href="#SimHei-74" x="1350"/>
      <use xlink:href="#SimHei-75" x="1400"/>
      <use xlink:href="#SimHei-72" x="1450"/>
      <use xlink:href="#SimHei-65" x="1500"/>
      <use xlink:href="#SimHei-28" x="1550"/>
      <use xlink:href="#SimHei-2103" x="1600"/>
      <use xlink:href="#SimHei-29" x="1700"/>
     </g>
    </g>
    <g id="line2d_38">
     <path d="M 189 111.9 
L 199 111.9 
L 209 111.9 
" style="fill: none; stroke: #ff7f0e; stroke-width: 1.5; stroke-linecap: square"/>
    </g>
    <g id="text_18">
     <!-- 2022-07-23: 2-floor Temperature(℃) -->
     <g transform="translate(217 115.4) scale(0.08 -0.08)">
      <use xlink:href="#SimHei-32"/>
      <use xlink:href="#SimHei-30" x="50"/>
      <use xlink:href="#SimHei-32" x="100"/>
      <use xlink:href="#SimHei-32" x="150"/>
      <use xlink:href="#SimHei-2d" x="200"/>
      <use xlink:href="#SimHei-30" x="250"/>
      <use xlink:href="#SimHei-37" x="300"/>
      <use xlink:href="#SimHei-2d" x="350"/>
      <use xlink:href="#SimHei-32" x="400"/>
      <use xlink:href="#SimHei-33" x="450"/>
      <use xlink:href="#SimHei-3a" x="500"/>
      <use xlink:href="#SimHei-20" x="550"/>
      <use xlink:href="#SimHei-32" x="600"/>
      <use xlink:href="#SimHei-2d" x="650"/>
      <use xlink:href="#SimHei-66" x="700"/>
      <use xlink:href="#SimHei-6c" x="750"/>
      <use xlink:href="#SimHei-6f" x="800"/>
      <use xlink:href="#SimHei-6f" x="850"/>
      <use xlink:href="#SimHei-72" x="900"/>
      <use xlink:href="#SimHei-20" x="950"/>
      <use xlink:href="#SimHei-54" x="1000"/>
      <use xlink:href="#SimHei-65" x="1050"/>
      <use xlink:href="#SimHei-6d" x="1100"/>
      <use xlink:href="#SimHei-70" x="1150"/>
      <use xlink:href="#SimHei-65" x="1200"/>
      <use xlink:href="#SimHei-72" x="1250"/>
      <use xlink:href="#SimHei-61" x="1300"/>
      <use xlink:href="#SimHei-74" x="1350"/>
      <use xlink:href="#SimHei-75" x="1400"/>
      <use xlink:href="#SimHei-72" x="1450"/>
      <use xlink:href="#SimHei-65" x="1500"/>
      <use xlink:href="#SimHei-28" x="1550"/>
      <use xlink:href="#SimHei-2103" x="1600"/>
      <use xlink:href="#SimHei-29" x="1700"/>
     </g>
    </g>
    <g id="line2d_39">
     <path d="M 189 124.9 
L 199 124.9 
L 209 124.9 
" style="fill: none; stroke: #2ca02c; stroke-width: 1.5; stroke-linecap: square"/>
    </g>
    <g id="text_19">
     <!-- 2022-07-23: 3-floor Temperature(℃) -->
     <g transform="translate(217 128.4) scale(0.08 -0.08)">
      <use xlink:href="#SimHei-32"/>
      <use xlink:href="#SimHei-30" x="50"/>
      <use xlink:href="#SimHei-32" x="100"/>
      <use xlink:href="#SimHei-32" x="150"/>
      <use xlink:href="#SimHei-2d" x="200"/>
      <use xlink:href="#SimHei-30" x="250"/>
      <use xlink:href="#SimHei-37" x="300"/>
      <use xlink:href="#SimHei-2d" x="350"/>
      <use xlink:href="#SimHei-32" x="400"/>
      <use xlink:href="#SimHei-33" x="450"/>
      <use xlink:href="#SimHei-3a" x="500"/>
      <use xlink:href="#SimHei-20" x="550"/>
      <use xlink:href="#SimHei-33" x="600"/>
      <use xlink:href="#SimHei-2d" x="650"/>
      <use xlink:href="#SimHei-66" x="700"/>
      <use xlink:href="#SimHei-6c" x="750"/>
      <use xlink:href="#SimHei-6f" x="800"/>
      <use xlink:href="#SimHei-6f" x="850"/>
      <use xlink:href="#SimHei-72" x="900"/>
      <use xlink:href="#SimHei-20" x="950"/>
      <use xlink:href="#SimHei-54" x="1000"/>
      <use xlink:href="#SimHei-65" x="1050"/>
      <use xlink:href="#SimHei-6d" x="1100"/>
      <use xlink:href="#SimHei-70" x="1150"/>
      <use xlink:href="#SimHei-65" x="1200"/>
      <use xlink:href="#SimHei-72" x="1250"/>
      <use xlink:href="#SimHei-61" x="1300"/>
      <use xlink:href="#SimHei-74" x="1350"/>
      <use xlink:href="#SimHei-75" x="1400"/>
      <use xlink:href="#SimHei-72" x="1450"/>
      <use xlink:href="#SimHei-65" x="1500"/>
      <use xlink:href="#SimHei-28" x="1550"/>
      <use xlink:href="#SimHei-2103" x="1600"/>
      <use xlink:href="#SimHei-29" x="1700"/>
     </g>
    </g>
    <g id="line2d_40">
     <path d="M 189 137.9 
L 199 137.9 
L 209 137.9 
" style="fill: none; stroke: #d62728; stroke-width: 1.5; stroke-linecap: square"/>
    </g>
    <g id="text_20">
     <!-- 2022-07-23: 4-floor Temperature(℃) -->
     <g transform="translate(217 141.4) scale(0.08 -0.08)">
      <use xlink:href="#SimHei-32"/>
      <use xlink:href="#SimHei-30" x="50"/>
      <use xlink:href="#SimHei-32" x="100"/>
      <use xlink:href="#SimHei-32" x="150"/>
      <use xlink:href="#SimHei-2d" x="200"/>
      <use xlink:href="#SimHei-30" x="250"/>
      <use xlink:href="#SimHei-37" x="300"/>
      <use xlink:href="#SimHei-2d" x="350"/>
      <use xlink:href="#SimHei-32" x="400"/>
      <use xlink:href="#SimHei-33" x="450"/>
      <use xlink:href="#SimHei-3a" x="500"/>
      <use xlink:href="#SimHei-20" x="550"/>
      <use xlink:href="#SimHei-34" x="600"/>
      <use xlink:href="#SimHei-2d" x="650"/>
      <use xlink:href="#SimHei-66" x="700"/>
      <use xlink:href="#SimHei-6c" x="750"/>
      <use xlink:href="#SimHei-6f" x="800"/>
      <use xlink:href="#SimHei-6f" x="850"/>
      <use xlink:href="#SimHei-72" x="900"/>
      <use xlink:href="#SimHei-20" x="950"/>
      <use xlink:href="#SimHei-54" x="1000"/>
      <use xlink:href="#SimHei-65" x="1050"/>
      <use xlink:href="#SimHei-6d" x="1100"/>
      <use xlink:href="#SimHei-70" x="1150"/>
      <use xlink:href="#SimHei-65" x="1200"/>
      <use xlink:href="#SimHei-72" x="1250"/>
      <use xlink:href="#SimHei-61" x="1300"/>
      <use xlink:href="#SimHei-74" x="1350"/>
      <use xlink:href="#SimHei-75" x="1400"/>
      <use xlink:href="#SimHei-72" x="1450"/>
      <use xlink:href="#SimHei-65" x="1500"/>
      <use xlink:href="#SimHei-28" x="1550"/>
      <use xlink:href="#SimHei-2103" x="1600"/>
      <use xlink:href="#SimHei-29" x="1700"/>
     </g>
    </g>
    <g id="line2d_41">
     <path d="M 189 150.9 
L 199 150.9 
L 209 150.9 
" style="fill: none; stroke: #9467bd; stroke-width: 1.5; stroke-linecap: square"/>
    </g>
    <g id="text_21">
     <!-- 2022-07-23: 5-floor Temperature(℃) -->
     <g transform="translate(217 154.4) scale(0.08 -0.08)">
      <use xlink:href="#SimHei-32"/>
      <use xlink:href="#SimHei-30" x="50"/>
      <use xlink:href="#SimHei-32" x="100"/>
      <use xlink:href="#SimHei-32" x="150"/>
      <use xlink:href="#SimHei-2d" x="200"/>
      <use xlink:href="#SimHei-30" x="250"/>
      <use xlink:href="#SimHei-37" x="300"/>
      <use xlink:href="#SimHei-2d" x="350"/>
      <use xlink:href="#SimHei-32" x="400"/>
      <use xlink:href="#SimHei-33" x="450"/>
      <use xlink:href="#SimHei-3a" x="500"/>
      <use xlink:href="#SimHei-20" x="550"/>
      <use xlink:href="#SimHei-35" x="600"/>
      <use xlink:href="#SimHei-2d" x="650"/>
      <use xlink:href="#SimHei-66" x="700"/>
      <use xlink:href="#SimHei-6c" x="750"/>
      <use xlink:href="#SimHei-6f" x="800"/>
      <use xlink:href="#SimHei-6f" x="850"/>
      <use xlink:href="#SimHei-72" x="900"/>
      <use xlink:href="#SimHei-20" x="950"/>
      <use xlink:href="#SimHei-54" x="1000"/>
      <use xlink:href="#SimHei-65" x="1050"/>
      <use xlink:href="#SimHei-6d" x="1100"/>
      <use xlink:href="#SimHei-70" x="1150"/>
      <use xlink:href="#SimHei-65" x="1200"/>
      <use xlink:href="#SimHei-72" x="1250"/>
      <use xlink:href="#SimHei-61" x="1300"/>
      <use xlink:href="#SimHei-74" x="1350"/>
      <use xlink:href="#SimHei-75" x="1400"/>
      <use xlink:href="#SimHei-72" x="1450"/>
      <use xlink:href="#SimHei-65" x="1500"/>
      <use xlink:href="#SimHei-28" x="1550"/>
      <use xlink:href="#SimHei-2103" x="1600"/>
      <use xlink:href="#SimHei-29" x="1700"/>
     </g>
    </g>
    <g id="line2d_42">
     <path d="M 189 163.9 
L 199 163.9 
L 209 163.9 
" style="fill: none; stroke: #8c564b; stroke-width: 1.5; stroke-linecap: square"/>
    </g>
    <g id="text_22">
     <!-- 2022-07-23: Shaft Temperature(℃) -->
     <g transform="translate(217 167.4) scale(0.08 -0.08)">
      <defs>
       <path id="SimHei-53" d="M 2900 1325 
Q 2900 750 2537 412 
Q 2175 75 1550 75 
Q 925 75 575 425 
Q 225 775 225 1300 
L 225 1475 
L 800 1475 
L 800 1325 
Q 800 950 1025 750 
Q 1250 550 1550 550 
Q 1950 550 2137 762 
Q 2325 975 2325 1275 
Q 2325 1525 2100 1737 
Q 1875 1950 1450 2125 
Q 850 2350 587 2625 
Q 325 2900 325 3275 
Q 325 3800 687 4125 
Q 1050 4450 1550 4450 
Q 2200 4450 2487 4062 
Q 2775 3675 2775 3225 
L 2200 3225 
Q 2225 3500 2050 3725 
Q 1875 3950 1550 3950 
Q 1250 3950 1075 3787 
Q 900 3625 900 3350 
Q 900 3125 1037 2962 
Q 1175 2800 1750 2575 
Q 2300 2350 2600 2037 
Q 2900 1725 2900 1325 
z
" transform="scale(0.015625)"/>
      </defs>
      <use xlink:href="#SimHei-32"/>
      <use xlink:href="#SimHei-30" x="50"/>
      <use xlink:href="#SimHei-32" x="100"/>
      <use xlink:href="#SimHei-32" x="150"/>
      <use xlink:href="#SimHei-2d" x="200"/>
      <use xlink:href="#SimHei-30" x="250"/>
      <use xlink:href="#SimHei-37" x="300"/>
      <use xlink:href="#SimHei-2d" x="350"/>
      <use xlink:href="#SimHei-32" x="400"/>
      <use xlink:href="#SimHei-33" x="450"/>
      <use xlink:href="#SimHei-3a" x="500"/>
      <use xlink:href="#SimHei-20" x="550"/>
      <use xlink:href="#SimHei-53" x="600"/>
      <use xlink:href="#SimHei-68" x="650"/>
      <use xlink:href="#SimHei-61" x="700"/>
      <use xlink:href="#SimHei-66" x="750"/>
      <use xlink:href="#SimHei-74" x="800"/>
      <use xlink:href="#SimHei-20" x="850"/>
      <use xlink:href="#SimHei-54" x="900"/>
      <use xlink:href="#SimHei-65" x="950"/>
      <use xlink:href="#SimHei-6d" x="1000"/>
      <use xlink:href="#SimHei-70" x="1050"/>
      <use xlink:href="#SimHei-65" x="1100"/>
      <use xlink:href="#SimHei-72" x="1150"/>
      <use xlink:href="#SimHei-61" x="1200"/>
      <use xlink:href="#SimHei-74" x="1250"/>
      <use xlink:href="#SimHei-75" x="1300"/>
      <use xlink:href="#SimHei-72" x="1350"/>
      <use xlink:href="#SimHei-65" x="1400"/>
      <use xlink:href="#SimHei-28" x="1450"/>
      <use xlink:href="#SimHei-2103" x="1500"/>
      <use xlink:href="#SimHei-29" x="1600"/>
     </g>
    </g>
    <g id="line2d_43">
     <path d="M 189 176.9 
L 199 176.9 
L 209 176.9 
" style="fill: none; stroke-dasharray: 1.5,2.475; stroke-dashoffset: 0; stroke: #e377c2; stroke-width: 1.5"/>
    </g>
    <g id="text_23">
     <!-- 2022-07-23: Comfortable Temperature(℃) -->
     <g transform="translate(217 180.4) scale(0.08 -0.08)">
      <defs>
       <path id="SimHei-43" d="M 2975 1825 
Q 2950 875 2575 475 
Q 2200 75 1675 75 
Q 1075 75 650 562 
Q 225 1050 225 2125 
Q 225 3300 637 3875 
Q 1050 4450 1700 4450 
Q 2250 4450 2612 4037 
Q 2975 3625 2950 2875 
L 2400 2875 
Q 2400 3425 2225 3700 
Q 2050 3975 1700 3975 
Q 1300 3975 1062 3562 
Q 825 3150 825 2175 
Q 825 1275 1062 912 
Q 1300 550 1675 550 
Q 1950 550 2175 812 
Q 2400 1075 2400 1825 
L 2975 1825 
z
" transform="scale(0.015625)"/>
      </defs>
      <use xlink:href="#SimHei-32"/>
      <use xlink:href="#SimHei-30" x="50"/>
      <use xlink:href="#SimHei-32" x="100"/>
      <use xlink:href="#SimHei-32" x="150"/>
      <use xlink:href="#SimHei-2d" x="200"/>
      <use xlink:href="#SimHei-30" x="250"/>
      <use xlink:href="#SimHei-37" x="300"/>
      <use xlink:href="#SimHei-2d" x="350"/>
      <use xlink:href="#SimHei-32" x="400"/>
      <use xlink:href="#SimHei-33" x="450"/>
      <use xlink:href="#SimHei-3a" x="500"/>
      <use xlink:href="#SimHei-20" x="550"/>
      <use xlink:href="#SimHei-43" x="600"/>
      <use xlink:href="#SimHei-6f" x="650"/>
      <use xlink:href="#SimHei-6d" x="700"/>
      <use xlink:href="#SimHei-66" x="750"/>
      <use xlink:href="#SimHei-6f" x="800"/>
      <use xlink:href="#SimHei-72" x="850"/>
      <use xlink:href="#SimHei-74" x="900"/>
      <use xlink:href="#SimHei-61" x="950"/>
      <use xlink:href="#SimHei-62" x="1000"/>
      <use xlink:href="#SimHei-6c" x="1050"/>
      <use xlink:href="#SimHei-65" x="1100"/>
      <use xlink:href="#SimHei-20" x="1150"/>
      <use xlink:href="#SimHei-54" x="1200"/>
      <use xlink:href="#SimHei-65" x="1250"/>
      <use xlink:href="#SimHei-6d" x="1300"/>
      <use xlink:href="#SimHei-70" x="1350"/>
      <use xlink:href="#SimHei-65" x="1400"/>
      <use xlink:href="#SimHei-72" x="1450"/>
      <use xlink:href="#SimHei-61" x="1500"/>
      <use xlink:href="#SimHei-74" x="1550"/>
      <use xlink:href="#SimHei-75" x="1600"/>
      <use xlink:href="#SimHei-72" x="1650"/>
      <use xlink:href="#SimHei-65" x="1700"/>
      <use xlink:href="#SimHei-28" x="1750"/>
      <use xlink:href="#SimHei-2103" x="1800"/>
      <use xlink:href="#SimHei-29" x="1900"/>
     </g>
    </g>
    <g id="line2d_44">
     <path d="M 189 189.9 
L 199 189.9 
L 209 189.9 
" style="fill: none; stroke-dasharray: 1.5,2.475; stroke-dashoffset: 0; stroke: #7f7f7f; stroke-width: 1.5"/>
    </g>
    <g id="text_24">
     <!-- 2022-07-23: Max Acceptable Temperature(℃) -->
     <g transform="translate(217 193.4) scale(0.08 -0.08)">
      <defs>
       <path id="SimHei-4d" d="M 2925 125 
L 2425 125 
L 2425 3175 
L 2375 3175 
L 1775 125 
L 1375 125 
L 775 3175 
L 725 3175 
L 725 125 
L 225 125 
L 225 4400 
L 1000 4400 
L 1550 1575 
L 1600 1575 
L 2150 4400 
L 2925 4400 
L 2925 125 
z
" transform="scale(0.015625)"/>
       <path id="SimHei-78" d="M 2875 125 
L 2275 125 
L 1550 1200 
L 825 125 
L 225 125 
L 1250 1550 
L 300 2925 
L 900 2925 
L 1550 1875 
L 2200 2925 
L 2800 2925 
L 1850 1550 
L 2875 125 
z
" transform="scale(0.015625)"/>
       <path id="SimHei-41" d="M 3075 125 
L 2475 125 
L 2125 1450 
L 1025 1450 
L 675 125 
L 75 125 
L 1325 4450 
L 1825 4450 
L 3075 125 
z
M 2000 1925 
L 1600 3450 
L 1550 3450 
L 1150 1925 
L 2000 1925 
z
" transform="scale(0.015625)"/>
      </defs>
      <use xlink:href="#SimHei-32"/>
      <use xlink:href="#SimHei-30" x="50"/>
      <use xlink:href="#SimHei-32" x="100"/>
      <use xlink:href="#SimHei-32" x="150"/>
      <use xlink:href="#SimHei-2d" x="200"/>
      <use xlink:href="#SimHei-30" x="250"/>
      <use xlink:href="#SimHei-37" x="300"/>
      <use xlink:href="#SimHei-2d" x="350"/>
      <use xlink:href="#SimHei-32" x="400"/>
      <use xlink:href="#SimHei-33" x="450"/>
      <use xlink:href="#SimHei-3a" x="500"/>
      <use xlink:href="#SimHei-20" x="550"/>
      <use xlink:href="#SimHei-4d" x="600"/>
      <use xlink:href="#SimHei-61" x="650"/>
      <use xlink:href="#SimHei-78" x="700"/>
      <use xlink:href="#SimHei-20" x="750"/>
      <use xlink:href="#SimHei-41" x="800"/>
      <use xlink:href="#SimHei-63" x="850"/>
      <use xlink:href="#SimHei-63" x="900"/>
      <use xlink:href="#SimHei-65" x="950"/>
      <use xlink:href="#SimHei-70" x="1000"/>
      <use xlink:href="#SimHei-74" x="1050"/>
      <use xlink:href="#SimHei-61" x="1100"/>
      <use xlink:href="#SimHei-62" x="1150"/>
      <use xlink:href="#SimHei-6c" x="1200"/>
      <use xlink:href="#SimHei-65" x="1250"/>
      <use xlink:href="#SimHei-20" x="1300"/>
      <use xlink:href="#SimHei-54" x="1350"/>
      <use xlink:href="#SimHei-65" x="1400"/>
      <use xlink:href="#SimHei-6d" x="1450"/>
      <use xlink:href="#SimHei-70" x="1500"/>
      <use xlink:href="#SimHei-65" x="1550"/>
      <use xlink:href="#SimHei-72" x="1600"/>
      <use xlink:href="#SimHei-61" x="1650"/>
      <use xlink:href="#SimHei-74" x="1700"/>
      <use xlink:href="#SimHei-75" x="1750"/>
      <use xlink:href="#SimHei-72" x="1800"/>
      <use xlink:href="#SimHei-65" x="1850"/>
      <use xlink:href="#SimHei-28" x="1900"/>
      <use xlink:href="#SimHei-2103" x="1950"/>
      <use xlink:href="#SimHei-29" x="2050"/>
     </g>
    </g>
    <g id="line2d_45">
     <path d="M 189 202.9 
L 199 202.9 
L 209 202.9 
" style="fill: none; stroke-dasharray: 1.5,2.475; stroke-dashoffset: 0; stroke: #bcbd22; stroke-width: 1.5"/>
    </g>
    <g id="text_25">
     <!-- 2022-07-23: Min Acceptable Temperature(℃) -->
     <g transform="translate(217 206.4) scale(0.08 -0.08)">
      <use xlink:href="#SimHei-32"/>
      <use xlink:href="#SimHei-30" x="50"/>
      <use xlink:href="#SimHei-32" x="100"/>
      <use xlink:href="#SimHei-32" x="150"/>
      <use xlink:href="#SimHei-2d" x="200"/>
      <use xlink:href="#SimHei-30" x="250"/>
      <use xlink:href="#SimHei-37" x="300"/>
      <use xlink:href="#SimHei-2d" x="350"/>
      <use xlink:href="#SimHei-32" x="400"/>
      <use xlink:href="#SimHei-33" x="450"/>
      <use xlink:href="#SimHei-3a" x="500"/>
      <use xlink:href="#SimHei-20" x="550"/>
      <use xlink:href="#SimHei-4d" x="600"/>
      <use xlink:href="#SimHei-69" x="650"/>
      <use xlink:href="#SimHei-6e" x="700"/>
      <use xlink:href="#SimHei-20" x="750"/>
      <use xlink:href="#SimHei-41" x="800"/>
      <use xlink:href="#SimHei-63" x="850"/>
      <use xlink:href="#SimHei-63" x="900"/>
      <use xlink:href="#SimHei-65" x="950"/>
      <use xlink:href="#SimHei-70" x="1000"/>
      <use xlink:href="#SimHei-74" x="1050"/>
      <use xlink:href="#SimHei-61" x="1100"/>
      <use xlink:href="#SimHei-62" x="1150"/>
      <use xlink:href="#SimHei-6c" x="1200"/>
      <use xlink:href="#SimHei-65" x="1250"/>
      <use xlink:href="#SimHei-20" x="1300"/>
      <use xlink:href="#SimHei-54" x="1350"/>
      <use xlink:href="#SimHei-65" x="1400"/>
      <use xlink:href="#SimHei-6d" x="1450"/>
      <use xlink:href="#SimHei-70" x="1500"/>
      <use xlink:href="#SimHei-65" x="1550"/>
      <use xlink:href="#SimHei-72" x="1600"/>
      <use xlink:href="#SimHei-61" x="1650"/>
      <use xlink:href="#SimHei-74" x="1700"/>
      <use xlink:href="#SimHei-75" x="1750"/>
      <use xlink:href="#SimHei-72" x="1800"/>
      <use xlink:href="#SimHei-65" x="1850"/>
      <use xlink:href="#SimHei-28" x="1900"/>
      <use xlink:href="#SimHei-2103" x="1950"/>
      <use xlink:href="#SimHei-29" x="2050"/>
     </g>
    </g>
    <g id="line2d_46">
     <path d="M 189 215.9 
L 199 215.9 
L 209 215.9 
" style="fill: none; stroke-dasharray: 1.5,2.475; stroke-dashoffset: 0; stroke: #17becf; stroke-width: 1.5"/>
    </g>
    <g id="text_26">
     <!-- 2022-07-23: Upper Limit Temperature(℃) -->
     <g transform="translate(217 219.4) scale(0.08 -0.08)">
      <defs>
       <path id="SimHei-55" d="M 2875 1375 
Q 2875 775 2562 425 
Q 2250 75 1575 75 
Q 900 75 587 425 
Q 275 775 275 1375 
L 275 4400 
L 850 4400 
L 850 1375 
Q 850 950 1050 750 
Q 1250 550 1575 550 
Q 1900 550 2100 750 
Q 2300 950 2300 1375 
L 2300 4400 
L 2875 4400 
L 2875 1375 
z
" transform="scale(0.015625)"/>
       <path id="SimHei-4c" d="M 2900 125 
L 300 125 
L 300 4400 
L 875 4400 
L 875 600 
L 2900 600 
L 2900 125 
z
" transform="scale(0.015625)"/>
      </defs>
      <use xlink:href="#SimHei-32"/>
      <use xlink:href="#SimHei-30" x="50"/>
      <use xlink:href="#SimHei-32" x="100"/>
      <use xlink:href="#SimHei-32" x="150"/>
      <use xlink:href="#SimHei-2d" x="200"/>
      <use xlink:href="#SimHei-30" x="250"/>
      <use xlink:href="#SimHei-37" x="300"/>
      <use xlink:href="#SimHei-2d" x="350"/>
      <use xlink:href="#SimHei-32" x="400"/>
      <use xlink:href="#SimHei-33" x="450"/>
      <use xlink:href="#SimHei-3a" x="500"/>
      <use xlink:href="#SimHei-20" x="550"/>
      <use xlink:href="#SimHei-55" x="600"/>
      <use xlink:href="#SimHei-70" x="650"/>
      <use xlink:href="#SimHei-70" x="700"/>
      <use xlink:href="#SimHei-65" x="750"/>
      <use xlink:href="#SimHei-72" x="800"/>
      <use xlink:href="#SimHei-20" x="850"/>
      <use xlink:href="#SimHei-4c" x="900"/>
      <use xlink:href="#SimHei-69" x="950"/>
      <use xlink:href="#SimHei-6d" x="1000"/>
      <use xlink:href="#SimHei-69" x="1050"/>
      <use xlink:href="#SimHei-74" x="1100"/>
      <use xlink:href="#SimHei-20" x="1150"/>
      <use xlink:href="#SimHei-54" x="1200"/>
      <use xlink:href="#SimHei-65" x="1250"/>
      <use xlink:href="#SimHei-6d" x="1300"/>
      <use xlink:href="#SimHei-70" x="1350"/>
      <use xlink:href="#SimHei-65" x="1400"/>
      <use xlink:href="#SimHei-72" x="1450"/>
      <use xlink:href="#SimHei-61" x="1500"/>
      <use xlink:href="#SimHei-74" x="1550"/>
      <use xlink:href="#SimHei-75" x="1600"/>
      <use xlink:href="#SimHei-72" x="1650"/>
      <use xlink:href="#SimHei-65" x="1700"/>
      <use xlink:href="#SimHei-28" x="1750"/>
      <use xlink:href="#SimHei-2103" x="1800"/>
      <use xlink:href="#SimHei-29" x="1900"/>
     </g>
    </g>
   </g>
  </g>
 </g>
 <defs>
  <clipPath id="p6f611ad176">
   <rect x="180" y="86.4" width="1116" height="554.4"/>
  </clipPath>
 </defs>
</svg>
