<?xml version="1.0" encoding="utf-8" standalone="no"?>
<!DOCTYPE svg PUBLIC "-//W3C//DTD SVG 1.1//EN"
  "http://www.w3.org/Graphics/SVG/1.1/DTD/svg11.dtd">
<svg xmlns:xlink="http://www.w3.org/1999/xlink" width="1440pt" height="720pt" viewBox="0 0 1440 720" xmlns="http://www.w3.org/2000/svg" version="1.1">
 <metadata>
  <rdf:RDF xmlns:dc="http://purl.org/dc/elements/1.1/" xmlns:cc="http://creativecommons.org/ns#" xmlns:rdf="http://www.w3.org/1999/02/22-rdf-syntax-ns#">
   <cc:Work>
    <dc:type rdf:resource="http://purl.org/dc/dcmitype/StillImage"/>
    <dc:date>2023-01-28T12:50:03.226402</dc:date>
    <dc:format>image/svg+xml</dc:format>
    <dc:creator>
     <cc:Agent>
      <dc:title>Matplotlib v3.6.2, https://matplotlib.org/</dc:title>
     </cc:Agent>
    </dc:creator>
   </cc:Work>
  </rdf:RDF>
 </metadata>
 <defs>
  <style type="text/css">*{stroke-linejoin: round; stroke-linecap: butt}</style>
 </defs>
 <g id="figure_1">
  <g id="patch_1">
   <path d="M 0 720 
L 1440 720 
L 1440 0 
L 0 0 
z
" style="fill: #ffffff"/>
  </g>
  <g id="axes_1">
   <g id="patch_2">
    <path d="M 180 640.8 
L 1296 640.8 
L 1296 86.4 
L 180 86.4 
z
" style="fill: #ffffff"/>
   </g>
   <g id="matplotlib.axis_1">
    <g id="xtick_1">
     <g id="line2d_1">
      <path d="M 312.141414 640.8 
L 312.141414 86.4 
" clip-path="url(#p636fc6dc62)" style="fill: none; stroke-dasharray: 2.96,1.28; stroke-dashoffset: 0; stroke: #b0b0b0; stroke-width: 0.8"/>
     </g>
     <g id="line2d_2">
      <defs>
       <path id="me9f2470ced" d="M 0 0 
L 0 3.5 
" style="stroke: #000000; stroke-width: 0.8"/>
      </defs>
      <g>
       <use xlink:href="#me9f2470ced" x="312.141414" y="640.8" style="stroke: #000000; stroke-width: 0.8"/>
      </g>
     </g>
     <g id="text_1">
      <!-- 09:43:20 -->
      <g transform="translate(292.141414 654.675) scale(0.1 -0.1)">
       <defs>
        <path id="SimHei-30" d="M 225 2537 
Q 250 3200 412 3587 
Q 575 3975 875 4225 
Q 1175 4475 1612 4475 
Q 2050 4475 2375 4112 
Q 2700 3750 2800 3200 
Q 2900 2650 2862 1937 
Q 2825 1225 2612 775 
Q 2400 325 1975 150 
Q 1550 -25 1125 187 
Q 700 400 525 750 
Q 350 1100 275 1487 
Q 200 1875 225 2537 
z
M 750 2687 
Q 675 2000 800 1462 
Q 925 925 1212 700 
Q 1500 475 1800 612 
Q 2100 750 2237 1162 
Q 2375 1575 2375 2062 
Q 2375 2550 2337 2950 
Q 2300 3350 2112 3675 
Q 1925 4000 1612 4012 
Q 1300 4025 1062 3700 
Q 825 3375 750 2687 
z
" transform="scale(0.015625)"/>
        <path id="SimHei-39" d="M 800 75 
Q 1350 1000 1700 1750 
Q 1075 1650 662 1912 
Q 250 2175 162 2625 
Q 75 3075 175 3437 
Q 275 3800 487 4037 
Q 700 4275 1000 4375 
Q 1300 4475 1537 4475 
Q 1775 4475 2025 4375 
Q 2275 4275 2475 4075 
Q 2675 3875 2750 3662 
Q 2825 3450 2825 3112 
Q 2825 2775 2575 2250 
Q 2325 1725 1350 75 
L 800 75 
z
M 662 2875 
Q 700 2550 937 2337 
Q 1175 2125 1450 2150 
Q 1725 2175 1887 2300 
Q 2050 2425 2200 2725 
Q 2300 3100 2250 3362 
Q 2200 3625 1987 3800 
Q 1775 3975 1525 3975 
Q 1375 4000 1137 3900 
Q 900 3800 762 3500 
Q 625 3200 662 2875 
z
" transform="scale(0.015625)"/>
        <path id="SimHei-3a" d="M 1825 2425 
L 1250 2425 
L 1250 2975 
L 1825 2975 
L 1825 2425 
z
M 1825 125 
L 1250 125 
L 1250 675 
L 1825 675 
L 1825 125 
z
" transform="scale(0.015625)"/>
        <path id="SimHei-34" d="M 2000 1100 
L 75 1100 
L 75 1525 
L 2100 4450 
L 2475 4450 
L 2475 1525 
L 3075 1525 
L 3075 1100 
L 2475 1100 
L 2475 150 
L 2000 150 
L 2000 1100 
z
M 2000 1525 
L 2000 3500 
L 600 1525 
L 2000 1525 
z
" transform="scale(0.015625)"/>
        <path id="SimHei-33" d="M 250 1225 
L 700 1300 
Q 800 975 1025 762 
Q 1250 550 1587 562 
Q 1925 575 2125 837 
Q 2325 1100 2300 1437 
Q 2275 1775 2037 1962 
Q 1800 2150 1275 2225 
L 1275 2550 
Q 1800 2600 2037 2825 
Q 2275 3050 2250 3412 
Q 2225 3775 1925 3937 
Q 1625 4100 1287 3975 
Q 950 3850 750 3275 
L 300 3350 
Q 450 3800 712 4100 
Q 975 4400 1425 4450 
Q 1875 4500 2212 4337 
Q 2550 4175 2687 3837 
Q 2825 3500 2725 3100 
Q 2625 2700 2150 2400 
Q 2500 2250 2687 1950 
Q 2875 1650 2812 1162 
Q 2750 675 2375 375 
Q 2000 75 1525 87 
Q 1050 100 700 387 
Q 350 675 250 1225 
z
" transform="scale(0.015625)"/>
        <path id="SimHei-32" d="M 300 250 
Q 325 625 650 925 
Q 975 1225 1475 1862 
Q 1975 2500 2125 2850 
Q 2275 3200 2237 3450 
Q 2200 3700 2000 3862 
Q 1800 4025 1537 4000 
Q 1275 3975 1037 3800 
Q 800 3625 675 3275 
L 200 3350 
Q 400 3925 712 4187 
Q 1025 4450 1450 4475 
Q 1700 4500 1900 4462 
Q 2100 4425 2312 4287 
Q 2525 4150 2662 3875 
Q 2800 3600 2762 3212 
Q 2725 2825 2375 2287 
Q 2025 1750 1025 600 
L 2825 600 
L 2825 150 
L 300 150 
L 300 250 
z
" transform="scale(0.015625)"/>
       </defs>
       <use xlink:href="#SimHei-30"/>
       <use xlink:href="#SimHei-39" x="50"/>
       <use xlink:href="#SimHei-3a" x="100"/>
       <use xlink:href="#SimHei-34" x="150"/>
       <use xlink:href="#SimHei-33" x="200"/>
       <use xlink:href="#SimHei-3a" x="250"/>
       <use xlink:href="#SimHei-32" x="300"/>
       <use xlink:href="#SimHei-30" x="350"/>
      </g>
     </g>
    </g>
    <g id="xtick_2">
     <g id="line2d_3">
      <path d="M 468.707071 640.8 
L 468.707071 86.4 
" clip-path="url(#p636fc6dc62)" style="fill: none; stroke-dasharray: 2.96,1.28; stroke-dashoffset: 0; stroke: #b0b0b0; stroke-width: 0.8"/>
     </g>
     <g id="line2d_4">
      <g>
       <use xlink:href="#me9f2470ced" x="468.707071" y="640.8" style="stroke: #000000; stroke-width: 0.8"/>
      </g>
     </g>
     <g id="text_2">
      <!-- 11:06:40 -->
      <g transform="translate(448.707071 654.675) scale(0.1 -0.1)">
       <defs>
        <path id="SimHei-31" d="M 1400 3600 
Q 1075 3275 575 2975 
L 575 3450 
Q 1200 3875 1600 4450 
L 1900 4450 
L 1900 150 
L 1400 150 
L 1400 3600 
z
" transform="scale(0.015625)"/>
        <path id="SimHei-36" d="M 250 1612 
Q 275 1975 387 2225 
Q 500 2475 725 2850 
L 1750 4450 
L 2325 4450 
L 1275 2800 
Q 1950 2975 2350 2750 
Q 2750 2525 2887 2237 
Q 3025 1950 3037 1612 
Q 3050 1275 2937 950 
Q 2825 625 2537 362 
Q 2250 100 1737 75 
Q 1225 50 862 262 
Q 500 475 362 862 
Q 225 1250 250 1612 
z
M 1025 787 
Q 1250 550 1625 525 
Q 2000 500 2250 775 
Q 2500 1050 2500 1575 
Q 2500 2100 2187 2300 
Q 1875 2500 1487 2450 
Q 1100 2400 925 2075 
Q 750 1750 775 1387 
Q 800 1025 1025 787 
z
" transform="scale(0.015625)"/>
       </defs>
       <use xlink:href="#SimHei-31"/>
       <use xlink:href="#SimHei-31" x="50"/>
       <use xlink:href="#SimHei-3a" x="100"/>
       <use xlink:href="#SimHei-30" x="150"/>
       <use xlink:href="#SimHei-36" x="200"/>
       <use xlink:href="#SimHei-3a" x="250"/>
       <use xlink:href="#SimHei-34" x="300"/>
       <use xlink:href="#SimHei-30" x="350"/>
      </g>
     </g>
    </g>
    <g id="xtick_3">
     <g id="line2d_5">
      <path d="M 625.272727 640.8 
L 625.272727 86.4 
" clip-path="url(#p636fc6dc62)" style="fill: none; stroke-dasharray: 2.96,1.28; stroke-dashoffset: 0; stroke: #b0b0b0; stroke-width: 0.8"/>
     </g>
     <g id="line2d_6">
      <g>
       <use xlink:href="#me9f2470ced" x="625.272727" y="640.8" style="stroke: #000000; stroke-width: 0.8"/>
      </g>
     </g>
     <g id="text_3">
      <!-- 12:30 -->
      <g transform="translate(612.772727 654.675) scale(0.1 -0.1)">
       <use xlink:href="#SimHei-31"/>
       <use xlink:href="#SimHei-32" x="50"/>
       <use xlink:href="#SimHei-3a" x="100"/>
       <use xlink:href="#SimHei-33" x="150"/>
       <use xlink:href="#SimHei-30" x="200"/>
      </g>
     </g>
    </g>
    <g id="xtick_4">
     <g id="line2d_7">
      <path d="M 781.838384 640.8 
L 781.838384 86.4 
" clip-path="url(#p636fc6dc62)" style="fill: none; stroke-dasharray: 2.96,1.28; stroke-dashoffset: 0; stroke: #b0b0b0; stroke-width: 0.8"/>
     </g>
     <g id="line2d_8">
      <g>
       <use xlink:href="#me9f2470ced" x="781.838384" y="640.8" style="stroke: #000000; stroke-width: 0.8"/>
      </g>
     </g>
     <g id="text_4">
      <!-- 13:53:20 -->
      <g transform="translate(761.838384 654.675) scale(0.1 -0.1)">
       <defs>
        <path id="SimHei-35" d="M 550 1325 
Q 725 650 1150 575 
Q 1575 500 1837 662 
Q 2100 825 2212 1087 
Q 2325 1350 2312 1675 
Q 2300 2000 2137 2225 
Q 1975 2450 1725 2525 
Q 1475 2600 1162 2525 
Q 850 2450 650 2175 
L 225 2225 
Q 275 2375 700 4375 
L 2675 4375 
L 2675 3925 
L 1075 3925 
Q 950 3250 825 2850 
Q 1200 3025 1525 3012 
Q 1850 3000 2150 2862 
Q 2450 2725 2587 2487 
Q 2725 2250 2787 2012 
Q 2850 1775 2837 1500 
Q 2825 1225 2725 937 
Q 2625 650 2425 462 
Q 2225 275 1937 162 
Q 1650 50 1275 75 
Q 900 100 562 350 
Q 225 600 100 1200 
L 550 1325 
z
" transform="scale(0.015625)"/>
       </defs>
       <use xlink:href="#SimHei-31"/>
       <use xlink:href="#SimHei-33" x="50"/>
       <use xlink:href="#SimHei-3a" x="100"/>
       <use xlink:href="#SimHei-35" x="150"/>
       <use xlink:href="#SimHei-33" x="200"/>
       <use xlink:href="#SimHei-3a" x="250"/>
       <use xlink:href="#SimHei-32" x="300"/>
       <use xlink:href="#SimHei-30" x="350"/>
      </g>
     </g>
    </g>
    <g id="xtick_5">
     <g id="line2d_9">
      <path d="M 938.40404 640.8 
L 938.40404 86.4 
" clip-path="url(#p636fc6dc62)" style="fill: none; stroke-dasharray: 2.96,1.28; stroke-dashoffset: 0; stroke: #b0b0b0; stroke-width: 0.8"/>
     </g>
     <g id="line2d_10">
      <g>
       <use xlink:href="#me9f2470ced" x="938.40404" y="640.8" style="stroke: #000000; stroke-width: 0.8"/>
      </g>
     </g>
     <g id="text_5">
      <!-- 15:16:40 -->
      <g transform="translate(918.40404 654.675) scale(0.1 -0.1)">
       <use xlink:href="#SimHei-31"/>
       <use xlink:href="#SimHei-35" x="50"/>
       <use xlink:href="#SimHei-3a" x="100"/>
       <use xlink:href="#SimHei-31" x="150"/>
       <use xlink:href="#SimHei-36" x="200"/>
       <use xlink:href="#SimHei-3a" x="250"/>
       <use xlink:href="#SimHei-34" x="300"/>
       <use xlink:href="#SimHei-30" x="350"/>
      </g>
     </g>
    </g>
    <g id="xtick_6">
     <g id="line2d_11">
      <path d="M 1094.969697 640.8 
L 1094.969697 86.4 
" clip-path="url(#p636fc6dc62)" style="fill: none; stroke-dasharray: 2.96,1.28; stroke-dashoffset: 0; stroke: #b0b0b0; stroke-width: 0.8"/>
     </g>
     <g id="line2d_12">
      <g>
       <use xlink:href="#me9f2470ced" x="1094.969697" y="640.8" style="stroke: #000000; stroke-width: 0.8"/>
      </g>
     </g>
     <g id="text_6">
      <!-- 16:40 -->
      <g transform="translate(1082.469697 654.675) scale(0.1 -0.1)">
       <use xlink:href="#SimHei-31"/>
       <use xlink:href="#SimHei-36" x="50"/>
       <use xlink:href="#SimHei-3a" x="100"/>
       <use xlink:href="#SimHei-34" x="150"/>
       <use xlink:href="#SimHei-30" x="200"/>
      </g>
     </g>
    </g>
    <g id="xtick_7">
     <g id="line2d_13">
      <path d="M 1251.535354 640.8 
L 1251.535354 86.4 
" clip-path="url(#p636fc6dc62)" style="fill: none; stroke-dasharray: 2.96,1.28; stroke-dashoffset: 0; stroke: #b0b0b0; stroke-width: 0.8"/>
     </g>
     <g id="line2d_14">
      <g>
       <use xlink:href="#me9f2470ced" x="1251.535354" y="640.8" style="stroke: #000000; stroke-width: 0.8"/>
      </g>
     </g>
     <g id="text_7">
      <!-- 18:03:20 -->
      <g transform="translate(1231.535354 654.675) scale(0.1 -0.1)">
       <defs>
        <path id="SimHei-38" d="M 175 1375 
Q 175 1675 325 1962 
Q 475 2250 825 2425 
Q 525 2600 425 2812 
Q 325 3025 312 3300 
Q 300 3575 387 3775 
Q 475 3975 650 4150 
Q 825 4325 1037 4387 
Q 1250 4450 1500 4450 
Q 1750 4450 1950 4400 
Q 2150 4350 2375 4187 
Q 2600 4025 2700 3725 
Q 2800 3425 2687 3025 
Q 2575 2625 2100 2400 
Q 2525 2275 2700 2012 
Q 2875 1750 2875 1375 
Q 2875 1000 2762 775 
Q 2650 550 2512 400 
Q 2375 250 2137 162 
Q 1900 75 1537 75 
Q 1175 75 912 162 
Q 650 250 475 425 
Q 300 600 237 837 
Q 175 1075 175 1375 
z
M 687 1400 
Q 675 1100 787 875 
Q 900 650 1200 587 
Q 1500 525 1825 600 
Q 2150 675 2275 950 
Q 2400 1225 2362 1500 
Q 2325 1775 2050 1962 
Q 1775 2150 1450 2125 
Q 1125 2100 912 1900 
Q 700 1700 687 1400 
z
M 775 3350 
Q 775 3100 950 2875 
Q 1125 2650 1500 2650 
Q 1875 2650 2062 2875 
Q 2250 3100 2237 3412 
Q 2225 3725 2012 3875 
Q 1800 4025 1437 4000 
Q 1075 3975 925 3787 
Q 775 3600 775 3350 
z
" transform="scale(0.015625)"/>
       </defs>
       <use xlink:href="#SimHei-31"/>
       <use xlink:href="#SimHei-38" x="50"/>
       <use xlink:href="#SimHei-3a" x="100"/>
       <use xlink:href="#SimHei-30" x="150"/>
       <use xlink:href="#SimHei-33" x="200"/>
       <use xlink:href="#SimHei-3a" x="250"/>
       <use xlink:href="#SimHei-32" x="300"/>
       <use xlink:href="#SimHei-30" x="350"/>
      </g>
     </g>
    </g>
    <g id="text_8">
     <!-- Time -->
     <g transform="translate(726 668.175) scale(0.12 -0.12)">
      <defs>
       <path id="SimHei-54" d="M 2850 3925 
L 1850 3925 
L 1850 125 
L 1275 125 
L 1275 3925 
L 275 3925 
L 275 4400 
L 2850 4400 
L 2850 3925 
z
" transform="scale(0.015625)"/>
       <path id="SimHei-69" d="M 1800 3725 
L 1300 3725 
L 1300 4375 
L 1800 4375 
L 1800 3725 
z
M 1800 125 
L 1300 125 
L 1300 2925 
L 1800 2925 
L 1800 125 
z
" transform="scale(0.015625)"/>
       <path id="SimHei-6d" d="M 3050 125 
L 2550 125 
L 2550 2150 
Q 2550 2300 2500 2400 
Q 2450 2500 2300 2500 
Q 2125 2500 1975 2312 
Q 1825 2125 1825 1825 
L 1825 125 
L 1325 125 
L 1325 2150 
Q 1325 2300 1275 2400 
Q 1225 2500 1075 2500 
Q 900 2500 750 2312 
Q 600 2125 600 1825 
L 600 125 
L 100 125 
L 100 2925 
L 600 2925 
L 600 2550 
Q 725 2750 900 2862 
Q 1075 2975 1275 2975 
Q 1475 2975 1612 2862 
Q 1750 2750 1800 2550 
Q 1925 2750 2087 2862 
Q 2250 2975 2450 2975 
Q 2750 2975 2900 2812 
Q 3050 2650 3050 2350 
L 3050 125 
z
" transform="scale(0.015625)"/>
       <path id="SimHei-65" d="M 2850 1075 
Q 2800 625 2450 350 
Q 2100 75 1625 75 
Q 1025 75 637 462 
Q 250 850 250 1525 
Q 250 2200 637 2587 
Q 1025 2975 1625 2975 
Q 2150 2975 2487 2637 
Q 2825 2300 2825 1525 
L 800 1525 
Q 800 975 1037 750 
Q 1275 525 1625 525 
Q 1900 525 2075 662 
Q 2250 800 2300 1075 
L 2850 1075 
z
M 2250 1925 
Q 2200 2275 2025 2412 
Q 1850 2550 1575 2550 
Q 1325 2550 1125 2412 
Q 925 2275 825 1925 
L 2250 1925 
z
" transform="scale(0.015625)"/>
      </defs>
      <use xlink:href="#SimHei-54"/>
      <use xlink:href="#SimHei-69" x="50"/>
      <use xlink:href="#SimHei-6d" x="100"/>
      <use xlink:href="#SimHei-65" x="150"/>
     </g>
    </g>
   </g>
   <g id="matplotlib.axis_2">
    <g id="ytick_1">
     <g id="line2d_15">
      <path d="M 180 546.423529 
L 1296 546.423529 
" clip-path="url(#p636fc6dc62)" style="fill: none; stroke-dasharray: 2.96,1.28; stroke-dashoffset: 0; stroke: #b0b0b0; stroke-width: 0.8"/>
     </g>
     <g id="line2d_16">
      <defs>
       <path id="m74c576589a" d="M 0 0 
L -3.5 0 
" style="stroke: #000000; stroke-width: 0.8"/>
      </defs>
      <g>
       <use xlink:href="#m74c576589a" x="180" y="546.423529" style="stroke: #000000; stroke-width: 0.8"/>
      </g>
     </g>
     <g id="text_9">
      <!-- 30 -->
      <g transform="translate(163 549.861029) scale(0.1 -0.1)">
       <use xlink:href="#SimHei-33"/>
       <use xlink:href="#SimHei-30" x="50"/>
      </g>
     </g>
    </g>
    <g id="ytick_2">
     <g id="line2d_17">
      <path d="M 180 447.6 
L 1296 447.6 
" clip-path="url(#p636fc6dc62)" style="fill: none; stroke-dasharray: 2.96,1.28; stroke-dashoffset: 0; stroke: #b0b0b0; stroke-width: 0.8"/>
     </g>
     <g id="line2d_18">
      <g>
       <use xlink:href="#m74c576589a" x="180" y="447.6" style="stroke: #000000; stroke-width: 0.8"/>
      </g>
     </g>
     <g id="text_10">
      <!-- 32 -->
      <g transform="translate(163 451.0375) scale(0.1 -0.1)">
       <use xlink:href="#SimHei-33"/>
       <use xlink:href="#SimHei-32" x="50"/>
      </g>
     </g>
    </g>
    <g id="ytick_3">
     <g id="line2d_19">
      <path d="M 180 348.776471 
L 1296 348.776471 
" clip-path="url(#p636fc6dc62)" style="fill: none; stroke-dasharray: 2.96,1.28; stroke-dashoffset: 0; stroke: #b0b0b0; stroke-width: 0.8"/>
     </g>
     <g id="line2d_20">
      <g>
       <use xlink:href="#m74c576589a" x="180" y="348.776471" style="stroke: #000000; stroke-width: 0.8"/>
      </g>
     </g>
     <g id="text_11">
      <!-- 34 -->
      <g transform="translate(163 352.213971) scale(0.1 -0.1)">
       <use xlink:href="#SimHei-33"/>
       <use xlink:href="#SimHei-34" x="50"/>
      </g>
     </g>
    </g>
    <g id="ytick_4">
     <g id="line2d_21">
      <path d="M 180 249.952941 
L 1296 249.952941 
" clip-path="url(#p636fc6dc62)" style="fill: none; stroke-dasharray: 2.96,1.28; stroke-dashoffset: 0; stroke: #b0b0b0; stroke-width: 0.8"/>
     </g>
     <g id="line2d_22">
      <g>
       <use xlink:href="#m74c576589a" x="180" y="249.952941" style="stroke: #000000; stroke-width: 0.8"/>
      </g>
     </g>
     <g id="text_12">
      <!-- 36 -->
      <g transform="translate(163 253.390441) scale(0.1 -0.1)">
       <use xlink:href="#SimHei-33"/>
       <use xlink:href="#SimHei-36" x="50"/>
      </g>
     </g>
    </g>
    <g id="ytick_5">
     <g id="line2d_23">
      <path d="M 180 151.129412 
L 1296 151.129412 
" clip-path="url(#p636fc6dc62)" style="fill: none; stroke-dasharray: 2.96,1.28; stroke-dashoffset: 0; stroke: #b0b0b0; stroke-width: 0.8"/>
     </g>
     <g id="line2d_24">
      <g>
       <use xlink:href="#m74c576589a" x="180" y="151.129412" style="stroke: #000000; stroke-width: 0.8"/>
      </g>
     </g>
     <g id="text_13">
      <!-- 38 -->
      <g transform="translate(163 154.566912) scale(0.1 -0.1)">
       <use xlink:href="#SimHei-33"/>
       <use xlink:href="#SimHei-38" x="50"/>
      </g>
     </g>
    </g>
    <g id="text_14">
     <!-- Value -->
     <g transform="translate(157.5 378.6) rotate(-90) scale(0.12 -0.12)">
      <defs>
       <path id="SimHei-56" d="M 3050 4400 
L 1800 75 
L 1300 75 
L 50 4400 
L 650 4400 
L 1525 1125 
L 1575 1125 
L 2450 4400 
L 3050 4400 
z
" transform="scale(0.015625)"/>
       <path id="SimHei-61" d="M 2875 125 
L 2275 125 
Q 2225 175 2200 262 
Q 2175 350 2175 475 
Q 2000 275 1750 175 
Q 1500 75 1225 75 
Q 825 75 550 275 
Q 275 475 275 850 
Q 275 1225 525 1450 
Q 775 1675 1300 1750 
Q 1650 1800 1912 1875 
Q 2175 1950 2175 2075 
Q 2175 2225 2062 2375 
Q 1950 2525 1575 2525 
Q 1275 2525 1137 2412 
Q 1000 2300 950 2100 
L 400 2100 
Q 450 2500 762 2737 
Q 1075 2975 1575 2975 
Q 2125 2975 2400 2725 
Q 2675 2475 2675 2025 
L 2675 650 
Q 2675 500 2725 375 
Q 2775 250 2875 125 
z
M 2175 1050 
L 2175 1550 
Q 2025 1500 1887 1462 
Q 1750 1425 1425 1375 
Q 1050 1325 937 1200 
Q 825 1075 825 900 
Q 825 750 937 637 
Q 1050 525 1275 525 
Q 1500 525 1762 650 
Q 2025 775 2175 1050 
z
" transform="scale(0.015625)"/>
       <path id="SimHei-6c" d="M 1825 125 
L 1325 125 
L 1325 4400 
L 1825 4400 
L 1825 125 
z
" transform="scale(0.015625)"/>
       <path id="SimHei-75" d="M 2800 125 
L 2300 125 
L 2300 650 
Q 2100 375 1862 225 
Q 1625 75 1250 75 
Q 800 75 575 325 
Q 350 575 350 950 
L 350 2925 
L 850 2925 
L 850 1125 
Q 850 825 1000 650 
Q 1150 475 1400 475 
Q 1725 475 2012 812 
Q 2300 1150 2300 1650 
L 2300 2925 
L 2800 2925 
L 2800 125 
z
" transform="scale(0.015625)"/>
      </defs>
      <use xlink:href="#SimHei-56"/>
      <use xlink:href="#SimHei-61" x="50"/>
      <use xlink:href="#SimHei-6c" x="100"/>
      <use xlink:href="#SimHei-75" x="150"/>
      <use xlink:href="#SimHei-65" x="200"/>
     </g>
    </g>
   </g>
   <g id="line2d_25">
    <path d="M 238.242424 615.6 
L 247.636364 615.6 
L 257.030303 615.6 
L 266.424242 610.658824 
L 275.818182 610.658824 
L 285.212121 605.717647 
L 294.606061 610.658824 
L 304 610.658824 
L 313.393939 615.6 
L 322.787879 610.658824 
L 332.181818 600.776471 
L 341.575758 600.776471 
L 350.969697 600.776471 
L 360.363636 595.835294 
L 369.757576 595.835294 
L 379.151515 600.776471 
L 388.545455 600.776471 
L 397.939394 595.835294 
L 407.333333 590.894118 
L 416.727273 595.835294 
L 426.121212 590.894118 
L 435.515152 590.894118 
L 444.909091 590.894118 
L 454.30303 585.952941 
L 463.69697 581.011765 
L 473.090909 585.952941 
L 482.484848 581.011765 
L 491.878788 585.952941 
L 501.272727 581.011765 
L 510.666667 581.011765 
L 520.060606 576.070588 
L 529.454545 581.011765 
L 538.848485 581.011765 
L 548.242424 581.011765 
L 557.636364 581.011765 
L 567.030303 581.011765 
L 576.424242 576.070588 
L 585.818182 576.070588 
L 595.212121 576.070588 
L 604.606061 571.129412 
L 614 571.129412 
L 623.393939 576.070588 
L 632.787879 576.070588 
L 642.181818 566.188235 
L 651.575758 576.070588 
L 660.969697 571.129412 
L 670.363636 571.129412 
L 679.757576 571.129412 
L 689.151515 571.129412 
L 698.545455 571.129412 
L 707.939394 566.188235 
L 717.333333 566.188235 
L 726.727273 566.188235 
L 736.121212 566.188235 
L 745.515152 566.188235 
L 754.909091 566.188235 
L 764.30303 566.188235 
L 773.69697 566.188235 
L 783.090909 566.188235 
L 792.484848 566.188235 
L 801.878788 566.188235 
L 811.272727 561.247059 
L 820.666667 561.247059 
L 830.060606 566.188235 
L 839.454545 561.247059 
L 848.848485 566.188235 
L 858.242424 561.247059 
L 867.636364 561.247059 
L 877.030303 561.247059 
L 886.424242 561.247059 
L 895.818182 556.305882 
L 905.212121 551.364706 
L 914.606061 551.364706 
L 924 556.305882 
L 933.393939 551.364706 
L 942.787879 556.305882 
L 952.181818 556.305882 
L 961.575758 556.305882 
L 970.969697 551.364706 
L 980.363636 551.364706 
L 989.757576 551.364706 
L 999.151515 551.364706 
L 1008.545455 551.364706 
L 1017.939394 546.423529 
L 1027.333333 551.364706 
L 1036.727273 556.305882 
L 1046.121212 551.364706 
L 1055.515152 546.423529 
L 1064.909091 556.305882 
L 1074.30303 546.423529 
L 1083.69697 556.305882 
L 1093.090909 561.247059 
L 1102.484848 561.247059 
L 1111.878788 561.247059 
L 1121.272727 561.247059 
L 1130.666667 561.247059 
L 1140.060606 556.305882 
L 1149.454545 556.305882 
L 1158.848485 561.247059 
L 1168.242424 556.305882 
L 1177.636364 566.188235 
L 1187.030303 571.129412 
L 1196.424242 600.776471 
L 1205.818182 576.070588 
L 1215.212121 571.129412 
L 1224.606061 566.188235 
L 1234 571.129412 
L 1243.393939 571.129412 
" clip-path="url(#p636fc6dc62)" style="fill: none; stroke: #1f77b4; stroke-width: 1.5; stroke-linecap: square"/>
   </g>
   <g id="line2d_26">
    <path d="M 230.727273 477.247059 
L 240.121212 477.247059 
L 249.515152 477.247059 
L 258.909091 472.305882 
L 268.30303 467.364706 
L 277.69697 467.364706 
L 287.090909 467.364706 
L 296.484848 467.364706 
L 305.878788 462.423529 
L 315.272727 462.423529 
L 324.666667 457.482353 
L 334.060606 452.541176 
L 343.454545 457.482353 
L 352.848485 457.482353 
L 362.242424 452.541176 
L 371.636364 452.541176 
L 381.030303 447.6 
L 390.424242 452.541176 
L 399.818182 452.541176 
L 409.212121 442.658824 
L 418.606061 442.658824 
L 428 442.658824 
L 437.393939 437.717647 
L 446.787879 432.776471 
L 456.181818 432.776471 
L 465.575758 437.717647 
L 474.969697 432.776471 
L 484.363636 432.776471 
L 493.757576 432.776471 
L 503.151515 432.776471 
L 512.545455 427.835294 
L 521.939394 427.835294 
L 531.333333 427.835294 
L 540.727273 427.835294 
L 550.121212 422.894118 
L 559.515152 422.894118 
L 568.909091 422.894118 
L 578.30303 417.952941 
L 587.69697 422.894118 
L 597.090909 417.952941 
L 606.484848 417.952941 
L 615.878788 413.011765 
L 625.272727 417.952941 
L 634.666667 413.011765 
L 644.060606 422.894118 
L 653.454545 417.952941 
L 662.848485 417.952941 
L 672.242424 413.011765 
L 681.636364 417.952941 
L 691.030303 417.952941 
L 700.424242 413.011765 
L 709.818182 413.011765 
L 719.212121 408.070588 
L 728.606061 408.070588 
L 738 403.129412 
L 747.393939 403.129412 
L 756.787879 408.070588 
L 766.181818 408.070588 
L 775.575758 403.129412 
L 784.969697 403.129412 
L 794.363636 403.129412 
L 803.757576 408.070588 
L 813.151515 403.129412 
L 822.545455 408.070588 
L 831.939394 408.070588 
L 841.333333 403.129412 
L 850.727273 403.129412 
L 860.121212 398.188235 
L 869.515152 408.070588 
L 878.909091 403.129412 
L 888.30303 398.188235 
L 897.69697 398.188235 
L 907.090909 393.247059 
L 916.484848 398.188235 
L 925.878788 398.188235 
L 935.272727 393.247059 
L 944.666667 398.188235 
L 954.060606 393.247059 
L 963.454545 398.188235 
L 972.848485 393.247059 
L 982.242424 393.247059 
L 991.636364 398.188235 
L 1001.030303 398.188235 
L 1010.424242 388.305882 
L 1019.818182 398.188235 
L 1029.212121 393.247059 
L 1038.606061 393.247059 
L 1048 388.305882 
L 1057.393939 393.247059 
L 1066.787879 398.188235 
L 1076.181818 393.247059 
L 1085.575758 398.188235 
L 1094.969697 403.129412 
L 1104.363636 393.247059 
L 1113.757576 398.188235 
L 1123.151515 398.188235 
L 1132.545455 398.188235 
L 1141.939394 393.247059 
L 1151.333333 388.305882 
L 1160.727273 398.188235 
L 1170.121212 398.188235 
L 1179.515152 398.188235 
L 1188.909091 398.188235 
L 1198.30303 408.070588 
L 1207.69697 408.070588 
L 1217.090909 403.129412 
L 1226.484848 403.129412 
L 1235.878788 403.129412 
L 1245.272727 398.188235 
" clip-path="url(#p636fc6dc62)" style="fill: none; stroke: #ff7f0e; stroke-width: 1.5; stroke-linecap: square"/>
   </g>
   <g id="line2d_27">
    <path d="M 234.484848 417.952941 
L 243.878788 417.952941 
L 253.272727 413.011765 
L 262.666667 413.011765 
L 272.060606 408.070588 
L 281.454545 408.070588 
L 290.848485 408.070588 
L 300.242424 403.129412 
L 309.636364 398.188235 
L 319.030303 398.188235 
L 328.424242 398.188235 
L 337.818182 393.247059 
L 347.212121 398.188235 
L 356.606061 393.247059 
L 366 393.247059 
L 375.393939 388.305882 
L 384.787879 388.305882 
L 394.181818 388.305882 
L 403.575758 383.364706 
L 412.969697 383.364706 
L 422.363636 378.423529 
L 431.757576 378.423529 
L 441.151515 378.423529 
L 450.545455 373.482353 
L 459.939394 373.482353 
L 469.333333 368.541176 
L 478.727273 373.482353 
L 488.121212 368.541176 
L 497.515152 368.541176 
L 506.909091 368.541176 
L 516.30303 363.6 
L 525.69697 368.541176 
L 535.090909 363.6 
L 544.484848 358.658824 
L 553.878788 363.6 
L 563.272727 363.6 
L 572.666667 358.658824 
L 582.060606 358.658824 
L 591.454545 353.717647 
L 600.848485 358.658824 
L 610.242424 348.776471 
L 619.636364 353.717647 
L 629.030303 353.717647 
L 638.424242 353.717647 
L 647.818182 348.776471 
L 657.212121 348.776471 
L 666.606061 348.776471 
L 676 343.835294 
L 685.393939 348.776471 
L 694.787879 348.776471 
L 704.181818 343.835294 
L 713.575758 343.835294 
L 722.969697 343.835294 
L 732.363636 338.894118 
L 741.757576 338.894118 
L 751.151515 338.894118 
L 760.545455 333.952941 
L 769.939394 338.894118 
L 779.333333 338.894118 
L 788.727273 338.894118 
L 798.121212 333.952941 
L 807.515152 333.952941 
L 816.909091 333.952941 
L 826.30303 333.952941 
L 835.69697 333.952941 
L 845.090909 329.011765 
L 854.484848 329.011765 
L 863.878788 333.952941 
L 873.272727 329.011765 
L 882.666667 329.011765 
L 892.060606 333.952941 
L 901.454545 333.952941 
L 910.848485 329.011765 
L 920.242424 329.011765 
L 929.636364 329.011765 
L 939.030303 329.011765 
L 948.424242 324.070588 
L 957.818182 329.011765 
L 967.212121 324.070588 
L 976.606061 324.070588 
L 986 324.070588 
L 995.393939 329.011765 
L 1004.787879 324.070588 
L 1014.181818 324.070588 
L 1023.575758 329.011765 
L 1032.969697 319.129412 
L 1042.363636 324.070588 
L 1051.757576 324.070588 
L 1061.151515 329.011765 
L 1070.545455 324.070588 
L 1079.939394 324.070588 
L 1089.333333 329.011765 
L 1098.727273 329.011765 
L 1108.121212 324.070588 
L 1117.515152 324.070588 
L 1126.909091 324.070588 
L 1136.30303 319.129412 
L 1145.69697 319.129412 
L 1155.090909 324.070588 
L 1164.484848 319.129412 
L 1173.878788 319.129412 
L 1183.272727 319.129412 
L 1192.666667 329.011765 
L 1202.060606 329.011765 
L 1211.454545 333.952941 
L 1220.848485 329.011765 
L 1230.242424 329.011765 
L 1239.636364 329.011765 
" clip-path="url(#p636fc6dc62)" style="fill: none; stroke: #2ca02c; stroke-width: 1.5; stroke-linecap: square"/>
   </g>
   <g id="line2d_28">
    <path d="M 238.242424 343.835294 
L 247.636364 343.835294 
L 257.030303 338.894118 
L 266.424242 338.894118 
L 275.818182 338.894118 
L 285.212121 333.952941 
L 294.606061 333.952941 
L 304 333.952941 
L 313.393939 333.952941 
L 322.787879 333.952941 
L 332.181818 329.011765 
L 341.575758 333.952941 
L 350.969697 329.011765 
L 360.363636 324.070588 
L 369.757576 324.070588 
L 379.151515 319.129412 
L 388.545455 319.129412 
L 397.939394 314.188235 
L 407.333333 314.188235 
L 416.727273 314.188235 
L 426.121212 314.188235 
L 435.515152 309.247059 
L 444.909091 309.247059 
L 454.30303 309.247059 
L 463.69697 304.305882 
L 473.090909 304.305882 
L 482.484848 299.364706 
L 491.878788 304.305882 
L 501.272727 299.364706 
L 510.666667 299.364706 
L 520.060606 294.423529 
L 529.454545 294.423529 
L 538.848485 294.423529 
L 548.242424 289.482353 
L 557.636364 289.482353 
L 567.030303 289.482353 
L 576.424242 289.482353 
L 585.818182 289.482353 
L 595.212121 289.482353 
L 604.606061 284.541176 
L 614 284.541176 
L 623.393939 284.541176 
L 632.787879 284.541176 
L 642.181818 279.6 
L 651.575758 284.541176 
L 660.969697 284.541176 
L 670.363636 279.6 
L 679.757576 284.541176 
L 689.151515 274.658824 
L 698.545455 284.541176 
L 707.939394 279.6 
L 717.333333 274.658824 
L 726.727273 279.6 
L 736.121212 274.658824 
L 745.515152 269.717647 
L 754.909091 274.658824 
L 764.30303 269.717647 
L 773.69697 274.658824 
L 783.090909 269.717647 
L 792.484848 269.717647 
L 801.878788 264.776471 
L 811.272727 264.776471 
L 820.666667 269.717647 
L 830.060606 269.717647 
L 839.454545 264.776471 
L 848.848485 274.658824 
L 858.242424 269.717647 
L 867.636364 269.717647 
L 877.030303 264.776471 
L 886.424242 264.776471 
L 895.818182 264.776471 
L 905.212121 264.776471 
L 914.606061 259.835294 
L 924 264.776471 
L 933.393939 264.776471 
L 942.787879 264.776471 
L 952.181818 264.776471 
L 961.575758 259.835294 
L 970.969697 259.835294 
L 980.363636 259.835294 
L 989.757576 259.835294 
L 999.151515 259.835294 
L 1008.545455 254.894118 
L 1017.939394 259.835294 
L 1027.333333 259.835294 
L 1036.727273 264.776471 
L 1046.121212 259.835294 
L 1055.515152 254.894118 
L 1064.909091 259.835294 
L 1074.30303 259.835294 
L 1083.69697 259.835294 
L 1093.090909 269.717647 
L 1102.484848 264.776471 
L 1111.878788 259.835294 
L 1121.272727 259.835294 
L 1130.666667 254.894118 
L 1140.060606 259.835294 
L 1149.454545 254.894118 
L 1158.848485 254.894118 
L 1168.242424 259.835294 
L 1177.636364 259.835294 
L 1187.030303 264.776471 
L 1196.424242 264.776471 
L 1205.818182 269.717647 
L 1215.212121 269.717647 
L 1224.606061 264.776471 
L 1234 274.658824 
L 1243.393939 269.717647 
" clip-path="url(#p636fc6dc62)" style="fill: none; stroke: #d62728; stroke-width: 1.5; stroke-linecap: square"/>
   </g>
   <g id="line2d_29">
    <path d="M 230.727273 254.894118 
L 240.121212 249.952941 
L 249.515152 245.011765 
L 258.909091 245.011765 
L 268.30303 245.011765 
L 277.69697 240.070588 
L 287.090909 235.129412 
L 296.484848 235.129412 
L 305.878788 235.129412 
L 315.272727 235.129412 
L 324.666667 230.188235 
L 334.060606 220.305882 
L 343.454545 225.247059 
L 352.848485 220.305882 
L 362.242424 220.305882 
L 371.636364 215.364706 
L 381.030303 210.423529 
L 390.424242 210.423529 
L 399.818182 205.482353 
L 409.212121 205.482353 
L 418.606061 200.541176 
L 428 200.541176 
L 437.393939 195.6 
L 446.787879 190.658824 
L 456.181818 190.658824 
L 465.575758 190.658824 
L 474.969697 185.717647 
L 484.363636 190.658824 
L 493.757576 180.776471 
L 503.151515 180.776471 
L 512.545455 180.776471 
L 521.939394 170.894118 
L 531.333333 175.835294 
L 540.727273 170.894118 
L 550.121212 165.952941 
L 559.515152 165.952941 
L 568.909091 165.952941 
L 578.30303 165.952941 
L 587.69697 156.070588 
L 597.090909 161.011765 
L 606.484848 151.129412 
L 615.878788 151.129412 
L 625.272727 151.129412 
L 634.666667 151.129412 
L 644.060606 151.129412 
L 653.454545 151.129412 
L 662.848485 151.129412 
L 672.242424 151.129412 
L 681.636364 146.188235 
L 691.030303 146.188235 
L 700.424242 146.188235 
L 709.818182 151.129412 
L 719.212121 136.305882 
L 728.606061 141.247059 
L 738 141.247059 
L 747.393939 136.305882 
L 756.787879 131.364706 
L 766.181818 136.305882 
L 775.575758 131.364706 
L 784.969697 131.364706 
L 794.363636 131.364706 
L 803.757576 121.482353 
L 813.151515 126.423529 
L 822.545455 126.423529 
L 831.939394 126.423529 
L 841.333333 126.423529 
L 850.727273 126.423529 
L 860.121212 131.364706 
L 869.515152 131.364706 
L 878.909091 126.423529 
L 888.30303 121.482353 
L 897.69697 121.482353 
L 907.090909 121.482353 
L 916.484848 116.541176 
L 925.878788 121.482353 
L 935.272727 121.482353 
L 944.666667 116.541176 
L 954.060606 116.541176 
L 963.454545 121.482353 
L 972.848485 116.541176 
L 982.242424 111.6 
L 991.636364 116.541176 
L 1001.030303 111.6 
L 1010.424242 116.541176 
L 1019.818182 116.541176 
L 1029.212121 116.541176 
L 1038.606061 116.541176 
L 1048 116.541176 
L 1057.393939 121.482353 
L 1066.787879 121.482353 
L 1076.181818 121.482353 
L 1085.575758 121.482353 
L 1094.969697 126.423529 
L 1104.363636 121.482353 
L 1113.757576 121.482353 
L 1123.151515 121.482353 
L 1132.545455 126.423529 
L 1141.939394 126.423529 
L 1151.333333 121.482353 
L 1160.727273 126.423529 
L 1170.121212 126.423529 
L 1179.515152 126.423529 
L 1188.909091 131.364706 
L 1198.30303 131.364706 
L 1207.69697 136.305882 
L 1217.090909 141.247059 
L 1226.484848 136.305882 
L 1235.878788 131.364706 
L 1245.272727 141.247059 
" clip-path="url(#p636fc6dc62)" style="fill: none; stroke: #9467bd; stroke-width: 1.5; stroke-linecap: square"/>
   </g>
   <g id="line2d_30">
    <path d="M 238.242424 363.6 
L 247.636364 358.658824 
L 257.030303 348.776471 
L 266.424242 343.835294 
L 275.818182 338.894118 
L 285.212121 348.776471 
L 294.606061 343.835294 
L 304 338.894118 
L 313.393939 329.011765 
L 322.787879 324.070588 
L 332.181818 324.070588 
L 341.575758 324.070588 
L 350.969697 314.188235 
L 360.363636 314.188235 
L 369.757576 304.305882 
L 379.151515 304.305882 
L 388.545455 299.364706 
L 397.939394 299.364706 
L 407.333333 304.305882 
L 416.727273 304.305882 
L 426.121212 289.482353 
L 435.515152 284.541176 
L 444.909091 279.6 
L 454.30303 279.6 
L 463.69697 274.658824 
L 473.090909 279.6 
L 482.484848 274.658824 
L 491.878788 274.658824 
L 501.272727 264.776471 
L 510.666667 264.776471 
L 520.060606 264.776471 
L 529.454545 259.835294 
L 538.848485 249.952941 
L 548.242424 240.070588 
L 557.636364 245.011765 
L 567.030303 245.011765 
L 576.424242 245.011765 
L 585.818182 240.070588 
L 595.212121 240.070588 
L 604.606061 240.070588 
L 614 235.129412 
L 623.393939 245.011765 
L 632.787879 245.011765 
L 642.181818 245.011765 
L 651.575758 259.835294 
L 660.969697 245.011765 
L 670.363636 249.952941 
L 679.757576 245.011765 
L 689.151515 245.011765 
L 698.545455 240.070588 
L 707.939394 230.188235 
L 717.333333 225.247059 
L 726.727273 225.247059 
L 736.121212 230.188235 
L 745.515152 225.247059 
L 754.909091 230.188235 
L 764.30303 225.247059 
L 773.69697 230.188235 
L 783.090909 225.247059 
L 792.484848 225.247059 
L 801.878788 210.423529 
L 811.272727 220.305882 
L 820.666667 225.247059 
L 830.060606 220.305882 
L 839.454545 220.305882 
L 848.848485 225.247059 
L 858.242424 230.188235 
L 867.636364 225.247059 
L 877.030303 230.188235 
L 886.424242 220.305882 
L 895.818182 220.305882 
L 905.212121 220.305882 
L 914.606061 220.305882 
L 924 220.305882 
L 933.393939 225.247059 
L 942.787879 220.305882 
L 952.181818 215.364706 
L 961.575758 220.305882 
L 970.969697 215.364706 
L 980.363636 215.364706 
L 989.757576 225.247059 
L 999.151515 225.247059 
L 1008.545455 225.247059 
L 1017.939394 230.188235 
L 1027.333333 225.247059 
L 1036.727273 225.247059 
L 1046.121212 230.188235 
L 1055.515152 225.247059 
L 1064.909091 230.188235 
L 1074.30303 235.129412 
L 1083.69697 240.070588 
L 1093.090909 245.011765 
L 1102.484848 245.011765 
L 1111.878788 240.070588 
L 1121.272727 235.129412 
L 1130.666667 230.188235 
L 1140.060606 220.305882 
L 1149.454545 220.305882 
L 1158.848485 230.188235 
L 1168.242424 240.070588 
L 1177.636364 240.070588 
L 1187.030303 249.952941 
L 1196.424242 274.658824 
L 1205.818182 264.776471 
L 1215.212121 259.835294 
L 1224.606061 259.835294 
L 1234 254.894118 
L 1243.393939 264.776471 
" clip-path="url(#p636fc6dc62)" style="fill: none; stroke: #8c564b; stroke-width: 1.5; stroke-linecap: square"/>
   </g>
   <g id="patch_3">
    <path d="M 180 640.8 
L 180 86.4 
" style="fill: none; stroke: #000000; stroke-width: 0.8; stroke-linejoin: miter; stroke-linecap: square"/>
   </g>
   <g id="patch_4">
    <path d="M 180 640.8 
L 1296 640.8 
" style="fill: none; stroke: #000000; stroke-width: 0.8; stroke-linejoin: miter; stroke-linecap: square"/>
   </g>
   <g id="text_15">
    <!-- Temperature(℃) vs Time  -->
    <g transform="translate(666 80.4) scale(0.12 -0.12)">
     <defs>
      <path id="SimHei-70" d="M 2825 1525 
Q 2825 800 2475 425 
Q 2125 50 1625 50 
Q 1350 50 1150 162 
Q 950 275 800 500 
L 800 -800 
L 300 -800 
L 300 2925 
L 800 2925 
L 800 2550 
Q 950 2775 1150 2875 
Q 1350 2975 1625 2975 
Q 2125 2975 2475 2612 
Q 2825 2250 2825 1525 
z
M 2275 1525 
Q 2275 2000 2087 2262 
Q 1900 2525 1525 2525 
Q 1225 2525 1012 2262 
Q 800 2000 800 1525 
Q 800 1050 1012 775 
Q 1225 500 1525 500 
Q 1900 500 2087 775 
Q 2275 1050 2275 1525 
z
" transform="scale(0.015625)"/>
      <path id="SimHei-72" d="M 2500 2425 
Q 2025 2500 1700 2287 
Q 1375 2075 1150 1550 
L 1150 125 
L 650 125 
L 650 2925 
L 1150 2925 
L 1150 2200 
Q 1375 2600 1712 2787 
Q 2050 2975 2500 2975 
L 2500 2425 
z
" transform="scale(0.015625)"/>
      <path id="SimHei-74" d="M 2750 200 
Q 2625 150 2462 112 
Q 2300 75 2025 75 
Q 1575 75 1300 325 
Q 1025 575 1025 1025 
L 1025 2525 
L 175 2525 
L 175 2925 
L 1025 2925 
L 1025 3900 
L 1525 3900 
L 1525 2925 
L 2550 2925 
L 2550 2525 
L 1525 2525 
L 1525 1000 
Q 1525 800 1625 662 
Q 1725 525 2000 525 
Q 2275 525 2450 575 
Q 2625 625 2750 700 
L 2750 200 
z
" transform="scale(0.015625)"/>
      <path id="SimHei-28" d="M 2975 -200 
L 2700 -475 
Q 2075 125 1762 775 
Q 1450 1425 1450 2250 
Q 1450 3075 1762 3725 
Q 2075 4375 2700 5000 
L 2975 4725 
Q 2400 4175 2112 3587 
Q 1825 3000 1825 2250 
Q 1825 1500 2112 912 
Q 2400 325 2975 -200 
z
" transform="scale(0.015625)"/>
      <path id="SimHei-2103" d="M 1050 5050 
Q 1500 5025 1675 4525 
L 1675 4300 
Q 1550 3900 1175 3825 
L 975 3825 
Q 500 3875 450 4450 
Q 475 4925 1025 5050 
L 1050 5050 
z
M 1025 4850 
Q 675 4750 650 4450 
Q 675 4125 950 4025 
L 1100 4000 
Q 1500 4125 1475 4475 
L 1475 4500 
Q 1375 4775 1150 4850 
L 1025 4850 
z
M 4025 4425 
Q 5375 4350 5750 3300 
L 5775 3250 
L 5300 3050 
Q 5000 3850 4300 3900 
L 3925 3925 
Q 2500 3850 2450 2025 
Q 2525 775 3475 425 
Q 3675 325 4125 350 
Q 4975 450 5400 1450 
L 5400 1475 
L 5900 1375 
L 5900 1350 
Q 5325 -75 4075 -125 
L 3725 -125 
Q 2400 100 2100 1175 
Q 1975 1525 1975 2100 
Q 2050 3550 2975 4125 
Q 3375 4400 3925 4425 
L 4025 4425 
z
" transform="scale(0.015625)"/>
      <path id="SimHei-29" d="M 1675 2250 
Q 1675 1425 1362 775 
Q 1050 125 425 -475 
L 150 -200 
Q 725 325 1012 912 
Q 1300 1500 1300 2250 
Q 1300 3000 1012 3587 
Q 725 4175 150 4725 
L 425 5000 
Q 1050 4375 1362 3725 
Q 1675 3075 1675 2250 
z
" transform="scale(0.015625)"/>
      <path id="SimHei-20" transform="scale(0.015625)"/>
      <path id="SimHei-76" d="M 2875 2925 
L 1825 75 
L 1275 75 
L 225 2925 
L 750 2925 
L 1525 750 
L 1575 750 
L 2350 2925 
L 2875 2925 
z
" transform="scale(0.015625)"/>
      <path id="SimHei-73" d="M 2750 900 
Q 2750 500 2437 287 
Q 2125 75 1650 75 
Q 1050 75 725 312 
Q 400 550 400 1000 
L 900 1000 
Q 900 700 1112 600 
Q 1325 500 1625 500 
Q 1925 500 2075 612 
Q 2225 725 2225 900 
Q 2225 1025 2100 1150 
Q 1975 1275 1475 1350 
Q 900 1425 687 1637 
Q 475 1850 475 2200 
Q 475 2500 762 2737 
Q 1050 2975 1600 2975 
Q 2100 2975 2387 2750 
Q 2675 2525 2675 2150 
L 2175 2150 
Q 2175 2375 2012 2462 
Q 1850 2550 1600 2550 
Q 1275 2550 1137 2437 
Q 1000 2325 1000 2175 
Q 1000 2000 1125 1900 
Q 1250 1800 1650 1750 
Q 2300 1650 2525 1437 
Q 2750 1225 2750 900 
z
" transform="scale(0.015625)"/>
     </defs>
     <use xlink:href="#SimHei-54"/>
     <use xlink:href="#SimHei-65" x="50"/>
     <use xlink:href="#SimHei-6d" x="100"/>
     <use xlink:href="#SimHei-70" x="150"/>
     <use xlink:href="#SimHei-65" x="200"/>
     <use xlink:href="#SimHei-72" x="250"/>
     <use xlink:href="#SimHei-61" x="300"/>
     <use xlink:href="#SimHei-74" x="350"/>
     <use xlink:href="#SimHei-75" x="400"/>
     <use xlink:href="#SimHei-72" x="450"/>
     <use xlink:href="#SimHei-65" x="500"/>
     <use xlink:href="#SimHei-28" x="550"/>
     <use xlink:href="#SimHei-2103" x="600"/>
     <use xlink:href="#SimHei-29" x="700"/>
     <use xlink:href="#SimHei-20" x="750"/>
     <use xlink:href="#SimHei-76" x="800"/>
     <use xlink:href="#SimHei-73" x="850"/>
     <use xlink:href="#SimHei-20" x="900"/>
     <use xlink:href="#SimHei-54" x="950"/>
     <use xlink:href="#SimHei-69" x="1000"/>
     <use xlink:href="#SimHei-6d" x="1050"/>
     <use xlink:href="#SimHei-65" x="1100"/>
     <use xlink:href="#SimHei-20" x="1150"/>
    </g>
   </g>
   <g id="legend_1">
    <g id="patch_5">
     <path d="M 187 172.4 
L 359 172.4 
Q 361 172.4 361 170.4 
L 361 93.4 
Q 361 91.4 359 91.4 
L 187 91.4 
Q 185 91.4 185 93.4 
L 185 170.4 
Q 185 172.4 187 172.4 
z
" style="fill: #ffffff; opacity: 0.8; stroke: #cccccc; stroke-linejoin: miter"/>
    </g>
    <g id="line2d_31">
     <path d="M 189 98.9 
L 199 98.9 
L 209 98.9 
" style="fill: none; stroke: #1f77b4; stroke-width: 1.5; stroke-linecap: square"/>
    </g>
    <g id="text_16">
     <!-- 2022-07-23: 1-floor Temperature(℃) -->
     <g transform="translate(217 102.4) scale(0.08 -0.08)">
      <defs>
       <path id="SimHei-2d" d="M 2975 2125 
L 125 2125 
L 125 2525 
L 2975 2525 
L 2975 2125 
z
" transform="scale(0.015625)"/>
       <path id="SimHei-37" d="M 850 150 
Q 1300 2050 2425 3925 
L 275 3925 
L 275 4375 
L 2950 4375 
L 2950 3950 
Q 1775 2050 1400 150 
L 850 150 
z
" transform="scale(0.015625)"/>
       <path id="SimHei-66" d="M 2850 3825 
Q 2725 3900 2550 3950 
Q 2375 4000 2100 4000 
Q 1825 4000 1725 3862 
Q 1625 3725 1625 3525 
L 1625 2925 
L 2650 2925 
L 2650 2525 
L 1625 2525 
L 1625 125 
L 1125 125 
L 1125 2525 
L 275 2525 
L 275 2925 
L 1125 2925 
L 1125 3500 
Q 1125 3950 1400 4200 
Q 1675 4450 2125 4450 
Q 2400 4450 2562 4412 
Q 2725 4375 2850 4325 
L 2850 3825 
z
" transform="scale(0.015625)"/>
       <path id="SimHei-6f" d="M 2925 1525 
Q 2925 875 2525 475 
Q 2125 75 1575 75 
Q 1025 75 625 475 
Q 225 875 225 1525 
Q 225 2175 625 2575 
Q 1025 2975 1575 2975 
Q 2125 2975 2525 2575 
Q 2925 2175 2925 1525 
z
M 2375 1525 
Q 2375 2025 2125 2275 
Q 1875 2525 1575 2525 
Q 1275 2525 1025 2275 
Q 775 2025 775 1525 
Q 775 1025 1025 775 
Q 1275 525 1575 525 
Q 1875 525 2125 775 
Q 2375 1025 2375 1525 
z
" transform="scale(0.015625)"/>
      </defs>
      <use xlink:href="#SimHei-32"/>
      <use xlink:href="#SimHei-30" x="50"/>
      <use xlink:href="#SimHei-32" x="100"/>
      <use xlink:href="#SimHei-32" x="150"/>
      <use xlink:href="#SimHei-2d" x="200"/>
      <use xlink:href="#SimHei-30" x="250"/>
      <use xlink:href="#SimHei-37" x="300"/>
      <use xlink:href="#SimHei-2d" x="350"/>
      <use xlink:href="#SimHei-32" x="400"/>
      <use xlink:href="#SimHei-33" x="450"/>
      <use xlink:href="#SimHei-3a" x="500"/>
      <use xlink:href="#SimHei-20" x="550"/>
      <use xlink:href="#SimHei-31" x="600"/>
      <use xlink:href="#SimHei-2d" x="650"/>
      <use xlink:href="#SimHei-66" x="700"/>
      <use xlink:href="#SimHei-6c" x="750"/>
      <use xlink:href="#SimHei-6f" x="800"/>
      <use xlink:href="#SimHei-6f" x="850"/>
      <use xlink:href="#SimHei-72" x="900"/>
      <use xlink:href="#SimHei-20" x="950"/>
      <use xlink:href="#SimHei-54" x="1000"/>
      <use xlink:href="#SimHei-65" x="1050"/>
      <use xlink:href="#SimHei-6d" x="1100"/>
      <use xlink:href="#SimHei-70" x="1150"/>
      <use xlink:href="#SimHei-65" x="1200"/>
      <use xlink:href="#SimHei-72" x="1250"/>
      <use xlink:href="#SimHei-61" x="1300"/>
      <use xlink:href="#SimHei-74" x="1350"/>
      <use xlink:href="#SimHei-75" x="1400"/>
      <use xlink:href="#SimHei-72" x="1450"/>
      <use xlink:href="#SimHei-65" x="1500"/>
      <use xlink:href="#SimHei-28" x="1550"/>
      <use xlink:href="#SimHei-2103" x="1600"/>
      <use xlink:href="#SimHei-29" x="1700"/>
     </g>
    </g>
    <g id="line2d_32">
     <path d="M 189 111.9 
L 199 111.9 
L 209 111.9 
" style="fill: none; stroke: #ff7f0e; stroke-width: 1.5; stroke-linecap: square"/>
    </g>
    <g id="text_17">
     <!-- 2022-07-23: 2-floor Temperature(℃) -->
     <g transform="translate(217 115.4) scale(0.08 -0.08)">
      <use xlink:href="#SimHei-32"/>
      <use xlink:href="#SimHei-30" x="50"/>
      <use xlink:href="#SimHei-32" x="100"/>
      <use xlink:href="#SimHei-32" x="150"/>
      <use xlink:href="#SimHei-2d" x="200"/>
      <use xlink:href="#SimHei-30" x="250"/>
      <use xlink:href="#SimHei-37" x="300"/>
      <use xlink:href="#SimHei-2d" x="350"/>
      <use xlink:href="#SimHei-32" x="400"/>
      <use xlink:href="#SimHei-33" x="450"/>
      <use xlink:href="#SimHei-3a" x="500"/>
      <use xlink:href="#SimHei-20" x="550"/>
      <use xlink:href="#SimHei-32" x="600"/>
      <use xlink:href="#SimHei-2d" x="650"/>
      <use xlink:href="#SimHei-66" x="700"/>
      <use xlink:href="#SimHei-6c" x="750"/>
      <use xlink:href="#SimHei-6f" x="800"/>
      <use xlink:href="#SimHei-6f" x="850"/>
      <use xlink:href="#SimHei-72" x="900"/>
      <use xlink:href="#SimHei-20" x="950"/>
      <use xlink:href="#SimHei-54" x="1000"/>
      <use xlink:href="#SimHei-65" x="1050"/>
      <use xlink:href="#SimHei-6d" x="1100"/>
      <use xlink:href="#SimHei-70" x="1150"/>
      <use xlink:href="#SimHei-65" x="1200"/>
      <use xlink:href="#SimHei-72" x="1250"/>
      <use xlink:href="#SimHei-61" x="1300"/>
      <use xlink:href="#SimHei-74" x="1350"/>
      <use xlink:href="#SimHei-75" x="1400"/>
      <use xlink:href="#SimHei-72" x="1450"/>
      <use xlink:href="#SimHei-65" x="1500"/>
      <use xlink:href="#SimHei-28" x="1550"/>
      <use xlink:href="#SimHei-2103" x="1600"/>
      <use xlink:href="#SimHei-29" x="1700"/>
     </g>
    </g>
    <g id="line2d_33">
     <path d="M 189 124.9 
L 199 124.9 
L 209 124.9 
" style="fill: none; stroke: #2ca02c; stroke-width: 1.5; stroke-linecap: square"/>
    </g>
    <g id="text_18">
     <!-- 2022-07-23: 3-floor Temperature(℃) -->
     <g transform="translate(217 128.4) scale(0.08 -0.08)">
      <use xlink:href="#SimHei-32"/>
      <use xlink:href="#SimHei-30" x="50"/>
      <use xlink:href="#SimHei-32" x="100"/>
      <use xlink:href="#SimHei-32" x="150"/>
      <use xlink:href="#SimHei-2d" x="200"/>
      <use xlink:href="#SimHei-30" x="250"/>
      <use xlink:href="#SimHei-37" x="300"/>
      <use xlink:href="#SimHei-2d" x="350"/>
      <use xlink:href="#SimHei-32" x="400"/>
      <use xlink:href="#SimHei-33" x="450"/>
      <use xlink:href="#SimHei-3a" x="500"/>
      <use xlink:href="#SimHei-20" x="550"/>
      <use xlink:href="#SimHei-33" x="600"/>
      <use xlink:href="#SimHei-2d" x="650"/>
      <use xlink:href="#SimHei-66" x="700"/>
      <use xlink:href="#SimHei-6c" x="750"/>
      <use xlink:href="#SimHei-6f" x="800"/>
      <use xlink:href="#SimHei-6f" x="850"/>
      <use xlink:href="#SimHei-72" x="900"/>
      <use xlink:href="#SimHei-20" x="950"/>
      <use xlink:href="#SimHei-54" x="1000"/>
      <use xlink:href="#SimHei-65" x="1050"/>
      <use xlink:href="#SimHei-6d" x="1100"/>
      <use xlink:href="#SimHei-70" x="1150"/>
      <use xlink:href="#SimHei-65" x="1200"/>
      <use xlink:href="#SimHei-72" x="1250"/>
      <use xlink:href="#SimHei-61" x="1300"/>
      <use xlink:href="#SimHei-74" x="1350"/>
      <use xlink:href="#SimHei-75" x="1400"/>
      <use xlink:href="#SimHei-72" x="1450"/>
      <use xlink:href="#SimHei-65" x="1500"/>
      <use xlink:href="#SimHei-28" x="1550"/>
      <use xlink:href="#SimHei-2103" x="1600"/>
      <use xlink:href="#SimHei-29" x="1700"/>
     </g>
    </g>
    <g id="line2d_34">
     <path d="M 189 137.9 
L 199 137.9 
L 209 137.9 
" style="fill: none; stroke: #d62728; stroke-width: 1.5; stroke-linecap: square"/>
    </g>
    <g id="text_19">
     <!-- 2022-07-23: 4-floor Temperature(℃) -->
     <g transform="translate(217 141.4) scale(0.08 -0.08)">
      <use xlink:href="#SimHei-32"/>
      <use xlink:href="#SimHei-30" x="50"/>
      <use xlink:href="#SimHei-32" x="100"/>
      <use xlink:href="#SimHei-32" x="150"/>
      <use xlink:href="#SimHei-2d" x="200"/>
      <use xlink:href="#SimHei-30" x="250"/>
      <use xlink:href="#SimHei-37" x="300"/>
      <use xlink:href="#SimHei-2d" x="350"/>
      <use xlink:href="#SimHei-32" x="400"/>
      <use xlink:href="#SimHei-33" x="450"/>
      <use xlink:href="#SimHei-3a" x="500"/>
      <use xlink:href="#SimHei-20" x="550"/>
      <use xlink:href="#SimHei-34" x="600"/>
      <use xlink:href="#SimHei-2d" x="650"/>
      <use xlink:href="#SimHei-66" x="700"/>
      <use xlink:href="#SimHei-6c" x="750"/>
      <use xlink:href="#SimHei-6f" x="800"/>
      <use xlink:href="#SimHei-6f" x="850"/>
      <use xlink:href="#SimHei-72" x="900"/>
      <use xlink:href="#SimHei-20" x="950"/>
      <use xlink:href="#SimHei-54" x="1000"/>
      <use xlink:href="#SimHei-65" x="1050"/>
      <use xlink:href="#SimHei-6d" x="1100"/>
      <use xlink:href="#SimHei-70" x="1150"/>
      <use xlink:href="#SimHei-65" x="1200"/>
      <use xlink:href="#SimHei-72" x="1250"/>
      <use xlink:href="#SimHei-61" x="1300"/>
      <use xlink:href="#SimHei-74" x="1350"/>
      <use xlink:href="#SimHei-75" x="1400"/>
      <use xlink:href="#SimHei-72" x="1450"/>
      <use xlink:href="#SimHei-65" x="1500"/>
      <use xlink:href="#SimHei-28" x="1550"/>
      <use xlink:href="#SimHei-2103" x="1600"/>
      <use xlink:href="#SimHei-29" x="1700"/>
     </g>
    </g>
    <g id="line2d_35">
     <path d="M 189 150.9 
L 199 150.9 
L 209 150.9 
" style="fill: none; stroke: #9467bd; stroke-width: 1.5; stroke-linecap: square"/>
    </g>
    <g id="text_20">
     <!-- 2022-07-23: 5-floor Temperature(℃) -->
     <g transform="translate(217 154.4) scale(0.08 -0.08)">
      <use xlink:href="#SimHei-32"/>
      <use xlink:href="#SimHei-30" x="50"/>
      <use xlink:href="#SimHei-32" x="100"/>
      <use xlink:href="#SimHei-32" x="150"/>
      <use xlink:href="#SimHei-2d" x="200"/>
      <use xlink:href="#SimHei-30" x="250"/>
      <use xlink:href="#SimHei-37" x="300"/>
      <use xlink:href="#SimHei-2d" x="350"/>
      <use xlink:href="#SimHei-32" x="400"/>
      <use xlink:href="#SimHei-33" x="450"/>
      <use xlink:href="#SimHei-3a" x="500"/>
      <use xlink:href="#SimHei-20" x="550"/>
      <use xlink:href="#SimHei-35" x="600"/>
      <use xlink:href="#SimHei-2d" x="650"/>
      <use xlink:href="#SimHei-66" x="700"/>
      <use xlink:href="#SimHei-6c" x="750"/>
      <use xlink:href="#SimHei-6f" x="800"/>
      <use xlink:href="#SimHei-6f" x="850"/>
      <use xlink:href="#SimHei-72" x="900"/>
      <use xlink:href="#SimHei-20" x="950"/>
      <use xlink:href="#SimHei-54" x="1000"/>
      <use xlink:href="#SimHei-65" x="1050"/>
      <use xlink:href="#SimHei-6d" x="1100"/>
      <use xlink:href="#SimHei-70" x="1150"/>
      <use xlink:href="#SimHei-65" x="1200"/>
      <use xlink:href="#SimHei-72" x="1250"/>
      <use xlink:href="#SimHei-61" x="1300"/>
      <use xlink:href="#SimHei-74" x="1350"/>
      <use xlink:href="#SimHei-75" x="1400"/>
      <use xlink:href="#SimHei-72" x="1450"/>
      <use xlink:href="#SimHei-65" x="1500"/>
      <use xlink:href="#SimHei-28" x="1550"/>
      <use xlink:href="#SimHei-2103" x="1600"/>
      <use xlink:href="#SimHei-29" x="1700"/>
     </g>
    </g>
    <g id="line2d_36">
     <path d="M 189 163.9 
L 199 163.9 
L 209 163.9 
" style="fill: none; stroke: #8c564b; stroke-width: 1.5; stroke-linecap: square"/>
    </g>
    <g id="text_21">
     <!-- 2022-07-23: Shaft Temperature(℃) -->
     <g transform="translate(217 167.4) scale(0.08 -0.08)">
      <defs>
       <path id="SimHei-53" d="M 2900 1325 
Q 2900 750 2537 412 
Q 2175 75 1550 75 
Q 925 75 575 425 
Q 225 775 225 1300 
L 225 1475 
L 800 1475 
L 800 1325 
Q 800 950 1025 750 
Q 1250 550 1550 550 
Q 1950 550 2137 762 
Q 2325 975 2325 1275 
Q 2325 1525 2100 1737 
Q 1875 1950 1450 2125 
Q 850 2350 587 2625 
Q 325 2900 325 3275 
Q 325 3800 687 4125 
Q 1050 4450 1550 4450 
Q 2200 4450 2487 4062 
Q 2775 3675 2775 3225 
L 2200 3225 
Q 2225 3500 2050 3725 
Q 1875 3950 1550 3950 
Q 1250 3950 1075 3787 
Q 900 3625 900 3350 
Q 900 3125 1037 2962 
Q 1175 2800 1750 2575 
Q 2300 2350 2600 2037 
Q 2900 1725 2900 1325 
z
" transform="scale(0.015625)"/>
       <path id="SimHei-68" d="M 2800 125 
L 2300 125 
L 2300 1925 
Q 2300 2225 2150 2400 
Q 2000 2575 1750 2575 
Q 1425 2575 1137 2237 
Q 850 1900 850 1400 
L 850 125 
L 350 125 
L 350 4400 
L 850 4400 
L 850 2400 
Q 1050 2675 1287 2825 
Q 1525 2975 1900 2975 
Q 2350 2975 2575 2725 
Q 2800 2475 2800 2100 
L 2800 125 
z
" transform="scale(0.015625)"/>
      </defs>
      <use xlink:href="#SimHei-32"/>
      <use xlink:href="#SimHei-30" x="50"/>
      <use xlink:href="#SimHei-32" x="100"/>
      <use xlink:href="#SimHei-32" x="150"/>
      <use xlink:href="#SimHei-2d" x="200"/>
      <use xlink:href="#SimHei-30" x="250"/>
      <use xlink:href="#SimHei-37" x="300"/>
      <use xlink:href="#SimHei-2d" x="350"/>
      <use xlink:href="#SimHei-32" x="400"/>
      <use xlink:href="#SimHei-33" x="450"/>
      <use xlink:href="#SimHei-3a" x="500"/>
      <use xlink:href="#SimHei-20" x="550"/>
      <use xlink:href="#SimHei-53" x="600"/>
      <use xlink:href="#SimHei-68" x="650"/>
      <use xlink:href="#SimHei-61" x="700"/>
      <use xlink:href="#SimHei-66" x="750"/>
      <use xlink:href="#SimHei-74" x="800"/>
      <use xlink:href="#SimHei-20" x="850"/>
      <use xlink:href="#SimHei-54" x="900"/>
      <use xlink:href="#SimHei-65" x="950"/>
      <use xlink:href="#SimHei-6d" x="1000"/>
      <use xlink:href="#SimHei-70" x="1050"/>
      <use xlink:href="#SimHei-65" x="1100"/>
      <use xlink:href="#SimHei-72" x="1150"/>
      <use xlink:href="#SimHei-61" x="1200"/>
      <use xlink:href="#SimHei-74" x="1250"/>
      <use xlink:href="#SimHei-75" x="1300"/>
      <use xlink:href="#SimHei-72" x="1350"/>
      <use xlink:href="#SimHei-65" x="1400"/>
      <use xlink:href="#SimHei-28" x="1450"/>
      <use xlink:href="#SimHei-2103" x="1500"/>
      <use xlink:href="#SimHei-29" x="1600"/>
     </g>
    </g>
   </g>
  </g>
 </g>
 <defs>
  <clipPath id="p636fc6dc62">
   <rect x="180" y="86.4" width="1116" height="554.4"/>
  </clipPath>
 </defs>
</svg>
